<?xml version="1.0" encoding="UTF-8"?>
<svg id="Layer_15" data-name="Layer 15" xmlns="http://www.w3.org/2000/svg" viewBox="0 0 100 100">
  <defs>
    <style>
      .cls-1 {
        fill: #dbdbdb;
      }

      .cls-2 {
        fill: #cecece;
      }

      .cls-3 {
        fill: #8c6eb9;
      }

      .cls-4 {
        fill: #f7f7f7;
      }

      .cls-5 {
        fill: #afafaf;
      }
    </style>
  </defs>
  <rect class="cls-3" x="0" width="100" height="100" rx="6.28" ry="6.28"/>
  <path class="cls-5" d="M92.91,51.25s-41.9,4.66-62.04,0c0,0,3.32,12.26,0,36.4,0,0,41.9-4.66,62.04,0,0,0-3.32-12.26,0-36.4Z"/>
  <path class="cls-2" d="M89.05,44.53s-41.9,4.66-62.04,0c0,0,3.32,12.26,0,36.4,0,0,41.9-4.66,62.04,0,0,0-3.32-12.26,0-36.4Z"/>
  <path class="cls-1" d="M80.29,34.64s-40.91,10.17-61.49,8.23c0,0,4.91,11.71,4.83,36.08,0,0,40.91-10.17,61.49-8.23,0,0-4.91-11.71-4.83-36.08Z"/>
  <path class="cls-4" d="M72.3,27.7s-40.35,12.21-61,11.3c0,0,5.5,11.45,6.63,35.79,0,0,40.35-12.21,61-11.3,0,0-5.5-11.45-6.63-35.79Z"/>
</svg>