<?xml version="1.0" encoding="UTF-8"?>
<svg id="Layer_15" data-name="Layer 15" xmlns="http://www.w3.org/2000/svg" viewBox="0 0 100 100">
  <defs>
    <style>
      .cls-1 {
        fill: #dbdbdb;
      }

      .cls-2 {
        fill: #cecece;
      }

      .cls-3 {
        fill: #8c6eb9;
      }

      .cls-4 {
        fill: #f7f7f7;
      }

      .cls-5 {
        fill: #afafaf;
      }
    </style>
  </defs>
  <rect class="cls-3" x=".12" width="100" height="100" rx="6.28" ry="6.28"/>
  <path class="cls-5" d="M93.03,51.25s-41.9,4.66-62.04,0c0,0,3.32,12.26,0,36.4,0,0,41.9-4.66,62.04,0,0,0-3.32-12.26,0-36.4Z"/>
  <path class="cls-2" d="M85.01,38.16s-41.35,8.2-61.82,5.27c0,0,4.35,11.93,3.09,36.27,0,0,41.35-8.2,61.82-5.27,0,0-4.35-11.93-3.09-36.27Z"/>
  <path class="cls-1" d="M76.31,23.04s-40.56,11.48-61.2,10.2c0,0,5.29,11.55,5.98,35.91,0,0,40.56-11.48,61.2-10.2,0,0-5.29-11.55-5.98-35.91Z"/>
  <path class="cls-4" d="M64.39,8.44S24.94,23.3,4.27,23.76c0,0,6.24,11.06,8.99,35.28,0,0,39.45-14.86,60.12-15.32,0,0-6.24-11.06-8.99-35.28Z"/>
</svg>