<?xml version="1.0" encoding="UTF-8"?>
<svg id="Layer_16" data-name="Layer 16" xmlns="http://www.w3.org/2000/svg" viewBox="0 0 100 100">
  <defs>
    <style>
      .cls-1 {
        fill: #8191c6;
      }

      .cls-2 {
        fill: #8798d8;
      }

      .cls-3 {
        fill: #8ca1d3;
      }

      .cls-4 {
        fill: #acb9dd;
      }

      .cls-5 {
        fill: #798acc;
      }

      .cls-6 {
        fill: #8f9fea;
      }

      .cls-7 {
        fill: #6f80b5;
      }

      .cls-8 {
        fill: #3141b9;
      }

      .cls-9 {
        fill: none;
        stroke: #8ca1d3;
        stroke-miterlimit: 10;
        stroke-width: .6px;
      }
    </style>
  </defs>
  <rect class="cls-8" x="0" width="100" height="100" rx="6.28" ry="6.28"/>
  <polygon class="cls-5" points="40.77 90.16 50.95 23.98 78.56 23.98 87.14 90.16 69.11 90.16 66.13 37.93 63.96 37.42 59.42 90.16 40.77 90.16"/>
  <polyline class="cls-3" points="59.42 90.16 59.65 87.46 41.31 87.07 40.77 90.16"/>
  <polygon class="cls-3" points="78.56 23.98 64.04 23.98 50.97 23.98 50.97 22.91 78.56 22.91 78.56 23.98"/>
  <polygon class="cls-3" points="64.08 30.87 64.04 23.98 65.83 23.98 65.83 31.74 64.08 30.87"/>
  <path class="cls-9" d="M55.46,23.78s-.94,4.29-5.05,3.65"/>
  <path class="cls-9" d="M73.95,23.78s.94,4.29,5.05,3.65"/>
  <polygon class="cls-3" points="68.96 87.46 69.11 90.16 87.14 90.16 86.79 87.46 68.96 87.46"/>
  <path class="cls-6" d="M65.56,35.54l-13.66-23.65-8.16-2.06s-.02.03-.03.05v-.05s-.02.06-.07.17c-2.58,4.81-4.93,6.54-6.94,6.67-2.01-.12-4.36-1.85-6.94-6.66-.05-.11-.07-.17-.07-.17v.05s-.02-.03-.03-.05l-2.25.57-5.92,1.49-13.66,23.65,11.05,2.06-4.25,32.56h44.12l-4.25-32.56,11.05-2.06Z"/>
  <path class="cls-2" d="M36.7,70.16V16.68s3.93.05,7.01-6.84l8.19,2.06,13.66,23.65-11.05,2.06,4.25,32.56h-22.06Z"/>
  <circle class="cls-4" cx="37.84" cy="26.03" r=".49"/>
  <circle class="cls-4" cx="37.84" cy="30.64" r=".49"/>
  <circle class="cls-4" cx="37.89" cy="35.29" r=".49"/>
  <circle class="cls-4" cx="37.84" cy="39.94" r=".49"/>
  <circle class="cls-4" cx="37.89" cy="44.58" r=".49"/>
  <circle class="cls-4" cx="37.89" cy="49.2" r=".49"/>
  <circle class="cls-4" cx="37.94" cy="53.84" r=".49"/>
  <circle class="cls-4" cx="37.89" cy="59.5" r=".49"/>
  <circle class="cls-4" cx="37.94" cy="64.15" r=".49"/>
  <circle class="cls-4" cx="37.94" cy="68.77" r=".49"/>
  <polyline class="cls-1" points="36.11 16.59 36.7 16.68 36.7 70.16 36.11 70.16"/>
  <rect class="cls-1" x="41.9" y="27.9" width="8.75" height="1.46"/>
  <path class="cls-7" d="M41.9,29.36h8.75c.07.04-1.38,7.23-4.03,7.05-1.29-.09-3.14.58-4.72-7.05Z"/>
</svg>