<?xml version="1.0" encoding="UTF-8"?>
<svg id="Layer_8" data-name="Layer 8" xmlns="http://www.w3.org/2000/svg" viewBox="0 0 100 100">
  <defs>
    <style>
      .cls-1 {
        fill: #bd63d3;
      }

      .cls-2 {
        fill: #e57bff;
      }

      .cls-3 {
        fill: #3e1284;
      }

      .cls-4 {
        opacity: .3;
      }

      .cls-5 {
        fill: none;
        stroke: #0e52db;
        stroke-miterlimit: 10;
        stroke-width: 4px;
      }
    </style>
  </defs>
  <rect class="cls-3" x="-.05" y=".02" width="100" height="100" rx="6.28" ry="6.28"/>
  <g>
    <path class="cls-1" d="M49.95,24.88c-10.34-.25-10.03,9.24-10.03,9.24-15.84-1.17-13.7,12.72-13.7,12.72-12.84-.41-13.65,12.27-13.65,12.27-9.34-.61-9.7,13.54-9.7,13.54h46.11l.63-47.77c.11,0,.22,0,.33,0Z"/>
    <path class="cls-1" d="M87.33,59.1s-.81-12.67-13.65-12.27c0,0,2.15-13.89-13.7-12.72,0,0,.3-9.49-10.03-9.24-.11,0-.22,0-.33,0l-.63,47.77h48.05s-.36-14.15-9.7-13.54Z"/>
  </g>
  <g>
    <path class="cls-2" d="M50.16,29.15c-9.41-.22-9.14,8.41-9.14,8.41-14.43-1.06-12.47,11.59-12.47,11.59-11.69-.37-12.43,11.17-12.43,11.17-8.5-.55-8.83,12.33-8.83,12.33h41.98l.58-43.49c.1,0,.2,0,.3,0Z"/>
    <path class="cls-2" d="M84.19,60.32s-.74-11.54-12.43-11.17c0,0,1.95-12.65-12.47-11.59,0,0,.28-8.64-9.14-8.41-.1,0-.2,0-.3,0l-.58,43.49h43.75s-.33-12.89-8.83-12.33Z"/>
  </g>
  <g class="cls-4">
    <path class="cls-5" d="M51.67,53.14l24.02-2.11c-.47-5.84-3-11.4-7.21-15.59l-17.31,17.13.5.58Z"/>
    <polygon class="cls-5" points="50.37 51.64 50.45 53.25 50.48 53.25 51.17 52.57 50.37 51.64"/>
    <polygon class="cls-5" points="50.48 53.25 51.67 53.14 51.17 52.57 50.48 53.25"/>
    <polygon class="cls-5" points="50.45 53.28 50.48 53.25 50.45 53.25 50.45 53.28"/>
    <path class="cls-5" d="M50.45,53.25l-24.25,2.13c.54,5.6,2.97,10.93,6.96,15.01l17.3-17.11v-.03Z"/>
    <path class="cls-5" d="M50.37,51.64l-14.81-17.21,14.81,17.21-1.07-21.44,1.07,21.44.8.93,17.31-17.13c-1.93-1.93-4.22-3.58-6.83-4.83-12.37-5.92-27.21-.7-33.13,11.68-2.02,4.23-2.74,8.74-2.33,13.09l24.25-2.13-.08-1.61Z"/>
    <path class="cls-5" d="M50.48,53.25l-.03.03,1.24,24.96-1.24-24.96-17.3,17.11c1.98,2.03,4.34,3.74,7.04,5.04,9.32,4.46,20.04,2.59,27.29-3.89l-15.83-18.39-1.18.1Z"/>
    <path class="cls-5" d="M75.69,51.04l-24.02,2.11,15.83,18.39c2.38-2.12,4.38-4.74,5.84-7.79,1.97-4.11,2.7-8.48,2.35-12.71Z"/>
  </g>
  <g>
    <path class="cls-5" d="M50.05,51.26l24.02-2.11c-.47-5.84-3-11.4-7.21-15.59l-17.31,17.13.5.58Z"/>
    <polygon class="cls-5" points="48.76 49.75 48.84 51.36 48.87 51.36 49.56 50.68 48.76 49.75"/>
    <polygon class="cls-5" points="48.87 51.36 50.05 51.26 49.56 50.68 48.87 51.36"/>
    <polygon class="cls-5" points="48.84 51.39 48.87 51.36 48.84 51.36 48.84 51.39"/>
    <path class="cls-5" d="M48.84,51.36l-24.25,2.13c.54,5.6,2.97,10.93,6.96,15.01l17.3-17.11v-.03Z"/>
    <path class="cls-5" d="M48.76,49.75l-14.81-17.21,14.81,17.21-1.07-21.44,1.07,21.44.8.93,17.31-17.13c-1.93-1.93-4.22-3.58-6.83-4.83-12.37-5.92-27.21-.7-33.13,11.68-2.02,4.23-2.74,8.74-2.33,13.09l24.25-2.13-.08-1.61Z"/>
    <path class="cls-5" d="M48.87,51.36l-.03.03,1.24,24.96-1.24-24.96-17.3,17.11c1.98,2.03,4.34,3.74,7.04,5.04,9.32,4.46,20.04,2.59,27.29-3.89l-15.83-18.39-1.18.1Z"/>
    <path class="cls-5" d="M74.07,49.15l-24.02,2.11,15.83,18.39c2.38-2.12,4.38-4.74,5.84-7.79,1.97-4.11,2.7-8.48,2.35-12.71Z"/>
  </g>
</svg>