<?xml version="1.0" encoding="UTF-8"?>
<svg xmlns="http://www.w3.org/2000/svg" viewBox="0 0 100 100">
  <defs>
    <style>
      .cls-1 {
        opacity: .13;
      }

      .cls-1, .cls-2 {
        fill: #424242;
      }

      .cls-3 {
        fill: #5555e0;
      }

      .cls-4 {
        fill: #353534;
      }

      .cls-5 {
        fill: #3d3d3d;
      }

      .cls-6 {
        fill: #4f3c5e;
      }

      .cls-7 {
        fill: #80e7ff;
      }

      .cls-8 {
        fill: #75daf2;
      }

      .cls-9 {
        fill: #5b2463;
      }
    </style>
  </defs>
  <g id="icon_3" data-name="icon 3">
    <rect class="cls-3" x="-.16" width="100" height="100" rx="6.28" ry="6.28"/>
    <polygon class="cls-6" points="39.18 44 39.16 78.19 46.14 79.42 46.5 46.01 39.18 44"/>
    <polygon class="cls-6" points="4.58 35.78 4.56 70.73 12.44 71.98 12.84 37.84 4.58 35.78"/>
    <polygon class="cls-6" points="86.63 56.23 86.6 86.7 93.59 87.79 93.94 58.03 86.63 56.23"/>
    <polygon class="cls-6" points="63.44 50.55 63.42 82.29 70.4 83.42 70.76 52.42 63.44 50.55"/>
    <polygon class="cls-9" points="-.27 35.5 99.95 59.66 99.95 66.59 -.27 43.25 -.27 35.5"/>
    <polygon class="cls-9" points="-.29 44.31 99.92 68.47 99.92 75.4 -.29 52.06 -.29 44.31"/>
    <polygon class="cls-9" points="-.16 52.99 100.05 77.15 100.05 84.08 -.16 60.74 -.16 52.99"/>
    <polygon class="cls-9" points="-.27 61.33 99.95 85.49 99.95 92.42 -.27 69.08 -.27 61.33"/>
    <path class="cls-4" d="M84.54,16.72s9.6-12.5,11.62-10.95l1.91,6.84s-14.3,12.97-12.66,15.77-4.58-5.23-4.58-5.23l3.71-6.44Z"/>
    <path class="cls-4" d="M29.28,69.79s-5.27,14.86-2.87,15.71l6.78-2.12s3.11-19.06,6.35-19.2-6.88-1-6.88-1l-3.38,6.61Z"/>
    <path class="cls-4" d="M10.11,67.84s-5.27,14.86-2.87,15.71l6.78-2.12s3.11-19.06,6.35-19.2-6.88-1-6.88-1l-3.38,6.61Z"/>
    <path class="cls-4" d="M65.13,8.3s9.6-12.5,11.62-10.95l1.91,6.84s-14.3,12.97-12.66,15.77-4.58-5.23-4.58-5.23l3.71-6.44Z"/>
    <path class="cls-8" d="M18.16,49.64s3.47-14.64,14.83-13.61c0,0-3.04-12.99,14.46-13.53,0,0,1.84-9.58,15.81-9.58,0,0,22.73-9.31,24.42,17.16,0,0-.85,4.16-3.95,4.8,0,0-4.94,13.76-14.68,14.19,0,0-2.54,8.47-7.34,8.61,0,0-6.35,8.59-13.98,4.08,0,0-3.7,5.35-13.42,2.82"/>
    <path class="cls-7" d="M74.84,9.26s.14-3.53,4.09-3.25c0,0,10.59-2.47,7.76,5.33,0,0,2.26,2.72-2.54,3.99,0,0-1.84,6.96-7.34,4.82s-4.66-5.67-4.66-5.67c0,0-1.13-4.8,2.68-5.22Z"/>
  </g>
  <g id="Layer_19" data-name="Layer 19">
    <path class="cls-2" d="M32.5,51.88s6.97-.97,9.44-2.1-.14,4.64-8.05,9.8"/>
    <path class="cls-2" d="M7.21,47.29s4.53,4.04,9.68,3.19l-3.61,7.2s-9.04-6.38-6.07-10.39Z"/>
    <path class="cls-5" d="M35.46,59.58c0,6.36-5.15,11.51-11.51,11.51s-11.51-5.15-11.51-11.51c0-3.7,1.74-6.99,4.45-9.1,1.95-1.51,4.4-2.42,7.06-2.42,6.36,0,11.51,5.15,11.51,11.51Z"/>
    <path class="cls-2" d="M33.89,59.33c0,5.93-4.8,10.73-10.73,10.73s-10.73-4.8-10.73-10.73c0-3.45,1.63-6.51,4.15-8.48,1.82-1.41,4.1-2.25,6.58-2.25,5.93,0,10.73,4.8,10.73,10.73Z"/>
    <path class="cls-1" d="M34,53.5s6.97-.97,9.44-2.1-.14,4.64-8.05,9.8"/>
    <path class="cls-7" d="M12.44,52.07s6.03,4.19,11.51,1.81c0,0,8.5,4.45,10,0,0,0,5.36.64,3.72-3.88,0,0,.42-2.48-3.15-2.94,0,0-3.52-5.49-8.73-4.45,0,0-9.66-2.23-11.97,2.49,0,0-5.76,3.4-1.38,6.97Z"/>
  </g>
</svg>