<?xml version="1.0" encoding="UTF-8"?>
<svg id="Layer_8" data-name="Layer 8" xmlns="http://www.w3.org/2000/svg" viewBox="0 0 100 100">
  <defs>
    <style>
      .cls-1 {
        fill: #bd63d3;
      }

      .cls-2 {
        fill: #e57bff;
      }

      .cls-3 {
        fill: #3e1284;
      }

      .cls-4 {
        opacity: .3;
      }

      .cls-5 {
        fill: none;
        stroke: #0e52db;
        stroke-miterlimit: 10;
        stroke-width: 4px;
      }
    </style>
  </defs>
  <rect class="cls-3" x="-.05" y=".02" width="100" height="100" rx="6.28" ry="6.28"/>
  <g>
    <path class="cls-1" d="M49.95,24.88c-10.34-.25-10.03,9.24-10.03,9.24-15.84-1.17-13.7,12.72-13.7,12.72-12.84-.41-13.65,12.27-13.65,12.27-9.34-.61-9.7,13.54-9.7,13.54h46.11l.63-47.77c.11,0,.22,0,.33,0Z"/>
    <path class="cls-1" d="M87.33,59.1s-.81-12.67-13.65-12.27c0,0,2.15-13.89-13.7-12.72,0,0,.3-9.49-10.03-9.24-.11,0-.22,0-.33,0l-.63,47.77h48.05s-.36-14.15-9.7-13.54Z"/>
  </g>
  <g>
    <path class="cls-2" d="M50.16,29.15c-9.41-.22-9.14,8.41-9.14,8.41-14.43-1.06-12.47,11.59-12.47,11.59-11.69-.37-12.43,11.17-12.43,11.17-8.5-.55-8.83,12.33-8.83,12.33h41.98l.58-43.49c.1,0,.2,0,.3,0Z"/>
    <path class="cls-2" d="M84.19,60.32s-.74-11.54-12.43-11.17c0,0,1.95-12.65-12.47-11.59,0,0,.28-8.64-9.14-8.41-.1,0-.2,0-.3,0l-.58,43.49h43.75s-.33-12.89-8.83-12.33Z"/>
  </g>
  <g class="cls-4">
    <path class="cls-5" d="M51.88,52.73l22.76-7.98c-1.9-5.54-5.72-10.3-10.83-13.33l-12.54,20.87.62.44Z"/>
    <polygon class="cls-5" points="50.26 51.59 50.73 53.13 50.76 53.12 51.26 52.29 50.26 51.59"/>
    <polygon class="cls-5" points="50.76 53.12 51.88 52.73 51.26 52.29 50.76 53.12"/>
    <polygon class="cls-5" points="50.74 53.16 50.76 53.12 50.73 53.13 50.74 53.16"/>
    <path class="cls-5" d="M50.73,53.13l-22.98,8.06c1.91,5.29,5.58,9.85,10.45,12.82l12.53-20.85v-.03Z"/>
    <path class="cls-5" d="M50.26,51.59l-18.6-13.02,18.6,13.02-6.33-20.51,6.33,20.51,1,.7,12.54-20.87c-2.35-1.39-4.97-2.43-7.81-2.99-13.45-2.68-26.54,6.05-29.22,19.5-.92,4.59-.5,9.15.98,13.25l22.98-8.06-.48-1.54Z"/>
    <path class="cls-5" d="M50.76,53.12l-.02.04,7.37,23.88-7.37-23.88-12.53,20.85c2.42,1.47,5.13,2.56,8.07,3.14,10.14,2.02,20.06-2.44,25.48-10.51l-19.88-13.91-1.12.39Z"/>
    <path class="cls-5" d="M74.64,44.75l-22.76,7.98,19.88,13.91c1.78-2.64,3.07-5.67,3.74-8.99.89-4.46.52-8.88-.86-12.9Z"/>
  </g>
  <g>
    <path class="cls-5" d="M49.85,51.3l22.76-7.98c-1.9-5.54-5.72-10.3-10.83-13.33l-12.54,20.87.62.44Z"/>
    <polygon class="cls-5" points="48.23 50.16 48.7 51.7 48.73 51.69 49.23 50.86 48.23 50.16"/>
    <polygon class="cls-5" points="48.73 51.69 49.85 51.3 49.23 50.86 48.73 51.69"/>
    <polygon class="cls-5" points="48.71 51.73 48.73 51.69 48.7 51.7 48.71 51.73"/>
    <path class="cls-5" d="M48.7,51.7l-22.98,8.06c1.91,5.29,5.58,9.85,10.45,12.82l12.53-20.85v-.03Z"/>
    <path class="cls-5" d="M48.23,50.16l-18.6-13.02,18.6,13.02-6.33-20.51,6.33,20.51,1,.7,12.54-20.87c-2.35-1.39-4.97-2.43-7.81-2.99-13.45-2.68-26.54,6.05-29.22,19.5-.92,4.59-.5,9.15.98,13.25l22.98-8.06-.48-1.54Z"/>
    <path class="cls-5" d="M48.73,51.69l-.02.04,7.37,23.88-7.37-23.88-12.53,20.85c2.42,1.47,5.13,2.56,8.07,3.14,10.14,2.02,20.06-2.44,25.48-10.51l-19.88-13.91-1.12.39Z"/>
    <path class="cls-5" d="M72.61,43.32l-22.76,7.98,19.88,13.91c1.78-2.64,3.07-5.67,3.74-8.99.89-4.46.52-8.88-.86-12.9Z"/>
  </g>
</svg>