<?xml version="1.0" encoding="UTF-8"?>
<svg id="Layer_15" data-name="Layer 15" xmlns="http://www.w3.org/2000/svg" viewBox="0 0 100 100">
  <defs>
    <style>
      .cls-1 {
        fill: #33332b;
      }

      .cls-1, .cls-2, .cls-3, .cls-4, .cls-5, .cls-6, .cls-7, .cls-8 {
        stroke: #19130f;
        stroke-miterlimit: 10;
        stroke-width: 3px;
      }

      .cls-2 {
        fill: #6e89a1;
      }

      .cls-9 {
        fill: #595959;
      }

      .cls-3 {
        fill: #1d1419;
      }

      .cls-4 {
        fill: #141e1e;
      }

      .cls-10 {
        fill: #4c0808;
      }

      .cls-5 {
        fill: #31372e;
      }

      .cls-11 {
        fill: #322b32;
      }

      .cls-12 {
        fill: #1e1e1e;
      }

      .cls-13 {
        fill: #135a8f;
      }

      .cls-14 {
        fill: #2b1b28;
      }

      .cls-6 {
        fill: #1c1520;
      }

      .cls-7 {
        fill: #342c32;
      }

      .cls-15 {
        fill: #7d7d7d;
      }

      .cls-16 {
        fill: #1d1108;
      }

      .cls-17 {
        fill: #222238;
      }

      .cls-18 {
        fill: #040404;
        opacity: .15;
      }

      .cls-19 {
        fill: #1b1b25;
      }

      .cls-20 {
        fill: #838383;
      }

      .cls-8 {
        fill: #36302d;
      }
    </style>
  </defs>
  <rect class="cls-14" x="0" width="100" height="100" rx="6.28" ry="6.28"/>
  <path class="cls-19" d="M29.04,100h64.67c3.47,0,6.28-2.81,6.28-6.28v-16.1H29.04v22.38Z"/>
  <path class="cls-17" d="M29.04,96.61h64.67c3.47,0,6.28-2.39,6.28-5.33v-13.66H29.04v18.99Z"/>
  <rect class="cls-2" x="37.52" y="9.24" width="47.37" height="62.33"/>
  <polyline class="cls-10" points="56.05 40.55 48.81 70.19 75.06 70.19 65.44 41.28"/>
  <ellipse class="cls-9" cx="15.25" cy="83.69" rx="12.19" ry="12.92"/>
  <rect class="cls-20" x="-.42" y="85.87" width="32.32" height="14.13" rx="6.89" ry="6.89"/>
  <path class="cls-12" d="M10.61,85.87c-3.27-4.46,1.92-14.77,1.92-14.77,0,0,3.43-1.43,8.75,1.36s-2.77,9.06-2.59,11.24l.18,2.18h-8.26Z"/>
  <path class="cls-15" d="M69.25,29.17c0,4.82-3.91,8.73-8.73,8.73-1.21,0-2.35-.24-3.4-.69-3.13-1.33-5.33-4.43-5.33-8.05,0-4.82,3.91-8.73,8.73-8.73s8.73,3.91,8.73,8.73Z"/>
  <path class="cls-13" d="M54.39,67.62l1.64-23.22-2.91,3.97c-1.39,1.89-.56,4.37,1.79,5.38l4.23,1.81-2.11,6.06-7.91-4.16c-2.97-1.56-4.11-4.74-2.65-7.43l4.08-7.54,5.49-3.89h9.78s5.49,3.89,5.49,3.89l4.08,7.54c1.45,2.69.32,5.86-2.65,7.43l-7.91,4.16-2.11-6.06,4.23-1.81c2.35-1.01,3.18-3.49,1.79-5.38l-2.91-3.97,2.24,22.34.24,3.45h-14.14"/>
  <path class="cls-15" d="M56.52,38.61l1.11-3.96,6.02-.12.86,3.66s-4.4,6.65-8,.42Z"/>
  <path class="cls-16" d="M51.3,25.52s4.87-10.81,16.99-2.14c0,0,3.68,2.69,4.63-.62s.59,8.46-5.7,4.89-15.43,1.52-15.43,1.52c0,0-2.25-1.12-.49-3.65Z"/>
  <polyline class="cls-10" points="59.14 45.36 63.3 45.36 65.32 50.71 61.2 60.21 57.6 51.89"/>
  <rect class="cls-18" x="27.45" y="77.62" width="14.33" height="22.38" rx="3.5" ry="3.5"/>
  <rect class="cls-5" x="14.03" y="9.24" width="18.12" height="23.85"/>
  <rect class="cls-8" x="-4.5" y="38.08" width="37.03" height="23.85"/>
  <rect class="cls-7" x="-2.32" y="21.16" width="10.78" height="11.73"/>
  <rect class="cls-1" x="-2.32" y="6.58" width="10.78" height="11.73"/>
  <rect class="cls-6" x="90.07" y="9.24" width="18.52" height="7.51"/>
  <rect class="cls-4" x="90.07" y="21.02" width="18.52" height="21.91"/>
  <rect class="cls-3" x="90.74" y="48.28" width="18.52" height="21.91"/>
  <rect class="cls-11" x="25.93" y="77.62" width="14.33" height="22.38" rx="3.5" ry="3.5"/>
</svg>