<?xml version="1.0" encoding="UTF-8"?>
<svg xmlns="http://www.w3.org/2000/svg" viewBox="0 0 100 100">
  <defs>
    <style>
      .cls-1 {
        fill: #f8ff99;
      }

      .cls-2 {
        fill: #8affa7;
      }

      .cls-3 {
        fill: #dee0fc;
      }

      .cls-4 {
        fill: #8aff8d;
      }

      .cls-5 {
        fill: #7cd877;
      }

      .cls-6 {
        fill: #eaff3e;
      }

      .cls-7 {
        fill: #fff;
      }

      .cls-8 {
        fill: #ebecf7;
      }

      .cls-9 {
        fill: #2f2bb9;
      }

      .cls-10 {
        fill: #bfff3e;
      }

      .cls-11 {
        fill: #e3e548;
      }

      .cls-12 {
        fill: #3141b9;
      }

      .cls-13 {
        fill: #d2d3ff;
      }
    </style>
  </defs>
  <g id="Layer_6" data-name="Layer 6">
    <rect class="cls-9" x="-44.54" y="-.05" width="144.7" height="144.7" rx="6.28" ry="6.28"/>
    <path class="cls-2" d="M100.21,121.19H25.15s8.83-22.06,35.01-22.06c0,0-.02-27.78,40.05-17.98v40.04Z"/>
    <path class="cls-2" d="M-44.39,84.42H36.76s.04-28.6-25.44-22.06c0,0-10.43-23.7-30.62-8.17,0,0-7.31-25.33-25.19-17.16"/>
    <circle class="cls-10" cx="63.69" cy="41.93" r="25.33"/>
    <ellipse class="cls-9" cx="78.14" cy="42.13" rx="20.47" ry="22.57"/>
  </g>
  <g id="Layer_12" data-name="Layer 12">
    <rect class="cls-12" x="-45.11" y=".09" width="144.7" height="144.7" rx="6.28" ry="6.28"/>
    <circle class="cls-1" cx="63.18" cy="42.06" r="25.33"/>
    <ellipse class="cls-6" cx="66.33" cy="42.55" rx="24.87" ry="25.33" transform="translate(1.26 87.01) rotate(-67.02)"/>
    <ellipse class="cls-11" cx="69.69" cy="42.35" rx="23.72" ry="17.6" transform="translate(22.78 109.05) rotate(-86.17)"/>
    <path class="cls-5" d="M98.04,123.1H18.6s9.35-22.75,37.06-22.75c0,0-.02-28.65,42.39-18.54v41.28Z"/>
    <path class="cls-5" d="M-39.01,86.73H42.14s.04-28.6-25.44-22.06c0,0-10.43-23.7-30.62-8.17,0,0-7.31-25.33-25.19-17.16"/>
    <ellipse class="cls-12" cx="77.57" cy="42.27" rx="20.47" ry="22.57"/>
    <circle class="cls-11" cx="50.14" cy="24.85" r="1.66"/>
    <circle class="cls-11" cx="47.48" cy="39.82" r="1.66"/>
    <circle class="cls-11" cx="42.14" cy="32.45" r=".62"/>
    <circle class="cls-11" cx="55.09" cy="64.18" r=".62"/>
    <circle class="cls-11" cx="45.79" cy="49.6" r=".62"/>
    <circle class="cls-11" cx="52.25" cy="30.12" r=".62"/>
    <circle class="cls-11" cx="58.69" cy="19.69" r=".62"/>
    <circle class="cls-11" cx="40.2" cy="42.85" r=".62"/>
    <circle class="cls-11" cx="49.82" cy="57.03" r="1.66"/>
    <path class="cls-4" d="M-44.96,86.73H36.19s.04-28.6-25.44-22.06c0,0-10.43-23.7-30.62-8.17,0,0-7.31-25.33-25.19-17.16"/>
    <path class="cls-4" d="M99.65,123.1H24.59s8.83-22.75,35.01-22.75c0,0-.02-28.65,40.05-18.54v41.28Z"/>
    <polygon class="cls-13" points="9.29 34.96 7.67 34.74 8.64 36.05 7.11 35.51 7.79 36.99 6.4 36.13 6.76 37.73 5.57 36.6 5.59 38.23 4.67 36.89 4.35 38.49 3.73 36.98 3.08 38.48 2.79 36.87 1.85 38.21 1.89 36.57 .69 37.68 1.07 36.09 -.33 36.93 .38 35.45 -1.17 35.98 -.17 34.68 -1.8 34.88 -.55 33.82 -2.18 33.67 -.74 32.89 -2.3 32.4 -.74 31.94 -2.16 31.14 -.53 31.02 -1.76 29.94 -.14 30.16 -1.12 28.85 .42 29.4 -.26 27.91 1.13 28.77 .77 27.17 1.95 28.3 1.93 26.67 2.86 28.01 3.17 26.41 3.8 27.92 4.44 26.42 4.74 28.03 5.68 26.7 5.64 28.33 6.84 27.22 6.45 28.81 7.86 27.97 7.15 29.45 8.7 28.92 7.7 30.22 9.32 30.03 8.08 31.08 9.71 31.23 8.27 32.01 9.83 32.5 8.26 32.96 9.69 33.76 8.06 33.88 9.29 34.96"/>
    <polygon class="cls-13" points="36.84 12.14 35.22 11.92 36.2 13.23 34.66 12.68 35.35 14.17 33.95 13.31 34.31 14.9 33.13 13.78 33.15 15.41 32.23 14.06 31.91 15.66 31.29 14.15 30.64 15.65 30.35 14.05 29.4 15.38 29.45 13.75 28.25 14.86 28.63 13.27 27.23 14.1 27.93 12.63 26.39 13.16 27.38 11.86 25.76 12.05 27 10.99 25.38 10.84 26.81 10.07 25.25 9.58 26.82 9.12 25.4 8.32 27.03 8.2 25.8 7.12 27.42 7.33 26.44 6.02 27.98 6.57 27.3 5.09 28.69 5.94 28.33 4.35 29.51 5.48 29.49 3.84 30.41 5.19 30.73 3.59 31.35 5.1 32 3.6 32.3 5.21 33.24 3.87 33.19 5.5 34.39 4.4 34.01 5.98 35.41 5.15 34.71 6.62 36.25 6.1 35.26 7.39 36.88 7.2 35.64 8.26 37.26 8.41 35.83 9.19 37.39 9.67 35.82 10.13 37.24 10.93 35.62 11.06 36.84 12.14"/>
    <polygon class="cls-13" points="89.16 40.22 87.54 40.01 88.52 41.32 86.98 40.77 87.66 42.25 86.27 41.4 86.63 42.99 85.45 41.86 85.47 43.5 84.54 42.15 84.22 43.75 83.6 42.24 82.96 43.74 82.66 42.14 81.72 43.47 81.76 41.84 80.56 42.94 80.95 41.36 79.54 42.19 80.25 40.72 78.7 41.24 79.7 39.95 78.08 40.14 79.32 39.08 77.69 38.93 79.13 38.15 77.57 37.67 79.14 37.21 77.71 36.41 79.34 36.28 78.11 35.21 79.73 35.42 78.76 34.11 80.29 34.66 79.61 33.18 81 34.03 80.64 32.44 81.83 33.56 81.81 31.93 82.73 33.28 83.05 31.68 83.67 33.19 84.32 31.69 84.61 33.29 85.55 31.96 85.51 33.59 86.71 32.48 86.33 34.07 87.73 33.24 87.02 34.71 88.57 34.19 87.57 35.48 89.2 35.29 87.95 36.35 89.58 36.5 88.14 37.28 89.7 37.76 88.14 38.22 89.56 39.02 87.93 39.15 89.16 40.22"/>
    <polygon class="cls-13" points="12.35 108.31 10.73 108.09 11.71 109.4 10.17 108.85 10.85 110.34 9.46 109.48 9.82 111.07 8.64 109.95 8.66 111.58 7.74 110.23 7.42 111.83 6.79 110.33 6.15 111.83 5.85 110.22 4.91 111.55 4.95 109.92 3.76 111.03 4.14 109.44 2.73 110.27 3.44 108.8 1.89 109.33 2.89 108.03 1.27 108.22 2.51 107.16 .88 107.01 2.32 106.24 .76 105.75 2.33 105.29 .9 104.49 2.53 104.37 1.3 103.29 2.92 103.5 1.95 102.2 3.49 102.74 2.8 101.26 4.19 102.11 3.83 100.52 5.02 101.65 5 100.01 5.92 101.36 6.24 99.76 6.86 101.27 7.51 99.77 7.8 101.38 8.75 100.04 8.7 101.68 9.9 100.57 9.52 102.15 10.92 101.32 10.22 102.79 11.76 102.27 10.77 103.56 12.39 103.37 11.14 104.43 12.77 104.58 11.33 105.36 12.89 105.84 11.33 106.3 12.75 107.1 11.12 107.23 12.35 108.31"/>
    <polygon class="cls-3" points="35.32 11.43 34.16 11.28 34.86 12.22 33.75 11.82 34.25 12.89 33.24 12.28 33.5 13.42 32.65 12.61 32.67 13.79 32 12.82 31.77 13.97 31.33 12.88 30.86 13.96 30.65 12.81 29.97 13.77 30 12.59 29.14 13.39 29.42 12.25 28.41 12.85 28.91 11.79 27.8 12.16 28.52 11.23 27.35 11.37 28.24 10.61 27.07 10.5 28.11 9.94 26.99 9.59 28.11 9.26 27.09 8.69 28.26 8.6 27.38 7.82 28.54 7.98 27.84 7.04 28.95 7.43 28.45 6.36 29.46 6.98 29.2 5.83 30.05 6.64 30.03 5.47 30.7 6.44 30.93 5.28 31.37 6.37 31.84 5.29 32.05 6.45 32.73 5.49 32.7 6.66 33.56 5.86 33.28 7.01 34.29 6.41 33.79 7.47 34.9 7.09 34.18 8.02 35.35 7.88 34.46 8.64 35.62 8.75 34.59 9.31 35.71 9.66 34.59 9.99 35.61 10.57 34.44 10.66 35.32 11.43"/>
    <polygon class="cls-8" points="33.62 10.66 32.94 10.57 33.35 11.11 32.71 10.88 32.99 11.5 32.41 11.14 32.56 11.81 32.07 11.34 32.08 12.02 31.7 11.46 31.57 12.12 31.31 11.49 31.04 12.12 30.92 11.45 30.52 12 30.54 11.33 30.04 11.79 30.2 11.13 29.62 11.47 29.91 10.86 29.27 11.08 29.68 10.54 29.01 10.62 29.53 10.18 28.85 10.12 29.45 9.8 28.8 9.59 29.45 9.4 28.86 9.07 29.54 9.02 29.03 8.57 29.7 8.66 29.29 8.12 29.93 8.34 29.65 7.73 30.23 8.08 30.08 7.42 30.57 7.89 30.56 7.21 30.94 7.77 31.08 7.1 31.33 7.73 31.6 7.11 31.73 7.78 32.12 7.22 32.1 7.9 32.6 7.44 32.44 8.1 33.02 7.75 32.73 8.37 33.37 8.15 32.96 8.69 33.63 8.61 33.11 9.05 33.79 9.11 33.19 9.43 33.84 9.63 33.19 9.82 33.78 10.16 33.11 10.21 33.62 10.66"/>
    <polygon class="cls-7" points="33.08 10.28 32.56 10.22 32.87 10.64 32.38 10.46 32.6 10.94 32.15 10.66 32.26 11.18 31.88 10.81 31.89 11.34 31.59 10.91 31.49 11.42 31.28 10.94 31.08 11.42 30.98 10.9 30.68 11.33 30.69 10.81 30.3 11.16 30.43 10.65 29.97 10.92 30.2 10.44 29.7 10.61 30.02 10.2 29.5 10.26 29.9 9.92 29.38 9.87 29.84 9.62 29.34 9.46 29.84 9.31 29.38 9.05 29.91 9.01 29.51 8.66 30.04 8.73 29.72 8.31 30.22 8.49 30 8.01 30.45 8.28 30.33 7.77 30.71 8.13 30.7 7.61 31 8.04 31.11 7.52 31.31 8.01 31.52 7.53 31.61 8.05 31.92 7.62 31.9 8.14 32.29 7.79 32.16 8.3 32.62 8.03 32.39 8.5 32.89 8.33 32.57 8.75 33.09 8.69 32.69 9.03 33.22 9.08 32.75 9.33 33.26 9.49 32.75 9.64 33.21 9.9 32.68 9.94 33.08 10.28"/>
    <polygon class="cls-13" points="9.29 34.96 7.67 34.74 8.64 36.05 7.11 35.51 7.79 36.99 6.4 36.13 6.76 37.73 5.57 36.6 5.59 38.23 4.67 36.89 4.35 38.49 3.73 36.98 3.08 38.48 2.79 36.87 1.85 38.21 1.89 36.57 .69 37.68 1.07 36.09 -.33 36.93 .38 35.45 -1.17 35.98 -.17 34.68 -1.8 34.88 -.55 33.82 -2.18 33.67 -.74 32.89 -2.3 32.4 -.74 31.94 -2.16 31.14 -.53 31.02 -1.76 29.94 -.14 30.16 -1.12 28.85 .42 29.4 -.26 27.91 1.13 28.77 .77 27.17 1.95 28.3 1.93 26.67 2.86 28.01 3.17 26.41 3.8 27.92 4.44 26.42 4.74 28.03 5.68 26.7 5.64 28.33 6.84 27.22 6.45 28.81 7.86 27.97 7.15 29.45 8.7 28.92 7.7 30.22 9.32 30.03 8.08 31.08 9.71 31.23 8.27 32.01 9.83 32.5 8.26 32.96 9.69 33.76 8.06 33.88 9.29 34.96"/>
    <polygon class="cls-3" points="7.77 34.26 6.6 34.1 7.3 35.04 6.2 34.65 6.69 35.72 5.69 35.1 5.95 36.25 5.09 35.44 5.11 36.61 4.45 35.64 4.22 36.79 3.77 35.71 3.3 36.79 3.09 35.63 2.41 36.59 2.45 35.42 1.58 36.21 1.86 35.07 .85 35.67 1.36 34.61 .24 34.99 .96 34.06 -.21 34.2 .69 33.43 -.48 33.33 .55 32.77 -.57 32.42 .56 32.09 -.47 31.51 .7 31.42 -.18 30.65 .98 30.8 .28 29.86 1.39 30.25 .9 29.19 1.9 29.8 1.64 28.66 2.49 29.47 2.48 28.29 3.14 29.26 3.37 28.11 3.82 29.19 4.28 28.11 4.49 29.27 5.17 28.31 5.14 29.49 6 28.69 5.73 29.83 6.74 29.23 6.23 30.29 7.34 29.91 6.63 30.84 7.79 30.71 6.9 31.47 8.07 31.58 7.03 32.13 8.16 32.48 7.03 32.82 8.05 33.39 6.88 33.48 7.77 34.26"/>
    <polygon class="cls-8" points="6.06 33.48 5.39 33.39 5.79 33.93 5.15 33.71 5.44 34.32 4.86 33.97 5.01 34.63 4.52 34.16 4.52 34.84 4.14 34.28 4.01 34.95 3.75 34.32 3.48 34.94 3.36 34.27 2.97 34.83 2.99 34.15 2.49 34.61 2.65 33.95 2.06 34.3 2.36 33.69 1.71 33.9 2.13 33.37 1.45 33.45 1.97 33.01 1.29 32.94 1.89 32.62 1.24 32.42 1.89 32.23 1.3 31.89 1.98 31.84 1.47 31.39 2.14 31.48 1.74 30.94 2.37 31.17 2.09 30.55 2.67 30.91 2.52 30.25 3.01 30.71 3 30.03 3.39 30.59 3.52 29.93 3.78 30.56 4.05 29.93 4.17 30.6 4.56 30.05 4.54 30.72 5.04 30.26 4.88 30.92 5.46 30.58 5.17 31.19 5.81 30.97 5.4 31.51 6.07 31.43 5.56 31.87 6.23 31.93 5.64 32.25 6.28 32.46 5.63 32.65 6.22 32.98 5.55 33.03 6.06 33.48"/>
    <polygon class="cls-7" points="5.52 33.11 5 33.04 5.32 33.46 4.82 33.29 5.04 33.76 4.59 33.49 4.71 34 4.32 33.64 4.33 34.17 4.03 33.73 3.93 34.25 3.73 33.76 3.52 34.25 3.42 33.73 3.12 34.16 3.13 33.63 2.75 33.99 2.87 33.47 2.42 33.74 2.64 33.27 2.14 33.44 2.47 33.02 1.94 33.08 2.34 32.74 1.82 32.69 2.28 32.44 1.78 32.28 2.29 32.13 1.83 31.88 2.35 31.84 1.95 31.49 2.48 31.56 2.16 31.13 2.66 31.31 2.44 30.83 2.89 31.11 2.77 30.59 3.15 30.96 3.15 30.43 3.45 30.87 3.55 30.35 3.75 30.84 3.96 30.35 4.05 30.87 4.36 30.44 4.34 30.97 4.73 30.61 4.61 31.12 5.06 30.85 4.83 31.33 5.33 31.16 5.01 31.58 5.53 31.51 5.13 31.86 5.66 31.91 5.19 32.16 5.7 32.31 5.19 32.46 5.65 32.72 5.13 32.76 5.52 33.11"/>
    <polygon class="cls-13" points="89.16 40.22 87.54 40.01 88.52 41.32 86.98 40.77 87.66 42.25 86.27 41.4 86.63 42.99 85.45 41.86 85.47 43.5 84.54 42.15 84.22 43.75 83.6 42.24 82.96 43.74 82.66 42.14 81.72 43.47 81.76 41.84 80.56 42.94 80.95 41.36 79.54 42.19 80.25 40.72 78.7 41.24 79.7 39.95 78.08 40.14 79.32 39.08 77.69 38.93 79.13 38.15 77.57 37.67 79.14 37.21 77.71 36.41 79.34 36.28 78.11 35.21 79.73 35.42 78.76 34.11 80.29 34.66 79.61 33.18 81 34.03 80.64 32.44 81.83 33.56 81.81 31.93 82.73 33.28 83.05 31.68 83.67 33.19 84.32 31.69 84.61 33.29 85.55 31.96 85.51 33.59 86.71 32.48 86.33 34.07 87.73 33.24 87.02 34.71 88.57 34.19 87.57 35.48 89.2 35.29 87.95 36.35 89.58 36.5 88.14 37.28 89.7 37.76 88.14 38.22 89.56 39.02 87.93 39.15 89.16 40.22"/>
    <polygon class="cls-3" points="87.64 39.52 86.47 39.36 87.18 40.31 86.07 39.91 86.56 40.98 85.56 40.36 85.82 41.51 84.97 40.7 84.98 41.87 84.32 40.91 84.09 42.06 83.64 40.97 83.18 42.05 82.96 40.9 82.29 41.85 82.32 40.68 81.46 41.48 81.73 40.34 80.72 40.94 81.23 39.88 80.12 40.25 80.83 39.32 79.67 39.46 80.56 38.7 79.39 38.59 80.42 38.03 79.3 37.68 80.43 37.35 79.4 36.78 80.58 36.68 79.69 35.91 80.86 36.06 80.15 35.12 81.26 35.52 80.77 34.45 81.77 35.07 81.51 33.92 82.36 34.73 82.35 33.55 83.01 34.52 83.24 33.37 83.69 34.46 84.15 33.38 84.37 34.53 85.05 33.57 85.01 34.75 85.88 33.95 85.6 35.09 86.61 34.49 86.1 35.55 87.22 35.18 86.5 36.11 87.67 35.97 86.77 36.73 87.94 36.84 86.91 37.4 88.03 37.75 86.9 38.08 87.93 38.65 86.76 38.74 87.64 39.52"/>
    <polygon class="cls-8" points="85.93 38.74 85.26 38.65 85.66 39.2 85.02 38.97 85.31 39.59 84.73 39.23 84.88 39.89 84.39 39.43 84.4 40.1 84.01 39.54 83.88 40.21 83.62 39.58 83.35 40.21 83.23 39.54 82.84 40.09 82.86 39.41 82.36 39.87 82.52 39.22 81.94 39.56 82.23 38.95 81.59 39.17 82 38.63 81.33 38.71 81.84 38.27 81.17 38.21 81.76 37.88 81.12 37.68 81.77 37.49 81.18 37.16 81.85 37.11 81.34 36.66 82.01 36.75 81.61 36.2 82.25 36.43 81.96 35.82 82.54 36.17 82.39 35.51 82.88 35.98 82.88 35.3 83.26 35.86 83.39 35.19 83.65 35.82 83.92 35.2 84.04 35.86 84.43 35.31 84.41 35.99 84.91 35.53 84.75 36.19 85.34 35.84 85.04 36.45 85.69 36.24 85.27 36.77 85.95 36.69 85.43 37.13 86.11 37.2 85.51 37.52 86.16 37.72 85.51 37.91 86.1 38.24 85.42 38.3 85.93 38.74"/>
    <polygon class="cls-7" points="85.4 38.37 84.87 38.3 85.19 38.73 84.69 38.55 84.91 39.03 84.46 38.75 84.58 39.27 84.2 38.9 84.2 39.43 83.91 39 83.8 39.51 83.6 39.02 83.39 39.51 83.3 38.99 82.99 39.42 83.01 38.89 82.62 39.25 82.74 38.74 82.29 39.01 82.52 38.53 82.02 38.7 82.34 38.28 81.82 38.35 82.22 38 81.69 37.96 82.16 37.7 81.65 37.55 82.16 37.4 81.7 37.14 82.22 37.1 81.83 36.75 82.35 36.82 82.04 36.4 82.53 36.58 82.31 36.1 82.76 36.37 82.64 35.86 83.03 36.22 83.02 35.69 83.32 36.13 83.42 35.61 83.62 36.1 83.83 35.62 83.93 36.13 84.23 35.7 84.22 36.23 84.6 35.87 84.48 36.39 84.93 36.12 84.71 36.59 85.21 36.42 84.88 36.84 85.41 36.78 85.01 37.12 85.53 37.17 85.07 37.42 85.57 37.58 85.07 37.73 85.53 37.98 85 38.02 85.4 38.37"/>
    <polygon class="cls-13" points="12.35 108.31 10.73 108.09 11.71 109.4 10.17 108.85 10.85 110.34 9.46 109.48 9.82 111.07 8.64 109.95 8.66 111.58 7.74 110.23 7.42 111.83 6.79 110.33 6.15 111.83 5.85 110.22 4.91 111.55 4.95 109.92 3.76 111.03 4.14 109.44 2.73 110.27 3.44 108.8 1.89 109.33 2.89 108.03 1.27 108.22 2.51 107.16 .88 107.01 2.32 106.24 .76 105.75 2.33 105.29 .9 104.49 2.53 104.37 1.3 103.29 2.92 103.5 1.95 102.2 3.49 102.74 2.8 101.26 4.19 102.11 3.83 100.52 5.02 101.65 5 100.01 5.92 101.36 6.24 99.76 6.86 101.27 7.51 99.77 7.8 101.38 8.75 100.04 8.7 101.68 9.9 100.57 9.52 102.15 10.92 101.32 10.22 102.79 11.76 102.27 10.77 103.56 12.39 103.37 11.14 104.43 12.77 104.58 11.33 105.36 12.89 105.84 11.33 106.3 12.75 107.1 11.12 107.23 12.35 108.31"/>
  </g>
</svg>