<?xml version="1.0" encoding="UTF-8"?>
<svg xmlns="http://www.w3.org/2000/svg" viewBox="0 0 100 100">
  <defs>
    <style>
      .cls-1 {
        fill: #527f45;
      }

      .cls-2 {
        fill: #0a1139;
      }

      .cls-3 {
        fill: #717277;
      }

      .cls-4 {
        fill: #7f7b4c;
      }

      .cls-5 {
        fill: #457f45;
      }

      .cls-6 {
        fill: #3c5830;
      }

      .cls-7 {
        fill: #0f1c39;
      }

      .cls-8 {
        fill: #655f20;
      }

      .cls-9 {
        fill: #686d7f;
      }

      .cls-10 {
        fill: #777f1f;
      }

      .cls-11 {
        fill: #fff;
      }

      .cls-12 {
        fill: #7f7a1f;
      }

      .cls-13 {
        fill: #6d707c;
      }
    </style>
  </defs>
  <g id="Layer_6" data-name="Layer 6">
    <rect class="cls-2" x="-89.75" y="-10.19" width="194.78" height="194.78" rx="6.28" ry="6.28"/>
    <path class="cls-5" d="M105.1,153.01H4.06s11.89-29.7,47.13-29.7c0,0-.03-37.4,53.91-24.2v53.9Z"/>
    <path class="cls-5" d="M-89.55,103.51H19.68s.06-38.5-34.24-29.7c0,0-14.04-31.9-41.22-11,0,0-9.84-34.1-33.9-23.1"/>
    <circle class="cls-10" cx="55.93" cy="46.32" r="34.1"/>
    <ellipse class="cls-2" cx="75.38" cy="46.59" rx="27.56" ry="30.39"/>
  </g>
  <g id="Layer_12" data-name="Layer 12">
    <rect class="cls-7" x="-90.52" y="-10.01" width="194.78" height="194.78" rx="6.28" ry="6.28"/>
    <circle class="cls-4" cx="55.25" cy="46.49" r="34.1"/>
    <ellipse class="cls-12" cx="59.49" cy="47.16" rx="33.48" ry="34.1" transform="translate(-7.15 83.52) rotate(-67.02)"/>
    <ellipse class="cls-8" cx="64.01" cy="46.88" rx="31.93" ry="23.69" transform="translate(12.96 107.61) rotate(-86.17)"/>
    <path class="cls-6" d="M102.18,155.57H-4.76s12.58-30.62,49.88-30.62c0,0-.03-38.56,57.06-24.95v55.57Z"/>
    <path class="cls-6" d="M-82.3,106.62H26.93s.06-38.5-34.24-29.7c0,0-14.04-31.9-41.22-11,0,0-9.84-34.1-33.9-23.1"/>
    <ellipse class="cls-7" cx="74.62" cy="46.77" rx="27.56" ry="30.39"/>
    <circle class="cls-8" cx="37.7" cy="23.33" r="2.23"/>
    <circle class="cls-8" cx="34.11" cy="43.47" r="2.23"/>
    <circle class="cls-8" cx="26.93" cy="33.56" r=".84"/>
    <circle class="cls-8" cx="44.35" cy="76.26" r=".84"/>
    <circle class="cls-8" cx="31.84" cy="56.65" r=".84"/>
    <circle class="cls-8" cx="40.53" cy="30.41" r=".84"/>
    <circle class="cls-8" cx="49.21" cy="16.38" r=".84"/>
    <circle class="cls-8" cx="24.31" cy="47.55" r=".84"/>
    <circle class="cls-8" cx="37.26" cy="66.65" r="2.23"/>
    <path class="cls-1" d="M-90.31,106.62H18.92s.06-38.5-34.24-29.7c0,0-14.04-31.9-41.22-11,0,0-9.84-34.1-33.9-23.1"/>
    <path class="cls-1" d="M104.34,155.57H3.3s11.89-30.62,47.13-30.62c0,0-.03-38.56,53.91-24.95v55.57Z"/>
    <polygon class="cls-9" points="19.8 6.21 17.62 5.92 18.93 7.68 16.86 6.95 17.78 8.94 15.91 7.79 16.39 9.94 14.8 8.42 14.83 10.62 13.59 8.81 13.16 10.96 12.32 8.93 11.45 10.95 11.05 8.79 9.78 10.58 9.84 8.38 8.23 9.88 8.75 7.74 6.86 8.86 7.8 6.88 5.72 7.58 7.06 5.84 4.88 6.1 6.55 4.67 4.37 4.47 6.3 3.43 4.2 2.77 6.31 2.15 4.39 1.08 6.58 .91 4.93 -.54 7.11 -.25 5.8 -2.01 7.87 -1.28 6.95 -3.27 8.82 -2.12 8.34 -4.27 9.93 -2.75 9.9 -4.95 11.14 -3.14 11.57 -5.29 12.41 -3.26 13.28 -5.28 13.68 -3.12 14.95 -4.91 14.89 -2.71 16.5 -4.21 15.98 -2.07 17.87 -3.19 16.92 -1.21 19.01 -1.91 17.67 -.17 19.85 -.43 18.18 1 20.36 1.2 18.43 2.24 20.53 2.9 18.42 3.52 20.34 4.59 18.15 4.76 19.8 6.21"/>
    <polygon class="cls-9" points="90.22 44.02 88.04 43.73 89.35 45.49 87.28 44.76 88.2 46.75 86.33 45.6 86.81 47.74 85.22 46.23 85.25 48.43 84.01 46.61 83.58 48.77 82.74 46.74 81.87 48.76 81.47 46.59 80.2 48.39 80.26 46.19 78.65 47.68 79.17 45.55 77.28 46.67 78.23 44.69 76.14 45.39 77.48 43.65 75.3 43.91 76.97 42.48 74.79 42.28 76.72 41.23 74.62 40.58 76.73 39.96 74.81 38.89 77 38.72 75.35 37.27 77.53 37.56 76.22 35.79 78.29 36.53 77.37 34.53 79.24 35.69 78.76 33.54 80.35 35.06 80.32 32.86 81.56 34.67 81.99 32.52 82.83 34.55 83.7 32.53 84.1 34.69 85.37 32.9 85.31 35.09 86.92 33.6 86.4 35.74 88.29 34.62 87.34 36.6 89.43 35.89 88.09 37.64 90.27 37.38 88.6 38.8 90.78 39.01 88.85 40.05 90.95 40.7 88.84 41.33 90.76 42.4 88.57 42.57 90.22 44.02"/>
    <polygon class="cls-13" points="17.75 5.26 16.18 5.06 17.13 6.32 15.64 5.79 16.3 7.23 14.95 6.4 15.3 7.94 14.16 6.85 14.18 8.43 13.28 7.13 12.97 8.68 12.37 7.22 11.75 8.67 11.46 7.12 10.55 8.41 10.59 6.83 9.43 7.9 9.8 6.36 8.44 7.17 9.12 5.74 7.63 6.25 8.59 5 7.02 5.18 8.22 4.16 6.65 4.01 8.04 3.26 6.53 2.79 8.05 2.34 6.67 1.57 8.24 1.45 7.06 .41 8.62 .61 7.68 -.65 9.17 -.12 8.51 -1.56 9.85 -.73 9.51 -2.27 10.65 -1.18 10.63 -2.76 11.52 -1.46 11.83 -3.01 12.44 -1.55 13.06 -3 13.35 -1.45 14.26 -2.74 14.22 -1.16 15.38 -2.23 15.01 -.69 16.37 -1.5 15.68 -.07 17.18 -.58 16.22 .67 17.79 .49 16.58 1.51 18.16 1.66 16.77 2.41 18.28 2.88 16.76 3.33 18.14 4.1 16.56 4.22 17.75 5.26"/>
    <polygon class="cls-3" points="15.45 4.22 14.55 4.1 15.09 4.83 14.23 4.53 14.62 5.36 13.84 4.88 14.04 5.77 13.38 5.14 13.39 6.05 12.87 5.3 12.69 6.19 12.35 5.35 11.98 6.19 11.82 5.29 11.29 6.04 11.32 5.12 10.65 5.74 10.86 4.85 10.08 5.32 10.47 4.5 9.61 4.79 10.16 4.07 9.26 4.17 9.95 3.58 9.04 3.5 9.84 3.06 8.97 2.79 9.85 2.53 9.05 2.09 9.96 2.02 9.28 1.41 10.18 1.53 9.64 .8 10.5 1.11 10.11 .28 10.89 .76 10.69 -.13 11.35 .5 11.34 -.42 11.86 .34 12.04 -.56 12.38 .28 12.74 -.55 12.91 .34 13.44 -.4 13.41 .51 14.08 -.11 13.87 .78 14.65 .31 14.26 1.14 15.12 .84 14.57 1.57 15.47 1.46 14.78 2.05 15.69 2.14 14.89 2.57 15.76 2.84 14.88 3.1 15.68 3.55 14.77 3.62 15.45 4.22"/>
    <polygon class="cls-11" points="14.73 3.72 14.03 3.63 14.45 4.2 13.78 3.96 14.08 4.6 13.48 4.23 13.63 4.92 13.12 4.43 13.13 5.14 12.73 4.56 12.59 5.25 12.32 4.6 12.04 5.25 11.91 4.55 11.5 5.13 11.52 4.42 11 4.9 11.16 4.21 10.55 4.58 10.86 3.94 10.19 4.16 10.62 3.6 9.91 3.68 10.45 3.22 9.75 3.16 10.37 2.82 9.69 2.61 10.38 2.41 9.76 2.06 10.46 2.01 9.93 1.54 10.63 1.63 10.21 1.06 10.88 1.3 10.58 .66 11.19 1.03 11.03 .34 11.54 .83 11.54 .12 11.94 .7 12.08 0 12.35 .66 12.63 0 12.76 .71 13.17 .13 13.15 .84 13.67 .36 13.5 1.05 14.11 .68 13.8 1.32 14.48 1.1 14.04 1.66 14.75 1.58 14.21 2.04 14.92 2.1 14.29 2.44 14.97 2.65 14.29 2.85 14.91 3.2 14.2 3.25 14.73 3.72"/>
    <polygon class="cls-9" points="90.22 44.02 88.04 43.73 89.35 45.49 87.28 44.76 88.2 46.75 86.33 45.6 86.81 47.74 85.22 46.23 85.25 48.43 84.01 46.61 83.58 48.77 82.74 46.74 81.87 48.76 81.47 46.59 80.2 48.39 80.26 46.19 78.65 47.68 79.17 45.55 77.28 46.67 78.23 44.69 76.14 45.39 77.48 43.65 75.3 43.91 76.97 42.48 74.79 42.28 76.72 41.23 74.62 40.58 76.73 39.96 74.81 38.89 77 38.72 75.35 37.27 77.53 37.56 76.22 35.79 78.29 36.53 77.37 34.53 79.24 35.69 78.76 33.54 80.35 35.06 80.32 32.86 81.56 34.67 81.99 32.52 82.83 34.55 83.7 32.53 84.1 34.69 85.37 32.9 85.31 35.09 86.92 33.6 86.4 35.74 88.29 34.62 87.34 36.6 89.43 35.89 88.09 37.64 90.27 37.38 88.6 38.8 90.78 39.01 88.85 40.05 90.95 40.7 88.84 41.33 90.76 42.4 88.57 42.57 90.22 44.02"/>
    <polygon class="cls-13" points="88.17 43.07 86.6 42.86 87.55 44.13 86.06 43.6 86.72 45.04 85.37 44.21 85.72 45.75 84.58 44.66 84.6 46.24 83.7 44.94 83.39 46.49 82.79 45.03 82.17 46.48 81.88 44.92 80.97 46.22 81.01 44.63 79.85 45.71 80.22 44.17 78.86 44.98 79.54 43.55 78.05 44.06 79.01 42.81 77.44 42.99 78.64 41.97 77.07 41.82 78.46 41.07 76.95 40.6 78.47 40.15 77.09 39.38 78.66 39.26 77.48 38.21 79.04 38.42 78.1 37.15 79.59 37.68 78.93 36.25 80.27 37.08 79.93 35.53 81.07 36.62 81.05 35.04 81.95 36.35 82.25 34.8 82.86 36.26 83.48 34.81 83.77 36.36 84.68 35.07 84.64 36.65 85.8 35.58 85.43 37.12 86.79 36.31 86.1 37.73 87.6 37.23 86.64 38.48 88.21 38.29 87 39.32 88.58 39.47 87.19 40.22 88.7 40.69 87.18 41.13 88.56 41.91 86.98 42.03 88.17 43.07"/>
    <polygon class="cls-3" points="85.87 42.03 84.97 41.91 85.51 42.64 84.65 42.33 85.04 43.16 84.26 42.69 84.46 43.58 83.8 42.95 83.81 43.86 83.29 43.11 83.11 44 82.77 43.16 82.4 44 82.24 43.1 81.71 43.84 81.74 42.93 81.07 43.55 81.28 42.66 80.5 43.13 80.89 42.31 80.03 42.6 80.58 41.87 79.68 41.98 80.37 41.39 79.46 41.31 80.26 40.87 79.39 40.6 80.27 40.34 79.47 39.89 80.38 39.82 79.7 39.22 80.6 39.34 80.06 38.61 80.92 38.92 80.53 38.09 81.31 38.57 81.11 37.67 81.77 38.3 81.76 37.39 82.28 38.14 82.46 37.25 82.8 38.09 83.17 37.25 83.33 38.15 83.86 37.41 83.83 38.32 84.5 37.7 84.29 38.59 85.07 38.12 84.68 38.94 85.54 38.65 84.99 39.38 85.89 39.27 85.2 39.86 86.11 39.94 85.31 40.38 86.18 40.65 85.3 40.91 86.1 41.36 85.19 41.43 85.87 42.03"/>
    <polygon class="cls-11" points="85.15 41.53 84.45 41.44 84.87 42 84.2 41.77 84.5 42.41 83.9 42.04 84.05 42.73 83.54 42.24 83.55 42.95 83.15 42.37 83.01 43.06 82.74 42.41 82.46 43.06 82.33 42.36 81.92 42.94 81.94 42.23 81.42 42.71 81.58 42.02 80.97 42.38 81.28 41.74 80.61 41.97 81.04 41.41 80.33 41.49 80.88 41.03 80.17 40.97 80.79 40.63 80.11 40.42 80.8 40.22 80.18 39.87 80.88 39.82 80.35 39.35 81.05 39.44 80.63 38.87 81.3 39.11 81 38.46 81.61 38.84 81.45 38.14 81.96 38.63 81.96 37.92 82.36 38.51 82.5 37.81 82.77 38.47 83.05 37.82 83.18 38.52 83.59 37.94 83.57 38.65 84.09 38.16 83.92 38.85 84.53 38.49 84.22 39.13 84.9 38.9 84.46 39.47 85.17 39.38 84.63 39.84 85.34 39.91 84.71 40.25 85.39 40.46 84.71 40.66 85.33 41.01 84.62 41.06 85.15 41.53"/>
  </g>
</svg>