<?xml version="1.0" encoding="UTF-8"?>
<svg id="icon_3" data-name="icon 3" xmlns="http://www.w3.org/2000/svg" viewBox="0 0 100 100">
  <defs>
    <style>
      .cls-1 {
        fill: #8e8e8e;
      }

      .cls-2 {
        fill: #a5a5a5;
      }

      .cls-3 {
        fill: #ccc8c6;
      }

      .cls-4 {
        fill: #262626;
      }

      .cls-5 {
        fill: #3e1284;
      }

      .cls-6 {
        fill: #191919;
      }

      .cls-7 {
        fill: #b2b2b2;
      }
    </style>
  </defs>
  <rect class="cls-5" x=".02" y="-.1" width="100" height="100" rx="6.28" ry="6.28"/>
  <rect class="cls-4" y="72.01" width="100" height="17.64"/>
  <rect class="cls-4" x=".04" y="72.01" width="99.96" height="27.89" rx="6.33" ry="6.33"/>
  <rect class="cls-6" x="15.55" y="75.38" width="73.41" height="17.41" rx="8.7" ry="8.7"/>
  <rect class="cls-7" x="16.14" y="7.79" width="58.97" height="80.87" rx="13.69" ry="13.69"/>
  <path class="cls-7" d="M72.56,31.21c-1.66,0-3.28.18-4.85.5v6.37c.53-.06,1.07-.09,1.62-.09,8.37,0,15.15,6.75,15.15,15.07s-6.78,15.07-15.15,15.07c-.55,0-1.09-.03-1.62-.09v6.82c1.56.32,3.18.5,4.85.5,12.73,0,23.06-9.88,23.06-22.08s-10.32-22.08-23.06-22.08Z"/>
  <path class="cls-1" d="M63.18,24.74H28.08c-3.47,0-6.28-2.81-6.28-6.28h0c0-.69.11-1.35.31-1.96.82-2.51,3.18-4.32,5.97-4.32h35.11c3.47,0,6.28,2.81,6.28,6.28h0c0,3.47-2.81,6.28-6.28,6.28Z"/>
  <path class="cls-2" d="M75.12,31.35v7.78c3.87,2.26,6.59,7.64,6.59,13.93s-2.72,11.67-6.59,13.93v7.97c0,.09,0,.18,0,.27,8.12-1.21,14.44-10.57,14.44-21.94s-6.31-20.72-14.43-21.94Z"/>
  <path class="cls-3" d="M26.78,8.14s-9.69,1.89-10.63,13.34v53.48s-.1,12.19,13.69,13.69c0,0-10.87-8.17-9.17-15.19l-.56-56.8s3.62-8.18,6.68-8.53Z"/>
  <path class="cls-2" d="M64.91,8.14s9.69,1.89,10.63,13.34v53.48s.1,12.19-13.69,13.69c0,0,10.87-8.17,9.17-15.19l.56-56.8s-3.62-8.18-6.68-8.53Z"/>
</svg>