<?xml version="1.0" encoding="UTF-8"?>
<svg id="icon_3" data-name="icon 3" xmlns="http://www.w3.org/2000/svg" viewBox="0 0 100 100">
  <defs>
    <style>
      .cls-1 {
        fill: #8c6eb9;
      }

      .cls-2 {
        fill: #424242;
      }

      .cls-3 {
        fill: #c0fff9;
      }
    </style>
  </defs>
  <rect class="cls-1" x="-.04" width="100" height="100" rx="6.28" ry="6.28"/>
  <ellipse class="cls-2" cx="12.91" cy="33.03" rx="3.84" ry="4.67"/>
  <ellipse class="cls-2" cx="29.25" cy="33.03" rx="2.98" ry="4.22"/>
  <ellipse class="cls-2" cx="13.85" cy="55.89" rx="4.15" ry="5.06"/>
  <ellipse class="cls-2" cx="28.69" cy="56.95" rx="2.76" ry="4.38"/>
  <path class="cls-2" d="M23.82,20.19s4.21-3.87,7.03-.06c0,0-.57,4.87-6.72,1.57"/>
  <path class="cls-2" d="M17.1,19.67s-4.21-3.87-7.03-.06c0,0,.57,4.87,6.72,1.57"/>
  <ellipse class="cls-3" cx="25.27" cy="33.44" rx="5.16" ry="6.28"/>
  <ellipse class="cls-3" cx="25.5" cy="41.7" rx="5.16" ry="6.28"/>
  <ellipse class="cls-3" cx="25.27" cy="48.76" rx="5.16" ry="6.28"/>
  <ellipse class="cls-3" cx="23.78" cy="56.95" rx="5.16" ry="6.28"/>
  <ellipse class="cls-3" cx="17.04" cy="56.95" rx="5.16" ry="6.28"/>
  <ellipse class="cls-3" cx="16.12" cy="48.76" rx="5.16" ry="6.28"/>
  <ellipse class="cls-3" cx="16.12" cy="41.7" rx="5.16" ry="6.28"/>
  <ellipse class="cls-3" cx="16.12" cy="33.44" rx="5.16" ry="6.28"/>
  <ellipse class="cls-3" cx="20.35" cy="30.97" rx="5.16" ry="6.28"/>
  <ellipse class="cls-3" cx="20.35" cy="58.36" rx="5.16" ry="6.28"/>
  <ellipse class="cls-3" cx="19.48" cy="39.72" rx="5.16" ry="6.28"/>
  <ellipse class="cls-3" cx="19.48" cy="47.06" rx="5.16" ry="6.28"/>
  <path class="cls-3" d="M24.31,69.23c.41,1.56-.3,3.23-1.57,3.73s-2.65-.36-3.06-1.92.3-3.23,1.57-3.73,2.65.36,3.06,1.92Z"/>
  <path class="cls-3" d="M26.94,67.29c.41,1.56-.3,3.23-1.57,3.73s-2.65-.36-3.06-1.92.3-3.23,1.57-3.73,2.65.36,3.06,1.92Z"/>
  <path class="cls-3" d="M27.56,69.63c.41,1.56-.3,3.23-1.57,3.73s-2.65-.36-3.06-1.92.3-3.23,1.57-3.73,2.65.36,3.06,1.92Z"/>
  <ellipse class="cls-3" cx="20.01" cy="65.92" rx="2.43" ry="2.96"/>
  <ellipse class="cls-3" cx="23.07" cy="65.49" rx="2.43" ry="2.96"/>
  <ellipse class="cls-3" cx="22.83" cy="67.93" rx="2.43" ry="2.96"/>
  <path class="cls-3" d="M25.32,65.78c.41,1.56-.3,3.23-1.57,3.73s-2.65-.36-3.06-1.92.3-3.23,1.57-3.73,2.65.36,3.06,1.92Z"/>
  <path class="cls-3" d="M27.96,63.84c.41,1.56-.3,3.23-1.57,3.73s-2.65-.36-3.06-1.92.3-3.23,1.57-3.73,2.65.36,3.06,1.92Z"/>
  <path class="cls-3" d="M28.57,66.19c.41,1.56-.3,3.23-1.57,3.73s-2.65-.36-3.06-1.92.3-3.23,1.57-3.73,2.65.36,3.06,1.92Z"/>
  <ellipse class="cls-3" cx="15.34" cy="22.41" rx="2.43" ry="2.96"/>
  <ellipse class="cls-3" cx="18.36" cy="21.69" rx="2.43" ry="2.96"/>
  <ellipse class="cls-3" cx="18.28" cy="24.15" rx="2.43" ry="2.96"/>
  <ellipse class="cls-3" cx="16.28" cy="18.56" rx="2.43" ry="2.96"/>
  <ellipse class="cls-3" cx="19.27" cy="17.69" rx="2.43" ry="2.96"/>
  <ellipse class="cls-3" cx="19.27" cy="20.15" rx="2.43" ry="2.96"/>
  <path class="cls-3" d="M22.75,18.82c-.23-1.61.65-3.15,1.97-3.44s2.59.79,2.82,2.4-.65,3.15-1.97,3.44-2.59-.79-2.82-2.4Z"/>
  <path class="cls-3" d="M19.57,17.89c-.23-1.61.65-3.15,1.97-3.44s2.59.79,2.82,2.4-.65,3.15-1.97,3.44-2.59-.79-2.82-2.4Z"/>
  <path class="cls-3" d="M22.53,22.94c-.29-1.6.54-3.18,1.85-3.53s2.61.66,2.9,2.26-.54,3.18-1.85,3.53-2.61-.66-2.9-2.26Z"/>
  <path class="cls-3" d="M19.76,24.57c-.29-1.6.54-3.18,1.85-3.53s2.61.66,2.9,2.26-.54,3.18-1.85,3.53-2.61-.66-2.9-2.26Z"/>
  <path class="cls-3" d="M19.33,22.17c-.29-1.6.54-3.18,1.85-3.53s2.61.66,2.9,2.26-.54,3.18-1.85,3.53-2.61-.66-2.9-2.26Z"/>
  <ellipse class="cls-2" cx="56.15" cy="64.89" rx="3.84" ry="4.67" transform="translate(-1.79 1.59) rotate(-1.6)"/>
  <ellipse class="cls-2" cx="39.81" cy="65.35" rx="2.98" ry="4.22" transform="translate(-1.81 1.14) rotate(-1.6)"/>
  <ellipse class="cls-2" cx="54.57" cy="42.07" rx="4.15" ry="5.06" transform="translate(-1.15 1.54) rotate(-1.6)"/>
  <ellipse class="cls-2" cx="39.7" cy="41.42" rx="2.76" ry="4.38" transform="translate(-1.14 1.13) rotate(-1.6)"/>
  <path class="cls-2" d="M45.59,78.02s-4.1,3.98-7.03.26c0,0,.44-4.88,6.67-1.76"/>
  <path class="cls-2" d="M52.33,78.36s4.32,3.75,7.03-.13c0,0-.71-4.85-6.76-1.39"/>
  <ellipse class="cls-3" cx="43.78" cy="64.83" rx="5.16" ry="6.28" transform="translate(-1.79 1.25) rotate(-1.6)"/>
  <ellipse class="cls-3" cx="43.32" cy="56.58" rx="5.16" ry="6.28" transform="translate(-1.56 1.23) rotate(-1.6)"/>
  <ellipse class="cls-3" cx="43.35" cy="49.51" rx="5.16" ry="6.28" transform="translate(-1.37 1.23) rotate(-1.6)"/>
  <ellipse class="cls-3" cx="44.61" cy="41.28" rx="5.16" ry="6.28" transform="translate(-1.14 1.26) rotate(-1.6)"/>
  <ellipse class="cls-3" cx="51.34" cy="41.1" rx="5.16" ry="6.28" transform="translate(-1.13 1.45) rotate(-1.6)"/>
  <ellipse class="cls-3" cx="52.5" cy="49.26" rx="5.16" ry="6.28" transform="translate(-1.36 1.49) rotate(-1.6)"/>
  <ellipse class="cls-3" cx="52.7" cy="56.31" rx="5.16" ry="6.28" transform="translate(-1.55 1.49) rotate(-1.6)"/>
  <ellipse class="cls-3" cx="52.93" cy="64.57" rx="5.16" ry="6.28" transform="translate(-1.78 1.5) rotate(-1.6)"/>
  <ellipse class="cls-3" cx="48.77" cy="67.16" rx="5.16" ry="6.28" transform="translate(-1.86 1.39) rotate(-1.6)"/>
  <ellipse class="cls-3" cx="48" cy="39.78" rx="5.16" ry="6.28" transform="translate(-1.09 1.36) rotate(-1.6)"/>
  <ellipse class="cls-3" cx="49.39" cy="58.38" rx="5.16" ry="6.28" transform="translate(-1.61 1.4) rotate(-1.6)"/>
  <ellipse class="cls-3" cx="49.19" cy="51.05" rx="5.16" ry="6.28" transform="translate(-1.41 1.39) rotate(-1.6)"/>
  <path class="cls-3" d="M43.74,29.02c-.45-1.55.2-3.23,1.47-3.77s2.66.29,3.11,1.83-.2,3.23-1.47,3.77-2.66-.29-3.11-1.83Z"/>
  <path class="cls-3" d="M41.16,31.04c-.45-1.55.2-3.23,1.47-3.77s2.66.29,3.11,1.83-.2,3.23-1.47,3.77-2.66-.29-3.11-1.83Z"/>
  <path class="cls-3" d="M40.48,28.71c-.45-1.55.2-3.23,1.47-3.77s2.66.29,3.11,1.83-.2,3.23-1.47,3.77-2.66-.29-3.11-1.83Z"/>
  <ellipse class="cls-3" cx="48.13" cy="32.21" rx="2.43" ry="2.96" transform="translate(-.88 1.36) rotate(-1.6)"/>
  <ellipse class="cls-3" cx="45.08" cy="32.73" rx="2.43" ry="2.96" transform="translate(-.9 1.27) rotate(-1.6)"/>
  <ellipse class="cls-3" cx="45.26" cy="30.28" rx="2.43" ry="2.96" transform="translate(-.83 1.28) rotate(-1.6)"/>
  <path class="cls-3" d="M42.82,32.5c-.45-1.55.2-3.23,1.47-3.77s2.66.29,3.11,1.83-.2,3.23-1.47,3.77-2.66-.29-3.11-1.83Z"/>
  <path class="cls-3" d="M40.24,34.51c-.45-1.55.2-3.23,1.47-3.77s2.66.29,3.11,1.83-.2,3.23-1.47,3.77-2.66-.29-3.11-1.83Z"/>
  <path class="cls-3" d="M39.56,32.18c-.45-1.55.2-3.23,1.47-3.77s2.66.29,3.11,1.83-.2,3.23-1.47,3.77-2.66-.29-3.11-1.83Z"/>
  <ellipse class="cls-3" cx="54.01" cy="75.57" rx="2.43" ry="2.96" transform="translate(-2.09 1.54) rotate(-1.6)"/>
  <ellipse class="cls-3" cx="51.01" cy="76.38" rx="2.43" ry="2.96" transform="translate(-2.11 1.46) rotate(-1.6)"/>
  <ellipse class="cls-3" cx="51.03" cy="73.92" rx="2.43" ry="2.96" transform="translate(-2.05 1.45) rotate(-1.6)"/>
  <ellipse class="cls-3" cx="53.18" cy="79.45" rx="2.43" ry="2.96" transform="translate(-2.2 1.52) rotate(-1.6)"/>
  <ellipse class="cls-3" cx="50.22" cy="80.4" rx="2.43" ry="2.96" transform="translate(-2.23 1.43) rotate(-1.6)"/>
  <ellipse class="cls-3" cx="50.15" cy="77.94" rx="2.43" ry="2.96" transform="translate(-2.16 1.43) rotate(-1.6)"/>
  <path class="cls-3" d="M46.71,79.37c.28,1.6-.56,3.17-1.87,3.49s-2.61-.72-2.89-2.32.56-3.17,1.87-3.49,2.61.72,2.89,2.32Z"/>
  <path class="cls-3" d="M49.91,80.21c.28,1.6-.56,3.17-1.87,3.49s-2.61-.72-2.89-2.32.56-3.17,1.87-3.49,2.61.72,2.89,2.32Z"/>
  <path class="cls-3" d="M46.81,75.24c.33,1.59-.45,3.19-1.75,3.58s-2.63-.59-2.96-2.18.45-3.19,1.75-3.58,2.63.59,2.96,2.18Z"/>
  <path class="cls-3" d="M49.53,73.53c.33,1.59-.45,3.19-1.75,3.58s-2.63-.59-2.96-2.18.45-3.19,1.75-3.58,2.63.59,2.96,2.18Z"/>
  <path class="cls-3" d="M50.03,75.93c.33,1.59-.45,3.19-1.75,3.58s-2.63-.59-2.96-2.18.45-3.19,1.75-3.58,2.63.59,2.96,2.18Z"/>
  <ellipse class="cls-2" cx="67.65" cy="32.72" rx="3.84" ry="4.67"/>
  <ellipse class="cls-2" cx="83.99" cy="32.72" rx="2.98" ry="4.22"/>
  <ellipse class="cls-2" cx="68.59" cy="55.59" rx="4.15" ry="5.06"/>
  <ellipse class="cls-2" cx="83.43" cy="61.87" rx="2.76" ry="4.38"/>
  <path class="cls-2" d="M78.57,19.89s4.21-3.87,7.03-.06c0,0-.57,4.87-6.72,1.57"/>
  <path class="cls-2" d="M71.85,19.37s-4.21-3.87-7.03-.06c0,0,.57,4.87,6.72,1.57"/>
  <ellipse class="cls-3" cx="80.01" cy="33.14" rx="5.16" ry="6.28"/>
  <ellipse class="cls-3" cx="80.25" cy="41.4" rx="5.16" ry="6.28"/>
  <ellipse class="cls-3" cx="80.01" cy="48.45" rx="5.16" ry="6.28"/>
  <ellipse class="cls-3" cx="78.52" cy="56.65" rx="5.16" ry="6.28"/>
  <ellipse class="cls-3" cx="71.79" cy="56.65" rx="5.16" ry="6.28"/>
  <ellipse class="cls-3" cx="70.86" cy="48.45" rx="5.16" ry="6.28"/>
  <ellipse class="cls-3" cx="70.86" cy="41.4" rx="5.16" ry="6.28"/>
  <ellipse class="cls-3" cx="70.86" cy="33.14" rx="5.16" ry="6.28"/>
  <ellipse class="cls-3" cx="75.09" cy="30.67" rx="5.16" ry="6.28"/>
  <ellipse class="cls-3" cx="75.09" cy="58.05" rx="5.16" ry="6.28"/>
  <ellipse class="cls-3" cx="74.22" cy="39.42" rx="5.16" ry="6.28"/>
  <ellipse class="cls-3" cx="74.22" cy="46.76" rx="5.16" ry="6.28"/>
  <path class="cls-3" d="M79.05,68.93c.41,1.56-.3,3.23-1.57,3.73s-2.65-.36-3.06-1.92.3-3.23,1.57-3.73,2.65.36,3.06,1.92Z"/>
  <path class="cls-3" d="M81.68,66.99c.41,1.56-.3,3.23-1.57,3.73s-2.65-.36-3.06-1.92.3-3.23,1.57-3.73,2.65.36,3.06,1.92Z"/>
  <path class="cls-3" d="M82.3,69.33c.41,1.56-.3,3.23-1.57,3.73s-2.65-.36-3.06-1.92.3-3.23,1.57-3.73,2.65.36,3.06,1.92Z"/>
  <ellipse class="cls-3" cx="74.76" cy="65.61" rx="2.43" ry="2.96"/>
  <ellipse class="cls-3" cx="77.81" cy="65.19" rx="2.43" ry="2.96"/>
  <ellipse class="cls-3" cx="77.57" cy="67.63" rx="2.43" ry="2.96"/>
  <path class="cls-3" d="M80.07,65.48c.41,1.56-.3,3.23-1.57,3.73s-2.65-.36-3.06-1.92.3-3.23,1.57-3.73,2.65.36,3.06,1.92Z"/>
  <path class="cls-3" d="M82.7,63.54c.41,1.56-.3,3.23-1.57,3.73s-2.65-.36-3.06-1.92.3-3.23,1.57-3.73,2.65.36,3.06,1.92Z"/>
  <path class="cls-3" d="M83.32,65.88c.41,1.56-.3,3.23-1.57,3.73s-2.65-.36-3.06-1.92.3-3.23,1.57-3.73,2.65.36,3.06,1.92Z"/>
  <ellipse class="cls-3" cx="70.09" cy="22.11" rx="2.43" ry="2.96"/>
  <ellipse class="cls-3" cx="73.11" cy="21.39" rx="2.43" ry="2.96"/>
  <ellipse class="cls-3" cx="73.02" cy="23.85" rx="2.43" ry="2.96"/>
  <ellipse class="cls-3" cx="71.02" cy="18.26" rx="2.43" ry="2.96"/>
  <ellipse class="cls-3" cx="74.01" cy="17.39" rx="2.43" ry="2.96"/>
  <ellipse class="cls-3" cx="74.01" cy="19.85" rx="2.43" ry="2.96"/>
  <path class="cls-3" d="M77.49,18.51c-.23-1.61.65-3.15,1.97-3.44s2.59.79,2.82,2.4-.65,3.15-1.97,3.44-2.59-.79-2.82-2.4Z"/>
  <path class="cls-3" d="M74.32,17.58c-.23-1.61.65-3.15,1.97-3.44s2.59.79,2.82,2.4-.65,3.15-1.97,3.44-2.59-.79-2.82-2.4Z"/>
  <path class="cls-3" d="M77.27,22.64c-.29-1.6.54-3.18,1.85-3.53s2.61.66,2.9,2.26-.54,3.18-1.85,3.53-2.61-.66-2.9-2.26Z"/>
  <path class="cls-3" d="M74.51,24.27c-.29-1.6.54-3.18,1.85-3.53s2.61.66,2.9,2.26-.54,3.18-1.85,3.53-2.61-.66-2.9-2.26Z"/>
  <path class="cls-3" d="M74.07,21.87c-.29-1.6.54-3.18,1.85-3.53s2.61.66,2.9,2.26-.54,3.18-1.85,3.53-2.61-.66-2.9-2.26Z"/>
</svg>