<?xml version="1.0" encoding="UTF-8"?>
<svg id="Layer_15" data-name="Layer 15" xmlns="http://www.w3.org/2000/svg" viewBox="0 0 100 100">
  <defs>
    <style>
      .cls-1 {
        fill: #939393;
      }

      .cls-2 {
        fill: #2c2c48;
      }

      .cls-3 {
        fill: #1e1e1e;
      }

      .cls-4 {
        fill: #c3c3c3;
      }

      .cls-5 {
        fill: #7d9cb7;
        stroke: #201814;
        stroke-miterlimit: 10;
        stroke-width: 3px;
      }

      .cls-6 {
        fill: #403741;
      }

      .cls-7 {
        fill: #b7b7b7;
      }

      .cls-8 {
        fill: #6f6f6f;
      }

      .cls-9 {
        fill: #372334;
      }

      .cls-10 {
        fill: #1668a5;
      }

      .cls-11 {
        fill: #72223f;
      }

      .cls-12 {
        fill: #620b0b;
      }

      .cls-13 {
        fill: #26160a;
      }

      .cls-14 {
        fill: #999;
      }
    </style>
  </defs>
  <rect class="cls-9" x=".12" width="100" height="100" rx="6.28" ry="6.28"/>
  <rect class="cls-5" x="37.64" y="9.24" width="47.37" height="62.33"/>
  <polyline class="cls-12" points="56.17 40.55 48.93 70.19 75.18 70.19 65.56 41.28"/>
  <ellipse class="cls-8" cx="15.38" cy="83.69" rx="12.19" ry="12.92"/>
  <rect class="cls-14" x=".33" y="85.87" width="32.32" height="14.13" rx="6.89" ry="6.89"/>
  <path class="cls-3" d="M10.73,85.87c-3.27-4.46,1.92-14.77,1.92-14.77,0,0,3.43-1.43,8.75,1.36s-2.77,9.06-2.59,11.24l.18,2.18h-8.26Z"/>
  <path class="cls-1" d="M69.38,29.17c0,4.82-3.91,8.73-8.73,8.73-1.21,0-2.35-.24-3.4-.69-3.13-1.33-5.33-4.43-5.33-8.05,0-4.82,3.91-8.73,8.73-8.73s8.73,3.91,8.73,8.73Z"/>
  <path class="cls-10" d="M54.51,67.62l1.64-23.22-2.91,3.97c-1.39,1.89-.56,4.37,1.79,5.38l4.23,1.81-2.11,6.06-7.91-4.16c-2.97-1.56-4.11-4.74-2.65-7.43l4.08-7.54,5.49-3.89h9.78s5.49,3.89,5.49,3.89l4.08,7.54c1.45,2.69.32,5.86-2.65,7.43l-7.91,4.16-2.11-6.06,4.23-1.81c2.35-1.01,3.18-3.49,1.79-5.38l-2.91-3.97,2.24,22.34.24,3.45h-14.14"/>
  <path class="cls-1" d="M56.64,38.61l1.11-3.96,6.02-.12.86,3.66s-4.4,6.65-8,.42Z"/>
  <path class="cls-13" d="M51.42,25.52s4.87-10.81,16.99-2.14c0,0,3.68,2.69,4.63-.62s.59,8.46-5.7,4.89-15.43,1.52-15.43,1.52c0,0-2.25-1.12-.49-3.65Z"/>
  <polyline class="cls-12" points="59.26 45.36 63.42 45.36 65.44 50.71 61.32 60.21 57.72 51.89"/>
  <circle class="cls-4" cx="26.48" cy="64.35" r="3.27"/>
  <circle class="cls-4" cx="33.37" cy="56.46" r="3.62"/>
  <path class="cls-4" d="M96.33,26.45c0-4.54-2.87-8.34-6.75-9.44.16-.6.25-1.23.25-1.87,0-4.99-5.17-9.03-11.55-9.03-1.86,0-3.6.35-5.16.96-1.38-2.39-3.73-3.97-6.4-3.97-.78,0-1.52.14-2.23.38-1.87-1.58-4.76-2.6-8-2.6-3.66,0-6.86,1.3-8.67,3.25-1.95-1.44-4.34-2.3-6.95-2.3-4.2,0-7.87,2.21-9.94,5.53-1.49-.8-3.19-1.25-4.99-1.25-5.84,0-10.58,4.73-10.58,10.58,0,5.14,3.67,9.42,8.53,10.37-.98,1.98-1.55,4.21-1.55,6.58,0,8.2,6.65,14.85,14.85,14.85,2.04,0,3.97-.41,5.74-1.15,1.56,5.25,6.92,9.12,13.31,9.12,3.86,0,7.34-1.42,9.85-3.69.51.05,1.03.08,1.56.08,3.92,0,7.46-1.35,10.06-3.54,1.22.44,2.56.69,3.96.69,5.82,0,10.53-4.22,10.53-9.43,0-1.85-.61-3.57-1.64-5.03,3.37-1.42,5.75-4.95,5.75-9.09Z"/>
  <rect class="cls-7" x="62.71" y="24.63" width="24.59" height="2.26" rx="1.13" ry="1.13" transform="translate(4.98 -11.46) rotate(9.04)"/>
  <rect class="cls-7" x="76.84" y="20.76" width="11.64" height="2.5" rx="1.25" ry="1.25"/>
  <path class="cls-7" d="M53.09,21.47l2.05,5.75-16.79.7,2.17,8.16s5.96,1.25,4.63-6.02l13.37-.15-1.38-8.28-4.06-.16Z"/>
  <path class="cls-7" d="M48.44,19.22h-21.96l-3.93,4.04s4.4,1.9,12.12-1.37h13.78"/>
  <path class="cls-11" d="M67.77,25.28c-1.02.12-36.19,2.26-36.19,2.26,0,0,16.16-10.22,13.78-14.38s21.98,6.12,21.98,6.12l.43,6Z"/>
  <circle class="cls-7" cx="72.86" cy="21.89" r="6.12"/>
  <path class="cls-2" d="M29.16,100h64.67c3.47,0,6.28-2.81,6.28-6.28v-16.1H29.16v22.38Z"/>
  <rect class="cls-6" x="26.63" y="77.62" width="14.33" height="22.38" rx="3.5" ry="3.5"/>
</svg>