<?xml version="1.0" encoding="UTF-8"?>
<svg xmlns="http://www.w3.org/2000/svg" viewBox="0 0 100 100">
  <defs>
    <style>
      .cls-1 {
        fill: #dbdbdb;
      }

      .cls-2 {
        fill: #cecece;
      }

      .cls-3 {
        fill: #8c6eb9;
      }

      .cls-4 {
        fill: #f7f7f7;
      }

      .cls-5 {
        fill: #afafaf;
      }
    </style>
  </defs>
  <g id="icon_3" data-name="icon 3">
    <rect class="cls-3" x=".21" width="100" height="100" rx="6.28" ry="6.28"/>
  </g>
  <g id="Layer_15" data-name="Layer 15">
    <path class="cls-5" d="M93.12,51.25s-41.9,4.66-62.04,0c0,0,3.32,12.26,0,36.4,0,0,41.9-4.66,62.04,0,0,0-3.32-12.26,0-36.4Z"/>
    <path class="cls-2" d="M90.67,47.1s-41.9,4.66-62.04,0c0,0,3.32,12.26,0,36.4,0,0,41.9-4.66,62.04,0,0,0-3.32-12.26,0-36.4Z"/>
    <path class="cls-1" d="M87.14,43.29s-41.9,4.66-62.04,0c0,0,3.32,12.26,0,36.4,0,0,41.9-4.66,62.04,0,0,0-3.32-12.26,0-36.4Z"/>
    <path class="cls-4" d="M84.89,40.84s-41.9,4.66-62.04,0c0,0,3.32,12.26,0,36.4,0,0,41.9-4.66,62.04,0,0,0-3.32-12.26,0-36.4Z"/>
  </g>
</svg>