<?xml version="1.0" encoding="UTF-8"?>
<svg id="Layer_8" data-name="Layer 8" xmlns="http://www.w3.org/2000/svg" viewBox="0 0 100 100">
  <defs>
    <style>
      .cls-1 {
        fill: #bd63d3;
      }

      .cls-2 {
        fill: #e57bff;
      }

      .cls-3 {
        fill: #3e1284;
      }

      .cls-4 {
        opacity: .3;
      }

      .cls-5 {
        fill: none;
        stroke: #0e52db;
        stroke-miterlimit: 10;
        stroke-width: 4px;
      }
    </style>
  </defs>
  <rect class="cls-3" x="-.05" y=".02" width="100" height="100" rx="6.28" ry="6.28"/>
  <g>
    <path class="cls-1" d="M49.95,24.88c-10.34-.25-10.03,9.24-10.03,9.24-15.84-1.17-13.7,12.72-13.7,12.72-12.84-.41-13.65,12.27-13.65,12.27-9.34-.61-9.7,13.54-9.7,13.54h46.11l.63-47.77c.11,0,.22,0,.33,0Z"/>
    <path class="cls-1" d="M87.33,59.1s-.81-12.67-13.65-12.27c0,0,2.15-13.89-13.7-12.72,0,0,.3-9.49-10.03-9.24-.11,0-.22,0-.33,0l-.63,47.77h48.05s-.36-14.15-9.7-13.54Z"/>
  </g>
  <g>
    <path class="cls-2" d="M50.16,29.15c-9.41-.22-9.14,8.41-9.14,8.41-14.43-1.06-12.47,11.59-12.47,11.59-11.69-.37-12.43,11.17-12.43,11.17-8.5-.55-8.83,12.33-8.83,12.33h41.98l.58-43.49c.1,0,.2,0,.3,0Z"/>
    <path class="cls-2" d="M84.19,60.32s-.74-11.54-12.43-11.17c0,0,1.95-12.65-12.47-11.59,0,0,.28-8.64-9.14-8.41-.1,0-.2,0-.3,0l-.58,43.49h43.75s-.33-12.89-8.83-12.33Z"/>
  </g>
  <g class="cls-4">
    <path class="cls-5" d="M51.97,52.37l20.76-12.27c-2.95-5.06-7.63-8.98-13.23-10.95l-8.22,22.92.7.31Z"/>
    <polygon class="cls-5" points="50.16 51.58 50.93 52.99 50.95 52.98 51.28 52.07 50.16 51.58"/>
    <polygon class="cls-5" points="50.95 52.98 51.97 52.37 51.28 52.07 50.95 52.98"/>
    <polygon class="cls-5" points="50.94 53.02 50.95 52.98 50.93 52.99 50.94 53.02"/>
    <path class="cls-5" d="M50.93,52.99l-20.96,12.39c2.91,4.82,7.4,8.57,12.76,10.53l8.21-22.9v-.02Z"/>
    <path class="cls-5" d="M50.16,51.58l-20.79-9.13,20.79,9.13-10.22-18.87,10.22,18.87,1.12.49,8.22-22.92c-2.58-.91-5.35-1.41-8.24-1.41-13.72,0-24.84,11.12-24.84,24.84,0,4.69,1.3,9.07,3.55,12.81l20.96-12.39-.77-1.42Z"/>
    <path class="cls-5" d="M50.95,52.98v.04s11.89,21.98,11.89,21.98l-11.9-21.98-8.21,22.9c2.66.97,5.53,1.5,8.53,1.5,10.33,0,19.19-6.31,22.94-15.29l-22.22-9.76-1.02.6Z"/>
    <path class="cls-5" d="M72.73,40.1l-20.76,12.27,22.22,9.76c1.23-2.94,1.91-6.17,1.91-9.55,0-4.55-1.23-8.81-3.37-12.48Z"/>
  </g>
  <g>
    <path class="cls-5" d="M49.7,51.37l20.76-12.27c-2.95-5.06-7.63-8.98-13.23-10.95l-8.22,22.92.7.31Z"/>
    <polygon class="cls-5" points="47.89 50.57 48.66 51.99 48.68 51.97 49.01 51.06 47.89 50.57"/>
    <polygon class="cls-5" points="48.68 51.97 49.7 51.37 49.01 51.06 48.68 51.97"/>
    <polygon class="cls-5" points="48.67 52.01 48.68 51.97 48.66 51.99 48.67 52.01"/>
    <path class="cls-5" d="M48.66,51.99l-20.96,12.39c2.91,4.82,7.4,8.57,12.76,10.53l8.21-22.9v-.02Z"/>
    <path class="cls-5" d="M47.89,50.57l-20.79-9.13,20.79,9.13-10.22-18.87,10.22,18.87,1.12.49,8.22-22.92c-2.58-.91-5.35-1.41-8.24-1.41-13.72,0-24.84,11.12-24.84,24.84,0,4.69,1.3,9.07,3.55,12.81l20.96-12.39-.77-1.42Z"/>
    <path class="cls-5" d="M48.68,51.97v.04s11.89,21.98,11.89,21.98l-11.9-21.98-8.21,22.9c2.66.97,5.53,1.5,8.53,1.5,10.33,0,19.19-6.31,22.94-15.29l-22.22-9.76-1.02.6Z"/>
    <path class="cls-5" d="M70.46,39.09l-20.76,12.27,22.22,9.76c1.23-2.94,1.91-6.17,1.91-9.55,0-4.55-1.23-8.81-3.37-12.48Z"/>
  </g>
</svg>