<?xml version="1.0" encoding="UTF-8"?>
<svg id="Layer_15" data-name="Layer 15" xmlns="http://www.w3.org/2000/svg" viewBox="0 0 100 100">
  <defs>
    <style>
      .cls-1 {
        fill: #939393;
      }

      .cls-2 {
        fill: #2c2c48;
      }

      .cls-3 {
        fill: #1e1e1e;
      }

      .cls-4 {
        fill: #7d9cb7;
        stroke: #201814;
        stroke-miterlimit: 10;
        stroke-width: 3px;
      }

      .cls-5 {
        fill: #403741;
      }

      .cls-6 {
        fill: #6f6f6f;
      }

      .cls-7 {
        fill: #372334;
      }

      .cls-8 {
        fill: #1668a5;
      }

      .cls-9 {
        fill: #620b0b;
      }

      .cls-10 {
        fill: #26160a;
      }

      .cls-11 {
        fill: #999;
      }
    </style>
  </defs>
  <rect class="cls-7" x="-.29" width="100" height="100" rx="6.28" ry="6.28"/>
  <rect class="cls-4" x="37.23" y="9.24" width="47.37" height="62.33"/>
  <polyline class="cls-9" points="55.76 40.55 48.52 70.19 74.77 70.19 65.15 41.28"/>
  <ellipse class="cls-6" cx="14.97" cy="83.69" rx="12.19" ry="12.92"/>
  <rect class="cls-11" x="-.08" y="85.87" width="32.32" height="14.13" rx="6.89" ry="6.89"/>
  <path class="cls-2" d="M28.75,100h64.67c3.47,0,6.28-2.81,6.28-6.28v-16.1H28.75v22.38Z"/>
  <path class="cls-3" d="M10.32,85.87c-3.27-4.46,1.92-14.77,1.92-14.77,0,0,3.43-1.43,8.75,1.36s-2.77,9.06-2.59,11.24l.18,2.18h-8.26Z"/>
  <path class="cls-1" d="M68.97,29.17c0,4.82-3.91,8.73-8.73,8.73-1.21,0-2.35-.24-3.4-.69-3.13-1.33-5.33-4.43-5.33-8.05,0-4.82,3.91-8.73,8.73-8.73s8.73,3.91,8.73,8.73Z"/>
  <path class="cls-8" d="M54.1,67.62l1.64-23.22-2.91,3.97c-1.39,1.89-.56,4.37,1.79,5.38l4.23,1.81-2.11,6.06-7.91-4.16c-2.97-1.56-4.11-4.74-2.65-7.43l4.08-7.54,5.49-3.89h9.78s5.49,3.89,5.49,3.89l4.08,7.54c1.45,2.69.32,5.86-2.65,7.43l-7.91,4.16-2.11-6.06,4.23-1.81c2.35-1.01,3.18-3.49,1.79-5.38l-2.91-3.97,2.24,22.34.24,3.45h-14.14"/>
  <path class="cls-1" d="M56.23,38.61l1.11-3.96,6.02-.12.86,3.66s-4.4,6.65-8,.42Z"/>
  <path class="cls-10" d="M51.01,25.52s4.87-10.81,16.99-2.14c0,0,3.68,2.69,4.63-.62s.59,8.46-5.7,4.89-15.43,1.52-15.43,1.52c0,0-2.25-1.12-.49-3.65Z"/>
  <polyline class="cls-9" points="58.85 45.36 63.01 45.36 65.03 50.71 60.91 60.21 57.31 51.89"/>
  <rect class="cls-5" x="26.22" y="77.62" width="14.33" height="22.38" rx="3.5" ry="3.5"/>
</svg>