<?xml version="1.0" encoding="UTF-8"?>
<svg id="Layer_15" data-name="Layer 15" xmlns="http://www.w3.org/2000/svg" viewBox="0 0 100 100">
  <defs>
    <style>
      .cls-1 {
        fill: #525285;
      }

      .cls-2 {
        fill: #1e1e1e;
      }

      .cls-3 {
        fill: #79687b;
      }

      .cls-4 {
        fill: #d7d7d7;
      }

      .cls-5 {
        fill: #b7b7b7;
      }

      .cls-6 {
        fill: #e1e1e1;
      }

      .cls-7 {
        fill: none;
        stroke: #1e1e1e;
        stroke-miterlimit: 10;
        stroke-width: .4px;
      }

      .cls-8 {
        fill: #6d4567;
      }
    </style>
  </defs>
  <rect class="cls-8" x=".06" y=".07" width="100" height="100" rx="6.28" ry="6.28"/>
  <rect class="cls-4" x=".06" y="5.62" width="100" height="58.34" rx="4.73" ry="4.73"/>
  <rect class="cls-6" x="5.84" y="10.61" width="88.42" height="51.58" rx="4.73" ry="4.73"/>
  <rect class="cls-3" x=".1" y="59.68" width="99.95" height="12.36"/>
  <path class="cls-1" d="M.06,95.09s1.97,4.98,6.28,4.98l88.55-.1s4.51-.24,5.17-6.18v-21.74H.1l-.05,23.05Z"/>
  <path class="cls-5" d="M28.27,59.66s-10.6-14.34-18.07,0c-4.67,8.96-.93,14.01,2.52,16.54,2.34,1.71,5.42,2.04,8.13,1.01,4.94-1.89,11.64-6.62,3.39-17.55"/>
  <path class="cls-5" d="M71.93,59.66s10.6-14.34,18.07,0c4.67,8.96.93,14.01-2.52,16.54-2.34,1.71-5.42,2.04-8.13,1.01-4.94-1.89-11.64-6.62-3.39-17.55"/>
  <circle class="cls-5" cx="50.06" cy="30.77" r="25.14"/>
  <path class="cls-5" d="M30.85,59.68s2.85-3.33,10.57-2.97v-3.42h16.99v3.2s8.67.46,10.93,3.2"/>
  <path class="cls-2" d="M25.16,27.22s26.72-9.12,49.89.85c0,0,.88,10.29-3.39,15.7s-14.61,1.44-18.83-2.85c-3.39-3.45-5.17-1.25-8.2,2.14-3.5,3.92-12.95,7.37-18.01-3.32-1.29-2.72-1.82-6.77-1.45-12.51Z"/>
  <path class="cls-7" d="M53.07,49.42s.24-1.66,3.96-1.35"/>
</svg>