<?xml version="1.0" encoding="UTF-8"?>
<svg id="Layer_16" data-name="Layer 16" xmlns="http://www.w3.org/2000/svg" viewBox="0 0 100 100">
  <defs>
    <style>
      .cls-1 {
        fill: #8191c6;
      }

      .cls-2 {
        fill: #8798d8;
      }

      .cls-3 {
        fill: #8ca1d3;
      }

      .cls-4 {
        fill: #acb9dd;
      }

      .cls-5 {
        fill: #798acc;
      }

      .cls-6 {
        fill: #6f80b5;
      }

      .cls-7 {
        fill: #3141b9;
      }
    </style>
  </defs>
  <rect class="cls-7" x=".12" width="100" height="100" rx="6.28" ry="6.28"/>
  <rect class="cls-5" x="33.45" y="27.37" width="38.26" height="43.84" rx="5.19" ry="5.19" transform="translate(33.21 -20.13) rotate(31.26)"/>
  <rect class="cls-3" x="30.99" y="22.51" width="38.26" height="43.84" rx="5.19" ry="5.19" transform="translate(30.34 -19.56) rotate(31.26)"/>
  <path class="cls-2" d="M37.08,62.16l22.72-37.42,13.61,8.18s4.05,1.95,1.74,7.13-17.37,28.6-17.37,28.6c0,0-2.93,4.29-7.13,1.74l-13.58-8.24Z"/>
  <circle class="cls-4" cx="59.11" cy="28.18" r=".49"/>
  <circle class="cls-4" cx="56.72" cy="32.13" r=".49"/>
  <circle class="cls-4" cx="54.35" cy="36.12" r=".49"/>
  <circle class="cls-4" cx="51.9" cy="40.07" r=".49"/>
  <circle class="cls-4" cx="49.53" cy="44.07" r=".49"/>
  <circle class="cls-4" cx="47.13" cy="48.01" r=".49"/>
  <circle class="cls-4" cx="44.76" cy="52.01" r=".49"/>
  <circle class="cls-4" cx="41.78" cy="56.82" r=".49"/>
  <circle class="cls-4" cx="39.41" cy="60.82" r=".49"/>
  <polyline class="cls-1" points="59.43 24.44 59.8 24.75 37.08 62.16 36.67 61.91"/>
  <rect class="cls-1" x="56.35" y="43.57" width="8.75" height="1.46" transform="translate(31.81 -25.08) rotate(31.26)"/>
  <path class="cls-6" d="M56.61,42.65l7.48,4.54c.04.07-4.93,5.46-7.1,3.94-1.06-.74-2.98-1.13-.37-8.48Z"/>
</svg>