<?xml version="1.0" encoding="UTF-8"?>
<svg id="icon_3" data-name="icon 3" xmlns="http://www.w3.org/2000/svg" viewBox="0 0 100 100">
  <defs>
    <style>
      .cls-1 {
        fill: #8affea;
      }

      .cls-2 {
        fill: #6f47b9;
      }

      .cls-3 {
        fill: #424242;
      }
    </style>
  </defs>
  <rect class="cls-2" x="-.04" width="100" height="100" rx="6.28" ry="6.28"/>
  <ellipse class="cls-3" cx="13.18" cy="39.43" rx="3.84" ry="4.67"/>
  <ellipse class="cls-3" cx="29.52" cy="39.43" rx="2.98" ry="4.22"/>
  <ellipse class="cls-3" cx="14.11" cy="62.29" rx="4.15" ry="5.06"/>
  <ellipse class="cls-3" cx="28.96" cy="63.35" rx="2.76" ry="4.38"/>
  <path class="cls-3" d="M24.09,26.59s4.21-3.87,7.03-.06c0,0-.57,4.87-6.72,1.57"/>
  <path class="cls-3" d="M17.37,26.07s-4.21-3.87-7.03-.06c0,0,.57,4.87,6.72,1.57"/>
  <ellipse class="cls-1" cx="25.54" cy="39.84" rx="5.16" ry="6.28"/>
  <ellipse class="cls-1" cx="25.77" cy="48.1" rx="5.16" ry="6.28"/>
  <ellipse class="cls-1" cx="25.54" cy="55.16" rx="5.16" ry="6.28"/>
  <ellipse class="cls-1" cx="24.05" cy="63.35" rx="5.16" ry="6.28"/>
  <ellipse class="cls-1" cx="17.31" cy="63.35" rx="5.16" ry="6.28"/>
  <ellipse class="cls-1" cx="16.38" cy="55.16" rx="5.16" ry="6.28"/>
  <ellipse class="cls-1" cx="16.38" cy="48.1" rx="5.16" ry="6.28"/>
  <ellipse class="cls-1" cx="16.38" cy="39.84" rx="5.16" ry="6.28"/>
  <ellipse class="cls-1" cx="20.61" cy="37.37" rx="5.16" ry="6.28"/>
  <ellipse class="cls-1" cx="20.61" cy="64.76" rx="5.16" ry="6.28"/>
  <ellipse class="cls-1" cx="19.74" cy="46.12" rx="5.16" ry="6.28"/>
  <ellipse class="cls-1" cx="19.74" cy="53.46" rx="5.16" ry="6.28"/>
  <path class="cls-1" d="M24.57,75.63c.41,1.56-.3,3.23-1.57,3.73s-2.65-.36-3.06-1.92.3-3.23,1.57-3.73,2.65.36,3.06,1.92Z"/>
  <path class="cls-1" d="M27.21,73.69c.41,1.56-.3,3.23-1.57,3.73s-2.65-.36-3.06-1.92.3-3.23,1.57-3.73,2.65.36,3.06,1.92Z"/>
  <path class="cls-1" d="M27.82,76.03c.41,1.56-.3,3.23-1.57,3.73s-2.65-.36-3.06-1.92.3-3.23,1.57-3.73,2.65.36,3.06,1.92Z"/>
  <ellipse class="cls-1" cx="20.28" cy="72.32" rx="2.43" ry="2.96"/>
  <ellipse class="cls-1" cx="23.34" cy="71.89" rx="2.43" ry="2.96"/>
  <ellipse class="cls-1" cx="23.09" cy="74.33" rx="2.43" ry="2.96"/>
  <path class="cls-1" d="M25.59,72.18c.41,1.56-.3,3.23-1.57,3.73s-2.65-.36-3.06-1.92.3-3.23,1.57-3.73,2.65.36,3.06,1.92Z"/>
  <path class="cls-1" d="M28.22,70.24c.41,1.56-.3,3.23-1.57,3.73s-2.65-.36-3.06-1.92.3-3.23,1.57-3.73,2.65.36,3.06,1.92Z"/>
  <path class="cls-1" d="M28.84,72.59c.41,1.56-.3,3.23-1.57,3.73s-2.65-.36-3.06-1.92.3-3.23,1.57-3.73,2.65.36,3.06,1.92Z"/>
  <ellipse class="cls-1" cx="15.61" cy="28.81" rx="2.43" ry="2.96"/>
  <ellipse class="cls-1" cx="18.63" cy="28.09" rx="2.43" ry="2.96"/>
  <ellipse class="cls-1" cx="18.55" cy="30.55" rx="2.43" ry="2.96"/>
  <ellipse class="cls-1" cx="16.54" cy="24.96" rx="2.43" ry="2.96"/>
  <ellipse class="cls-1" cx="19.54" cy="24.09" rx="2.43" ry="2.96"/>
  <ellipse class="cls-1" cx="19.54" cy="26.55" rx="2.43" ry="2.96"/>
  <path class="cls-1" d="M23.01,25.22c-.23-1.61.65-3.15,1.97-3.44s2.59.79,2.82,2.4-.65,3.15-1.97,3.44-2.59-.79-2.82-2.4Z"/>
  <path class="cls-1" d="M19.84,24.29c-.23-1.61.65-3.15,1.97-3.44s2.59.79,2.82,2.4-.65,3.15-1.97,3.44-2.59-.79-2.82-2.4Z"/>
  <path class="cls-1" d="M22.8,29.34c-.29-1.6.54-3.18,1.85-3.53s2.61.66,2.9,2.26-.54,3.18-1.85,3.53-2.61-.66-2.9-2.26Z"/>
  <path class="cls-1" d="M20.03,30.97c-.29-1.6.54-3.18,1.85-3.53s2.61.66,2.9,2.26-.54,3.18-1.85,3.53-2.61-.66-2.9-2.26Z"/>
  <path class="cls-1" d="M19.59,28.57c-.29-1.6.54-3.18,1.85-3.53s2.61.66,2.9,2.26-.54,3.18-1.85,3.53-2.61-.66-2.9-2.26Z"/>
  <ellipse class="cls-3" cx="56.11" cy="59.33" rx="3.84" ry="4.67" transform="translate(-1.64 1.59) rotate(-1.6)"/>
  <ellipse class="cls-3" cx="39.77" cy="59.79" rx="2.98" ry="4.22" transform="translate(-1.65 1.13) rotate(-1.6)"/>
  <ellipse class="cls-3" cx="54.53" cy="36.5" rx="4.15" ry="5.06" transform="translate(-1 1.54) rotate(-1.6)"/>
  <ellipse class="cls-3" cx="39.67" cy="35.86" rx="2.76" ry="4.38" transform="translate(-.99 1.12) rotate(-1.6)"/>
  <path class="cls-3" d="M45.56,72.46s-4.1,3.98-7.03.26c0,0,.44-4.88,6.67-1.76"/>
  <path class="cls-3" d="M52.29,72.8s4.32,3.75,7.03-.13c0,0-.71-4.85-6.76-1.39"/>
  <ellipse class="cls-1" cx="43.74" cy="59.26" rx="5.16" ry="6.28" transform="translate(-1.64 1.25) rotate(-1.6)"/>
  <ellipse class="cls-1" cx="43.28" cy="51.02" rx="5.16" ry="6.28" transform="translate(-1.41 1.23) rotate(-1.6)"/>
  <ellipse class="cls-1" cx="43.31" cy="43.95" rx="5.16" ry="6.28" transform="translate(-1.21 1.23) rotate(-1.6)"/>
  <ellipse class="cls-1" cx="44.57" cy="35.72" rx="5.16" ry="6.28" transform="translate(-.98 1.26) rotate(-1.6)"/>
  <ellipse class="cls-1" cx="51.31" cy="35.53" rx="5.16" ry="6.28" transform="translate(-.97 1.45) rotate(-1.6)"/>
  <ellipse class="cls-1" cx="52.46" cy="43.7" rx="5.16" ry="6.28" transform="translate(-1.2 1.48) rotate(-1.6)"/>
  <ellipse class="cls-1" cx="52.66" cy="50.75" rx="5.16" ry="6.28" transform="translate(-1.4 1.49) rotate(-1.6)"/>
  <ellipse class="cls-1" cx="52.89" cy="59.01" rx="5.16" ry="6.28" transform="translate(-1.63 1.5) rotate(-1.6)"/>
  <ellipse class="cls-1" cx="48.73" cy="61.6" rx="5.16" ry="6.28" transform="translate(-1.7 1.39) rotate(-1.6)"/>
  <ellipse class="cls-1" cx="47.97" cy="34.22" rx="5.16" ry="6.28" transform="translate(-.94 1.35) rotate(-1.6)"/>
  <ellipse class="cls-1" cx="49.36" cy="52.82" rx="5.16" ry="6.28" transform="translate(-1.46 1.4) rotate(-1.6)"/>
  <ellipse class="cls-1" cx="49.15" cy="45.48" rx="5.16" ry="6.28" transform="translate(-1.25 1.39) rotate(-1.6)"/>
  <path class="cls-1" d="M43.7,23.46c-.45-1.55.2-3.23,1.47-3.77s2.66.29,3.11,1.83-.2,3.23-1.47,3.77-2.66-.29-3.11-1.83Z"/>
  <path class="cls-1" d="M41.13,25.48c-.45-1.55.2-3.23,1.47-3.77s2.66.29,3.11,1.83-.2,3.23-1.47,3.77-2.66-.29-3.11-1.83Z"/>
  <path class="cls-1" d="M40.44,23.15c-.45-1.55.2-3.23,1.47-3.77s2.66.29,3.11,1.83-.2,3.23-1.47,3.77-2.66-.29-3.11-1.83Z"/>
  <ellipse class="cls-1" cx="48.09" cy="26.65" rx="2.43" ry="2.96" transform="translate(-.73 1.35) rotate(-1.6)"/>
  <ellipse class="cls-1" cx="45.05" cy="27.16" rx="2.43" ry="2.96" transform="translate(-.74 1.27) rotate(-1.6)"/>
  <ellipse class="cls-1" cx="45.22" cy="24.71" rx="2.43" ry="2.96" transform="translate(-.67 1.27) rotate(-1.6)"/>
  <path class="cls-1" d="M42.78,26.94c-.45-1.55.2-3.23,1.47-3.77s2.66.29,3.11,1.83-.2,3.23-1.47,3.77-2.66-.29-3.11-1.83Z"/>
  <path class="cls-1" d="M40.21,28.95c-.45-1.55.2-3.23,1.47-3.77s2.66.29,3.11,1.83-.2,3.23-1.47,3.77-2.66-.29-3.11-1.83Z"/>
  <path class="cls-1" d="M39.52,26.62c-.45-1.55.2-3.23,1.47-3.77s2.66.29,3.11,1.83-.2,3.23-1.47,3.77-2.66-.29-3.11-1.83Z"/>
  <ellipse class="cls-1" cx="53.97" cy="70.01" rx="2.43" ry="2.96" transform="translate(-1.93 1.54) rotate(-1.6)"/>
  <ellipse class="cls-1" cx="50.98" cy="70.82" rx="2.43" ry="2.96" transform="translate(-1.96 1.45) rotate(-1.6)"/>
  <ellipse class="cls-1" cx="50.99" cy="68.36" rx="2.43" ry="2.96" transform="translate(-1.89 1.45) rotate(-1.6)"/>
  <ellipse class="cls-1" cx="53.14" cy="73.89" rx="2.43" ry="2.96" transform="translate(-2.04 1.51) rotate(-1.6)"/>
  <ellipse class="cls-1" cx="50.18" cy="74.84" rx="2.43" ry="2.96" transform="translate(-2.07 1.43) rotate(-1.6)"/>
  <ellipse class="cls-1" cx="50.11" cy="72.38" rx="2.43" ry="2.96" transform="translate(-2 1.43) rotate(-1.6)"/>
  <path class="cls-1" d="M46.67,73.81c.28,1.6-.56,3.17-1.87,3.49s-2.61-.72-2.89-2.32.56-3.17,1.87-3.49,2.61.72,2.89,2.32Z"/>
  <path class="cls-1" d="M49.87,74.65c.28,1.6-.56,3.17-1.87,3.49s-2.61-.72-2.89-2.32.56-3.17,1.87-3.49,2.61.72,2.89,2.32Z"/>
  <path class="cls-1" d="M46.77,69.68c.33,1.59-.45,3.19-1.75,3.58s-2.63-.59-2.96-2.18.45-3.19,1.75-3.58,2.63.59,2.96,2.18Z"/>
  <path class="cls-1" d="M49.49,67.97c.33,1.59-.45,3.19-1.75,3.58s-2.63-.59-2.96-2.18.45-3.19,1.75-3.58,2.63.59,2.96,2.18Z"/>
  <path class="cls-1" d="M50,70.36c.33,1.59-.45,3.19-1.75,3.58s-2.63-.59-2.96-2.18.45-3.19,1.75-3.58,2.63.59,2.96,2.18Z"/>
  <ellipse class="cls-3" cx="67.62" cy="37.95" rx="3.84" ry="4.67"/>
  <ellipse class="cls-3" cx="83.96" cy="37.95" rx="2.98" ry="4.22"/>
  <ellipse class="cls-3" cx="68.55" cy="60.81" rx="4.15" ry="5.06"/>
  <ellipse class="cls-3" cx="83.4" cy="61.87" rx="2.76" ry="4.38"/>
  <path class="cls-3" d="M78.53,25.12s4.21-3.87,7.03-.06c0,0-.57,4.87-6.72,1.57"/>
  <path class="cls-3" d="M71.81,24.59s-4.21-3.87-7.03-.06c0,0,.57,4.87,6.72,1.57"/>
  <ellipse class="cls-1" cx="79.98" cy="38.36" rx="5.16" ry="6.28"/>
  <ellipse class="cls-1" cx="80.21" cy="46.62" rx="5.16" ry="6.28"/>
  <ellipse class="cls-1" cx="79.98" cy="53.68" rx="5.16" ry="6.28"/>
  <ellipse class="cls-1" cx="78.49" cy="61.87" rx="5.16" ry="6.28"/>
  <ellipse class="cls-1" cx="71.75" cy="61.87" rx="5.16" ry="6.28"/>
  <ellipse class="cls-1" cx="70.82" cy="53.68" rx="5.16" ry="6.28"/>
  <ellipse class="cls-1" cx="70.82" cy="46.62" rx="5.16" ry="6.28"/>
  <ellipse class="cls-1" cx="70.82" cy="38.36" rx="5.16" ry="6.28"/>
  <ellipse class="cls-1" cx="75.05" cy="35.89" rx="5.16" ry="6.28"/>
  <ellipse class="cls-1" cx="75.05" cy="63.28" rx="5.16" ry="6.28"/>
  <ellipse class="cls-1" cx="74.18" cy="44.64" rx="5.16" ry="6.28"/>
  <ellipse class="cls-1" cx="74.18" cy="51.98" rx="5.16" ry="6.28"/>
  <path class="cls-1" d="M79.01,74.15c.41,1.56-.3,3.23-1.57,3.73s-2.65-.36-3.06-1.92.3-3.23,1.57-3.73,2.65.36,3.06,1.92Z"/>
  <path class="cls-1" d="M81.65,72.21c.41,1.56-.3,3.23-1.57,3.73s-2.65-.36-3.06-1.92.3-3.23,1.57-3.73,2.65.36,3.06,1.92Z"/>
  <path class="cls-1" d="M82.26,74.55c.41,1.56-.3,3.23-1.57,3.73s-2.65-.36-3.06-1.92.3-3.23,1.57-3.73,2.65.36,3.06,1.92Z"/>
  <ellipse class="cls-1" cx="74.72" cy="70.84" rx="2.43" ry="2.96"/>
  <ellipse class="cls-1" cx="77.77" cy="70.41" rx="2.43" ry="2.96"/>
  <ellipse class="cls-1" cx="77.53" cy="72.86" rx="2.43" ry="2.96"/>
  <path class="cls-1" d="M80.03,70.7c.41,1.56-.3,3.23-1.57,3.73s-2.65-.36-3.06-1.92.3-3.23,1.57-3.73,2.65.36,3.06,1.92Z"/>
  <path class="cls-1" d="M82.66,68.76c.41,1.56-.3,3.23-1.57,3.73s-2.65-.36-3.06-1.92.3-3.23,1.57-3.73,2.65.36,3.06,1.92Z"/>
  <path class="cls-1" d="M83.28,71.11c.41,1.56-.3,3.23-1.57,3.73s-2.65-.36-3.06-1.92.3-3.23,1.57-3.73,2.65.36,3.06,1.92Z"/>
  <ellipse class="cls-1" cx="70.05" cy="27.33" rx="2.43" ry="2.96"/>
  <ellipse class="cls-1" cx="73.07" cy="26.61" rx="2.43" ry="2.96"/>
  <ellipse class="cls-1" cx="72.99" cy="29.07" rx="2.43" ry="2.96"/>
  <ellipse class="cls-1" cx="70.98" cy="23.48" rx="2.43" ry="2.96"/>
  <ellipse class="cls-1" cx="73.98" cy="22.61" rx="2.43" ry="2.96"/>
  <ellipse class="cls-1" cx="73.98" cy="25.07" rx="2.43" ry="2.96"/>
  <path class="cls-1" d="M77.45,23.74c-.23-1.61.65-3.15,1.97-3.44s2.59.79,2.82,2.4-.65,3.15-1.97,3.44-2.59-.79-2.82-2.4Z"/>
  <path class="cls-1" d="M74.28,22.81c-.23-1.61.65-3.15,1.97-3.44s2.59.79,2.82,2.4-.65,3.15-1.97,3.44-2.59-.79-2.82-2.4Z"/>
  <path class="cls-1" d="M77.24,27.86c-.29-1.6.54-3.18,1.85-3.53s2.61.66,2.9,2.26-.54,3.18-1.85,3.53-2.61-.66-2.9-2.26Z"/>
  <path class="cls-1" d="M74.47,29.49c-.29-1.6.54-3.18,1.85-3.53s2.61.66,2.9,2.26-.54,3.18-1.85,3.53-2.61-.66-2.9-2.26Z"/>
  <path class="cls-1" d="M74.03,27.09c-.29-1.6.54-3.18,1.85-3.53s2.61.66,2.9,2.26-.54,3.18-1.85,3.53-2.61-.66-2.9-2.26Z"/>
</svg>