<?xml version="1.0" encoding="UTF-8"?>
<svg xmlns="http://www.w3.org/2000/svg" viewBox="0 0 100 100">
  <defs>
    <style>
      .cls-1 {
        opacity: .13;
      }

      .cls-1, .cls-2 {
        fill: #424242;
      }

      .cls-3 {
        fill: #5555e0;
      }

      .cls-4 {
        fill: #353534;
      }

      .cls-5 {
        fill: #3d3d3d;
      }

      .cls-6 {
        fill: #4f3c5e;
      }

      .cls-7 {
        fill: #80e7ff;
      }

      .cls-8 {
        fill: #75daf2;
      }

      .cls-9 {
        fill: #5b2463;
      }
    </style>
  </defs>
  <g id="icon_3" data-name="icon 3">
    <rect class="cls-3" x="-.16" width="100" height="100" rx="6.28" ry="6.28"/>
    <polygon class="cls-6" points="39.18 44 39.16 78.19 46.14 79.42 46.5 46.01 39.18 44"/>
    <polygon class="cls-6" points="4.58 35.78 4.56 70.73 12.44 71.98 12.84 37.84 4.58 35.78"/>
    <polygon class="cls-6" points="86.63 56.23 86.6 86.7 93.59 87.79 93.94 58.03 86.63 56.23"/>
    <polygon class="cls-6" points="63.44 50.55 63.42 82.29 70.4 83.42 70.76 52.42 63.44 50.55"/>
    <polygon class="cls-9" points="-.27 35.5 99.95 59.66 99.95 66.59 -.27 43.25 -.27 35.5"/>
    <polygon class="cls-9" points="-.29 44.31 99.92 68.47 99.92 75.4 -.29 52.06 -.29 44.31"/>
    <polygon class="cls-9" points="-.16 52.99 100.05 77.15 100.05 84.08 -.16 60.74 -.16 52.99"/>
    <polygon class="cls-9" points="-.27 61.33 99.95 85.49 99.95 92.42 -.27 69.08 -.27 61.33"/>
    <path class="cls-4" d="M15.32,67.9s15.76-.62,15.85,1.93l-4.03,5.84s-19.12-2.7-20.22.36,1.08-6.87,1.08-6.87l7.32-1.27Z"/>
    <path class="cls-4" d="M-1.2,51.68s14.86-5.27,15.71-2.87l-2.12,6.78s-19.06,3.11-19.2,6.35-1-6.88-1-6.88l6.61-3.38Z"/>
    <path class="cls-8" d="M-55.23,92.65s4.23-14.44,15.52-12.81c0,0-2.36-13.13,15.15-12.75,0,0,2.33-9.47,16.29-8.74,0,0,23.18-8.11,23.5,18.41,0,0-1.06,4.11-4.2,4.59,0,0-5.65,13.49-15.4,13.4,0,0-2.98,8.33-7.78,8.22,0,0-6.79,8.24-14.17,3.35,0,0-3.97,5.15-13.55,2.12"/>
    <path class="cls-7" d="M10.42,54.28s2.54-2.46,5.2.47c0,0,9.37,5.51,1.95,9.21,0,0-.24,3.53-4.59,1.14,0,0-6.13,3.77-8.64-1.57s.53-7.32.53-7.32c0,0,2.49-4.26,5.54-1.93Z"/>
  </g>
  <g id="Layer_19" data-name="Layer 19">
    <path class="cls-4" d="M80.15,20.57s-9.09,12.88-7.01,14.35l7.1-.2s8.15-17.51,11.31-16.76-6.35-2.83-6.35-2.83l-5.05,5.45Z"/>
    <path class="cls-4" d="M62.22,13.51s-9.09,12.88-7.01,14.35l7.1-.2s8.15-17.51,11.31-16.76-6.35-2.83-6.35-2.83l-5.05,5.45Z"/>
    <path class="cls-8" d="M74.89-1.84s7.31-13.16,17.96-9.08c0,0,.59-13.33,17.58-9.11,0,0,4.36-8.72,17.81-4.94,0,0,24.4-2.81,18.87,23.13,0,0-1.94,3.78-5.1,3.55,0,0-8.48,11.91-17.97,9.68,0,0-4.74,7.47-9.4,6.3,0,0-8.44,6.55-14.56.15,0,0-5.01,4.15-13.69-.91"/>
    <path class="cls-2" d="M88.1,4.2s6.97.95,9.66.53-1.39,4.43-10.4,7.26"/>
    <path class="cls-2" d="M64.99-7.06s3.27,5.12,8.45,5.69l-5.42,5.95s-6.97-8.59-3.03-11.65Z"/>
    <path class="cls-5" d="M88.86,12.42c-1.72,6.12-8.08,9.69-14.2,7.97s-9.69-8.08-7.97-14.2c1-3.56,3.57-6.26,6.75-7.55,2.29-.93,4.89-1.14,7.45-.42,6.12,1.72,9.69,8.08,7.97,14.2Z"/>
    <path class="cls-2" d="M87.42,11.76c-1.6,5.7-7.53,9.03-13.23,7.42s-9.03-7.53-7.42-13.23c.93-3.32,3.33-5.83,6.29-7.04,2.13-.87,4.56-1.06,6.94-.39,5.7,1.6,9.03,7.53,7.42,13.23Z"/>
    <path class="cls-1" d="M89.1,6.17s6.97.95,9.66.53-1.39,4.43-10.4,7.26"/>
    <path class="cls-7" d="M68.73-1.04s4.67,5.67,10.59,4.86c0,0,6.97,6.59,9.63,2.71,0,0,4.99,2.06,4.63-2.73,0,0,1.08-2.28-2.24-3.68,0,0-1.91-6.24-7.2-6.65,0,0-8.7-4.76-12.2-.84,0,0-6.47,1.72-3.21,6.34Z"/>
  </g>
</svg>