<?xml version="1.0" encoding="UTF-8"?>
<svg id="Layer_15" data-name="Layer 15" xmlns="http://www.w3.org/2000/svg" viewBox="0 0 100 100">
  <defs>
    <style>
      .cls-1 {
        fill: #413842;
      }

      .cls-2 {
        fill: #1e1e1e;
      }

      .cls-3 {
        fill: #342131;
      }

      .cls-4 {
        fill: #7e7e7e;
      }

      .cls-5 {
        fill: none;
        stroke: #1e1e1e;
        stroke-miterlimit: 10;
        stroke-width: .4px;
      }

      .cls-6 {
        fill: #2f2f4c;
      }

      .cls-7 {
        fill: #9e9e9e;
      }

      .cls-8 {
        fill: #a8a8a8;
      }
    </style>
  </defs>
  <rect class="cls-3" x="-.16" width="100" height="100" rx="6.28" ry="6.28"/>
  <rect class="cls-7" x="-.16" y="5.56" width="100" height="58.34" rx="4.73" ry="4.73"/>
  <rect class="cls-8" x="5.63" y="10.55" width="88.42" height="51.58" rx="4.73" ry="4.73"/>
  <rect class="cls-1" x="-.11" y="59.62" width="99.95" height="12.36"/>
  <path class="cls-6" d="M-.16,95.02s1.97,4.98,6.28,4.98l88.55-.1s4.51-.24,5.17-6.18v-21.74H-.11l-.05,23.05Z"/>
  <path class="cls-4" d="M28.06,59.6s-10.6-14.34-18.07,0c-4.67,8.96-.93,14.01,2.52,16.54,2.34,1.71,5.42,2.04,8.13,1.01,4.94-1.89,11.64-6.62,3.39-17.55"/>
  <path class="cls-4" d="M71.72,59.6s10.6-14.34,18.07,0c4.67,8.96.93,14.01-2.52,16.54-2.34,1.71-5.42,2.04-8.13,1.01-4.94-1.89-11.64-6.62-3.39-17.55"/>
  <circle class="cls-4" cx="49.84" cy="30.7" r="25.14"/>
  <path class="cls-4" d="M30.64,59.62s2.85-3.33,10.57-2.97v-3.42h16.99v3.2s8.67.46,10.93,3.2"/>
  <path class="cls-2" d="M24.95,27.15s26.72-9.12,49.89.85c0,0,.88,10.29-3.39,15.7-4.06,5.13-14.61,1.44-18.83-2.85-3.39-3.45-5.17-1.25-8.2,2.14-3.5,3.92-12.95,7.37-18.01-3.32-1.29-2.72-1.82-6.77-1.45-12.51Z"/>
  <path class="cls-5" d="M52.85,49.36s.24-1.66,3.96-1.35"/>
</svg>