<?xml version="1.0" encoding="UTF-8"?>
<svg xmlns="http://www.w3.org/2000/svg" viewBox="0 0 100 100">
  <defs>
    <style>
      .cls-1 {
        fill: #f8ff99;
      }

      .cls-2 {
        fill: #8affa7;
      }

      .cls-3 {
        fill: #dee0fc;
      }

      .cls-4 {
        fill: #8aff8d;
      }

      .cls-5 {
        fill: #7cd877;
      }

      .cls-6 {
        fill: #eaff3e;
      }

      .cls-7 {
        fill: #fff;
      }

      .cls-8 {
        fill: #ebecf7;
      }

      .cls-9 {
        fill: #2f2bb9;
      }

      .cls-10 {
        fill: #bfff3e;
      }

      .cls-11 {
        fill: #e3e548;
      }

      .cls-12 {
        fill: #3141b9;
      }

      .cls-13 {
        fill: #d2d3ff;
      }
    </style>
  </defs>
  <g id="Layer_6" data-name="Layer 6">
    <rect class="cls-9" x=".18" y="-.05" width="100" height="100" rx="6.28" ry="6.28"/>
    <path class="cls-2" d="M100.21,83.74h-51.87s6.1-15.25,24.2-15.25c0,0-.01-19.2,27.68-12.42v27.67Z"/>
    <path class="cls-2" d="M.28,58.33h56.08s.03-19.76-17.58-15.25c0,0-7.21-16.38-21.16-5.65,0,0-5.05-17.51-17.41-11.86"/>
    <circle class="cls-10" cx="74.97" cy="28.96" r="17.51"/>
    <ellipse class="cls-9" cx="84.96" cy="29.1" rx="14.15" ry="15.6"/>
  </g>
  <g id="Layer_12" data-name="Layer 12">
    <rect class="cls-12" x="-.21" y=".05" width="100" height="100" rx="6.28" ry="6.28"/>
    <circle class="cls-1" cx="74.62" cy="29.05" r="17.51"/>
    <ellipse class="cls-6" cx="76.8" cy="29.39" rx="17.19" ry="17.51" transform="translate(19.76 88.62) rotate(-67.02)"/>
    <ellipse class="cls-11" cx="79.12" cy="29.25" rx="16.39" ry="12.16" transform="translate(44.65 106.24) rotate(-86.17)"/>
    <path class="cls-5" d="M98.71,85.05h-54.9s6.46-15.72,25.61-15.72c0,0-.01-19.8,29.29-12.81v28.53Z"/>
    <path class="cls-5" d="M4,59.92h56.08s.03-19.76-17.58-15.25c0,0-7.21-16.38-21.16-5.65,0,0-5.05-17.51-17.41-11.86"/>
    <ellipse class="cls-12" cx="84.57" cy="29.19" rx="14.15" ry="15.6"/>
    <circle class="cls-11" cx="65.61" cy="17.16" r="1.15"/>
    <circle class="cls-11" cx="63.77" cy="27.5" r="1.15"/>
    <circle class="cls-11" cx="60.08" cy="22.41" r=".43"/>
    <circle class="cls-11" cx="69.03" cy="44.34" r=".43"/>
    <circle class="cls-11" cx="62.6" cy="34.27" r=".43"/>
    <circle class="cls-11" cx="67.07" cy="20.8" r=".43"/>
    <circle class="cls-11" cx="71.52" cy="13.59" r=".43"/>
    <circle class="cls-11" cx="58.74" cy="29.6" r=".43"/>
    <circle class="cls-11" cx="65.39" cy="39.4" r="1.15"/>
    <path class="cls-4" d="M-.11,59.92h56.08s.03-19.76-17.58-15.25c0,0-7.21-16.38-21.16-5.65,0,0-5.05-17.51-17.41-11.86"/>
    <path class="cls-4" d="M99.82,85.05h-51.87s6.1-15.72,24.2-15.72c0,0-.01-19.8,27.68-12.81v28.53Z"/>
    <polygon class="cls-13" points="12.56 9.75 11.44 9.6 12.11 10.51 11.05 10.13 11.52 11.15 10.56 10.56 10.81 11.66 9.99 10.89 10.01 12.01 9.37 11.08 9.15 12.19 8.72 11.15 8.27 12.18 8.07 11.07 7.42 12 7.45 10.87 6.62 11.63 6.88 10.54 5.91 11.11 6.4 10.09 5.33 10.46 6.02 9.56 4.9 9.69 5.76 8.96 4.63 8.86 5.63 8.32 4.55 7.99 5.63 7.67 4.65 7.12 5.77 7.03 4.92 6.28 6.04 6.43 5.37 5.53 6.43 5.91 5.96 4.88 6.92 5.47 6.67 4.37 7.49 5.15 7.48 4.02 8.11 4.95 8.33 3.85 8.76 4.89 9.21 3.85 9.41 4.96 10.07 4.04 10.04 5.17 10.86 4.4 10.6 5.5 11.57 4.92 11.08 5.94 12.15 5.58 11.46 6.47 12.58 6.34 11.72 7.07 12.85 7.18 11.86 7.71 12.93 8.05 11.85 8.37 12.83 8.92 11.71 9.01 12.56 9.75"/>
    <polygon class="cls-13" points="37.38 24.15 36.26 24 36.93 24.9 35.87 24.52 36.34 25.55 35.38 24.96 35.63 26.06 34.81 25.28 34.83 26.41 34.19 25.48 33.97 26.58 33.54 25.54 33.09 26.58 32.89 25.47 32.24 26.39 32.27 25.26 31.44 26.03 31.7 24.93 30.73 25.51 31.22 24.49 30.15 24.85 30.84 23.96 29.72 24.09 30.58 23.36 29.45 23.25 30.45 22.71 29.37 22.38 30.45 22.06 29.47 21.51 30.59 21.42 29.74 20.68 30.86 20.83 30.19 19.92 31.25 20.3 30.78 19.28 31.74 19.87 31.49 18.77 32.31 19.54 32.3 18.41 32.93 19.35 33.15 18.24 33.58 19.28 34.03 18.25 34.23 19.36 34.89 18.43 34.85 19.56 35.68 18.8 35.42 19.89 36.39 19.32 35.9 20.34 36.97 19.97 36.28 20.87 37.4 20.74 36.54 21.47 37.67 21.57 36.67 22.11 37.75 22.44 36.67 22.76 37.65 23.31 36.53 23.4 37.38 24.15"/>
    <polygon class="cls-13" points="56.42 8.37 55.3 8.22 55.98 9.13 54.91 8.75 55.39 9.77 54.42 9.18 54.67 10.28 53.86 9.51 53.87 10.63 53.23 9.7 53.01 10.81 52.58 9.77 52.13 10.8 51.93 9.69 51.28 10.62 51.31 9.49 50.48 10.25 50.75 9.16 49.78 9.73 50.26 8.71 49.19 9.08 49.88 8.18 48.76 8.31 49.62 7.58 48.5 7.48 49.49 6.94 48.41 6.61 49.49 6.29 48.51 5.74 49.64 5.65 48.79 4.9 49.91 5.05 49.23 4.15 50.29 4.53 49.82 3.5 50.78 4.09 50.54 2.99 51.35 3.77 51.34 2.64 51.98 3.57 52.2 2.47 52.63 3.51 53.07 2.47 53.28 3.58 53.93 2.66 53.9 3.79 54.73 3.02 54.46 4.12 55.43 3.54 54.95 4.56 56.01 4.2 55.33 5.09 56.45 4.96 55.59 5.69 56.71 5.8 55.72 6.33 56.8 6.67 55.71 6.99 56.7 7.54 55.57 7.63 56.42 8.37"/>
    <polygon class="cls-13" points="92.57 27.78 91.46 27.63 92.13 28.54 91.07 28.16 91.54 29.19 90.58 28.59 90.83 29.7 90.01 28.92 90.02 30.05 89.39 29.11 89.16 30.22 88.73 29.18 88.29 30.21 88.08 29.1 87.43 30.03 87.46 28.9 86.63 29.66 86.9 28.57 85.93 29.14 86.42 28.13 85.35 28.49 86.04 27.59 84.92 27.73 85.77 26.99 84.65 26.89 85.64 26.35 84.57 26.02 85.65 25.7 84.66 25.15 85.79 25.06 84.94 24.32 86.06 24.46 85.39 23.56 86.45 23.94 85.98 22.91 86.94 23.5 86.69 22.4 87.51 23.18 87.49 22.05 88.13 22.98 88.35 21.88 88.78 22.92 89.23 21.88 89.43 22.99 90.08 22.07 90.05 23.2 90.88 22.43 90.62 23.53 91.59 22.96 91.1 23.97 92.17 23.61 91.48 24.51 92.6 24.37 91.74 25.1 92.86 25.21 91.87 25.75 92.95 26.08 91.87 26.4 92.85 26.95 91.73 27.04 92.57 27.78"/>
    <polygon class="cls-13" points="39.49 74.83 38.38 74.68 39.05 75.59 37.99 75.21 38.46 76.24 37.5 75.64 37.75 76.74 36.93 75.97 36.94 77.1 36.31 76.16 36.08 77.27 35.65 76.23 35.21 77.26 35 76.15 34.35 77.08 34.38 75.95 33.55 76.71 33.82 75.62 32.85 76.19 33.34 75.18 32.27 75.54 32.96 74.64 31.84 74.78 32.69 74.04 31.57 73.94 32.56 73.4 31.49 73.07 32.57 72.75 31.58 72.2 32.71 72.11 31.86 71.37 32.98 71.51 32.31 70.61 33.37 70.99 32.9 69.96 33.86 70.55 33.61 69.45 34.43 70.23 34.41 69.1 35.05 70.03 35.27 68.93 35.7 69.97 36.15 68.93 36.35 70.04 37 69.12 36.97 70.25 37.8 69.48 37.54 70.58 38.51 70 38.02 71.02 39.09 70.66 38.4 71.55 39.52 71.42 38.66 72.15 39.78 72.26 38.79 72.8 39.87 73.13 38.79 73.45 39.77 74 38.65 74.09 39.49 74.83"/>
    <polygon class="cls-13" points="27.03 93.54 25.91 93.39 26.59 94.3 25.53 93.92 26 94.94 25.04 94.35 25.28 95.45 24.47 94.67 24.48 95.8 23.84 94.87 23.62 95.98 23.19 94.94 22.75 95.97 22.54 94.86 21.89 95.78 21.92 94.66 21.09 95.42 21.36 94.32 20.39 94.9 20.88 93.88 19.81 94.24 20.49 93.35 19.37 93.48 20.23 92.75 19.11 92.65 20.1 92.11 19.02 91.77 20.11 91.46 19.12 90.9 20.25 90.82 19.4 90.07 20.52 90.22 19.84 89.32 20.91 89.7 20.43 88.67 21.4 89.26 21.15 88.16 21.97 88.94 21.95 87.81 22.59 88.74 22.81 87.63 23.24 88.68 23.69 87.64 23.89 88.75 24.54 87.83 24.51 88.96 25.34 88.19 25.07 89.29 26.04 88.71 25.56 89.73 26.63 89.37 25.94 90.26 27.06 90.13 26.2 90.86 27.32 90.97 26.33 91.5 27.41 91.84 26.33 92.16 27.31 92.71 26.18 92.8 27.03 93.54"/>
    <polygon class="cls-13" points="12.56 75.51 11.44 75.36 12.11 76.27 11.05 75.89 11.52 76.92 10.56 76.32 10.81 77.43 9.99 76.65 10.01 77.78 9.37 76.84 9.15 77.95 8.72 76.91 8.27 77.94 8.07 76.83 7.42 77.76 7.45 76.63 6.62 77.39 6.88 76.3 5.91 76.87 6.4 75.86 5.33 76.22 6.02 75.32 4.9 75.46 5.76 74.72 4.63 74.62 5.63 74.08 4.55 73.75 5.63 73.43 4.65 72.88 5.77 72.79 4.92 72.05 6.04 72.19 5.37 71.29 6.43 71.67 5.96 70.64 6.92 71.23 6.67 70.13 7.49 70.91 7.48 69.78 8.11 70.71 8.33 69.61 8.76 70.65 9.21 69.61 9.41 70.72 10.07 69.8 10.04 70.93 10.86 70.16 10.6 71.26 11.57 70.69 11.08 71.7 12.15 71.34 11.46 72.24 12.58 72.1 11.72 72.83 12.85 72.94 11.86 73.48 12.93 73.81 11.85 74.13 12.83 74.68 11.71 74.77 12.56 75.51"/>
    <polygon class="cls-13" points="84.19 93.54 83.07 93.39 83.75 94.3 82.68 93.92 83.16 94.94 82.19 94.35 82.44 95.45 81.63 94.67 81.64 95.8 81 94.87 80.78 95.98 80.35 94.94 79.9 95.97 79.7 94.86 79.05 95.78 79.08 94.66 78.25 95.42 78.52 94.32 77.55 94.9 78.03 93.88 76.96 94.24 77.65 93.35 76.53 93.48 77.39 92.75 76.27 92.65 77.26 92.11 76.18 91.77 77.27 91.46 76.28 90.9 77.41 90.82 76.56 90.07 77.68 90.22 77 89.32 78.06 89.7 77.59 88.67 78.55 89.26 78.31 88.16 79.12 88.94 79.11 87.81 79.75 88.74 79.97 87.63 80.4 88.68 80.84 87.64 81.05 88.75 81.7 87.83 81.67 88.96 82.5 88.19 82.23 89.29 83.2 88.71 82.72 89.73 83.78 89.37 83.1 90.26 84.22 90.13 83.36 90.86 84.48 90.97 83.49 91.5 84.57 91.84 83.48 92.16 84.47 92.71 83.34 92.8 84.19 93.54"/>
    <polygon class="cls-3" points="55.37 7.89 54.57 7.78 55.05 8.43 54.29 8.16 54.63 8.89 53.93 8.47 54.11 9.26 53.52 8.7 53.53 9.51 53.08 8.84 52.92 9.64 52.61 8.89 52.29 9.64 52.14 8.84 51.67 9.5 51.69 8.69 51.1 9.24 51.29 8.45 50.59 8.86 50.94 8.13 50.17 8.39 50.67 7.75 49.86 7.84 50.48 7.32 49.67 7.24 50.38 6.86 49.61 6.62 50.39 6.39 49.68 5.99 50.49 5.93 49.88 5.39 50.68 5.5 50.2 4.85 50.96 5.12 50.62 4.38 51.32 4.81 51.14 4.02 51.72 4.58 51.71 3.76 52.17 4.43 52.33 3.64 52.64 4.39 52.96 3.64 53.11 4.44 53.58 3.78 53.56 4.59 54.15 4.04 53.96 4.83 54.66 4.41 54.31 5.14 55.08 4.88 54.58 5.53 55.39 5.43 54.77 5.96 55.58 6.03 54.86 6.42 55.64 6.66 54.86 6.89 55.57 7.29 54.76 7.35 55.37 7.89"/>
    <polygon class="cls-8" points="54.19 7.35 53.73 7.29 54.01 7.66 53.56 7.51 53.76 7.93 53.36 7.69 53.46 8.14 53.12 7.82 53.13 8.29 52.87 7.9 52.77 8.36 52.59 7.93 52.41 8.36 52.32 7.9 52.05 8.28 52.07 7.81 51.72 8.13 51.83 7.68 51.43 7.91 51.63 7.49 51.19 7.64 51.47 7.27 51.01 7.33 51.36 7.02 50.9 6.98 51.31 6.76 50.86 6.62 51.31 6.48 50.9 6.25 51.37 6.22 51.02 5.91 51.48 5.97 51.2 5.59 51.64 5.75 51.45 5.33 51.85 5.57 51.74 5.11 52.08 5.44 52.08 4.97 52.34 5.36 52.44 4.9 52.61 5.33 52.8 4.9 52.88 5.36 53.15 4.98 53.14 5.45 53.49 5.13 53.38 5.58 53.78 5.34 53.58 5.77 54.02 5.62 53.74 5.99 54.2 5.93 53.84 6.24 54.31 6.28 53.9 6.5 54.35 6.64 53.9 6.77 54.31 7 53.84 7.04 54.19 7.35"/>
    <polygon class="cls-7" points="53.82 7.09 53.46 7.05 53.68 7.34 53.33 7.22 53.49 7.55 53.18 7.36 53.26 7.71 52.99 7.46 53 7.82 52.79 7.52 52.72 7.88 52.58 7.54 52.44 7.88 52.37 7.52 52.16 7.82 52.17 7.45 51.9 7.7 51.99 7.35 51.67 7.53 51.83 7.2 51.49 7.32 51.71 7.03 51.35 7.07 51.62 6.84 51.26 6.8 51.58 6.63 51.23 6.52 51.58 6.42 51.27 6.24 51.63 6.21 51.35 5.97 51.72 6.02 51.5 5.73 51.84 5.85 51.69 5.52 52 5.71 51.92 5.36 52.18 5.61 52.18 5.24 52.38 5.54 52.46 5.19 52.59 5.52 52.74 5.19 52.8 5.55 53.02 5.25 53.01 5.61 53.27 5.37 53.19 5.72 53.5 5.53 53.34 5.86 53.69 5.75 53.47 6.03 53.83 5.99 53.55 6.23 53.91 6.26 53.59 6.44 53.94 6.54 53.59 6.65 53.91 6.82 53.55 6.85 53.82 7.09"/>
    <polygon class="cls-13" points="37.38 24.15 36.26 24 36.93 24.9 35.87 24.52 36.34 25.55 35.38 24.96 35.63 26.06 34.81 25.28 34.83 26.41 34.19 25.48 33.97 26.58 33.54 25.54 33.09 26.58 32.89 25.47 32.24 26.39 32.27 25.26 31.44 26.03 31.7 24.93 30.73 25.51 31.22 24.49 30.15 24.85 30.84 23.96 29.72 24.09 30.58 23.36 29.45 23.25 30.45 22.71 29.37 22.38 30.45 22.06 29.47 21.51 30.59 21.42 29.74 20.68 30.86 20.83 30.19 19.92 31.25 20.3 30.78 19.28 31.74 19.87 31.49 18.77 32.31 19.54 32.3 18.41 32.93 19.35 33.15 18.24 33.58 19.28 34.03 18.25 34.23 19.36 34.89 18.43 34.85 19.56 35.68 18.8 35.42 19.89 36.39 19.32 35.9 20.34 36.97 19.97 36.28 20.87 37.4 20.74 36.54 21.47 37.67 21.57 36.67 22.11 37.75 22.44 36.67 22.76 37.65 23.31 36.53 23.4 37.38 24.15"/>
    <polygon class="cls-3" points="36.33 23.66 35.52 23.55 36.01 24.2 35.24 23.93 35.58 24.67 34.89 24.24 35.07 25.03 34.48 24.47 34.49 25.29 34.03 24.62 33.87 25.41 33.56 24.66 33.24 25.41 33.1 24.61 32.63 25.27 32.65 24.46 32.05 25.01 32.24 24.22 31.55 24.64 31.9 23.9 31.13 24.17 31.62 23.52 30.82 23.62 31.43 23.09 30.63 23.02 31.34 22.63 30.57 22.39 31.34 22.16 30.64 21.76 31.45 21.7 30.84 21.16 31.64 21.27 31.15 20.62 31.92 20.89 31.58 20.16 32.27 20.58 32.09 19.79 32.68 20.35 32.67 19.54 33.13 20.21 33.29 19.41 33.6 20.16 33.92 19.41 34.07 20.21 34.53 19.55 34.51 20.36 35.11 19.81 34.92 20.6 35.62 20.19 35.26 20.92 36.03 20.66 35.54 21.3 36.34 21.21 35.73 21.73 36.53 21.81 35.82 22.19 36.6 22.43 35.82 22.66 36.53 23.06 35.72 23.12 36.33 23.66"/>
    <polygon class="cls-8" points="35.15 23.12 34.68 23.06 34.96 23.44 34.52 23.28 34.72 23.71 34.32 23.46 34.42 23.92 34.08 23.59 34.09 24.06 33.82 23.68 33.73 24.14 33.55 23.7 33.37 24.13 33.28 23.67 33.01 24.05 33.02 23.59 32.68 23.9 32.79 23.45 32.39 23.69 32.59 23.26 32.14 23.42 32.43 23.04 31.96 23.1 32.32 22.79 31.85 22.75 32.27 22.53 31.82 22.39 32.27 22.26 31.86 22.03 32.33 21.99 31.97 21.68 32.44 21.74 32.16 21.37 32.6 21.52 32.4 21.1 32.8 21.34 32.7 20.89 33.04 21.21 33.03 20.74 33.3 21.13 33.39 20.67 33.57 21.1 33.76 20.67 33.84 21.13 34.11 20.75 34.1 21.22 34.44 20.9 34.33 21.36 34.74 21.12 34.53 21.54 34.98 21.39 34.69 21.76 35.16 21.71 34.8 22.01 35.27 22.05 34.85 22.28 35.3 22.42 34.85 22.55 35.26 22.78 34.79 22.81 35.15 23.12"/>
    <polygon class="cls-7" points="34.78 22.87 34.41 22.82 34.63 23.11 34.29 22.99 34.44 23.32 34.13 23.13 34.21 23.48 33.95 23.23 33.95 23.6 33.75 23.3 33.67 23.65 33.54 23.32 33.39 23.65 33.33 23.29 33.12 23.59 33.13 23.23 32.86 23.47 32.94 23.12 32.63 23.31 32.79 22.98 32.44 23.09 32.66 22.8 32.3 22.85 32.58 22.61 32.22 22.58 32.54 22.4 32.19 22.3 32.54 22.19 32.22 22.01 32.58 21.99 32.31 21.75 32.67 21.79 32.45 21.5 32.8 21.62 32.65 21.29 32.96 21.48 32.88 21.13 33.14 21.38 33.13 21.02 33.34 21.32 33.41 20.96 33.55 21.3 33.7 20.96 33.76 21.32 33.97 21.02 33.96 21.39 34.23 21.14 34.14 21.49 34.46 21.31 34.3 21.64 34.64 21.52 34.42 21.81 34.78 21.76 34.51 22 34.87 22.03 34.55 22.21 34.9 22.32 34.55 22.42 34.87 22.6 34.5 22.63 34.78 22.87"/>
    <polygon class="cls-13" points="12.47 9.43 11.35 9.28 12.03 10.18 10.96 9.81 11.43 10.83 10.47 10.24 10.72 11.34 9.9 10.56 9.92 11.69 9.28 10.76 9.06 11.87 8.63 10.82 8.18 11.86 7.98 10.75 7.33 11.67 7.36 10.54 6.53 11.31 6.8 10.21 5.83 10.79 6.31 9.77 5.24 10.13 5.93 9.24 4.81 9.37 5.67 8.64 4.55 8.54 5.54 8 4.46 7.66 5.54 7.34 4.56 6.79 5.69 6.71 4.84 5.96 5.96 6.11 5.28 5.21 6.34 5.58 5.87 4.56 6.83 5.15 6.58 4.05 7.4 4.83 7.39 3.7 8.03 4.63 8.25 3.52 8.68 4.57 9.12 3.53 9.33 4.64 9.98 3.72 9.95 4.85 10.78 4.08 10.51 5.18 11.48 4.6 10.99 5.62 12.06 5.26 11.38 6.15 12.5 6.02 11.64 6.75 12.76 6.85 11.77 7.39 12.85 7.73 11.76 8.05 12.75 8.6 11.62 8.68 12.47 9.43"/>
    <polygon class="cls-3" points="11.42 8.94 10.61 8.84 11.1 9.49 10.34 9.21 10.67 9.95 9.98 9.53 10.16 10.32 9.57 9.76 9.58 10.57 9.13 9.9 8.97 10.7 8.66 9.95 8.34 10.69 8.19 9.89 7.72 10.56 7.74 9.74 7.15 10.3 7.34 9.51 6.64 9.92 6.99 9.19 6.22 9.45 6.72 8.81 5.91 8.9 6.53 8.37 5.72 8.3 6.43 7.91 5.66 7.67 6.44 7.44 5.73 7.05 6.54 6.98 5.93 6.45 6.73 6.55 6.25 5.9 7.01 6.18 6.67 5.44 7.36 5.86 7.19 5.07 7.77 5.63 7.76 4.82 8.22 5.49 8.38 4.69 8.69 5.44 9.01 4.7 9.16 5.5 9.63 4.83 9.6 5.65 10.2 5.09 10.01 5.88 10.71 5.47 10.36 6.2 11.13 5.94 10.63 6.58 11.44 6.49 10.82 7.02 11.63 7.09 10.91 7.48 11.69 7.72 10.91 7.95 11.62 8.34 10.81 8.41 11.42 8.94"/>
    <polygon class="cls-8" points="10.24 8.41 9.77 8.34 10.05 8.72 9.61 8.56 9.81 8.99 9.41 8.74 9.51 9.2 9.17 8.88 9.18 9.35 8.91 8.96 8.82 9.42 8.64 8.99 8.46 9.42 8.37 8.96 8.1 9.34 8.12 8.87 7.77 9.19 7.88 8.73 7.48 8.97 7.68 8.55 7.24 8.7 7.52 8.33 7.06 8.38 7.41 8.08 6.95 8.04 7.36 7.81 6.91 7.67 7.36 7.54 6.95 7.31 7.42 7.27 7.07 6.97 7.53 7.03 7.25 6.65 7.69 6.81 7.5 6.38 7.9 6.63 7.79 6.17 8.13 6.49 8.13 6.03 8.39 6.41 8.48 5.95 8.66 6.39 8.85 5.96 8.93 6.42 9.2 6.03 9.19 6.5 9.54 6.18 9.43 6.64 9.83 6.4 9.63 6.82 10.07 6.67 9.78 7.04 10.25 6.99 9.89 7.29 10.36 7.34 9.95 7.56 10.4 7.7 9.95 7.83 10.35 8.06 9.89 8.1 10.24 8.41"/>
    <polygon class="cls-7" points="9.87 8.15 9.51 8.1 9.73 8.39 9.38 8.27 9.53 8.6 9.22 8.41 9.3 8.77 9.04 8.52 9.05 8.88 8.84 8.58 8.77 8.94 8.63 8.6 8.48 8.94 8.42 8.58 8.21 8.87 8.22 8.51 7.95 8.76 8.04 8.4 7.72 8.59 7.88 8.26 7.54 8.38 7.76 8.09 7.4 8.13 7.67 7.89 7.31 7.86 7.63 7.69 7.28 7.58 7.63 7.48 7.31 7.3 7.68 7.27 7.4 7.03 7.77 7.08 7.55 6.79 7.89 6.91 7.74 6.58 8.05 6.77 7.97 6.41 8.23 6.66 8.23 6.3 8.43 6.6 8.51 6.24 8.64 6.58 8.79 6.24 8.85 6.6 9.06 6.31 9.05 6.67 9.32 6.42 9.24 6.78 9.55 6.59 9.39 6.92 9.74 6.8 9.52 7.09 9.88 7.05 9.6 7.28 9.96 7.32 9.64 7.49 9.99 7.6 9.64 7.7 9.96 7.88 9.6 7.91 9.87 8.15"/>
    <polygon class="cls-13" points="92.57 27.78 91.46 27.63 92.13 28.54 91.07 28.16 91.54 29.19 90.58 28.59 90.83 29.7 90.01 28.92 90.02 30.05 89.39 29.11 89.16 30.22 88.73 29.18 88.29 30.21 88.08 29.1 87.43 30.03 87.46 28.9 86.63 29.66 86.9 28.57 85.93 29.14 86.42 28.13 85.35 28.49 86.04 27.59 84.92 27.73 85.77 26.99 84.65 26.89 85.64 26.35 84.57 26.02 85.65 25.7 84.66 25.15 85.79 25.06 84.94 24.32 86.06 24.46 85.39 23.56 86.45 23.94 85.98 22.91 86.94 23.5 86.69 22.4 87.51 23.18 87.49 22.05 88.13 22.98 88.35 21.88 88.78 22.92 89.23 21.88 89.43 22.99 90.08 22.07 90.05 23.2 90.88 22.43 90.62 23.53 91.59 22.96 91.1 23.97 92.17 23.61 91.48 24.51 92.6 24.37 91.74 25.1 92.86 25.21 91.87 25.75 92.95 26.08 91.87 26.4 92.85 26.95 91.73 27.04 92.57 27.78"/>
    <polygon class="cls-3" points="91.52 27.3 90.72 27.19 91.2 27.84 90.44 27.57 90.78 28.31 90.09 27.88 90.27 28.67 89.68 28.11 89.69 28.92 89.23 28.25 89.07 29.05 88.76 28.3 88.44 29.05 88.29 28.25 87.82 28.91 87.85 28.1 87.25 28.65 87.44 27.86 86.74 28.27 87.09 27.54 86.33 27.8 86.82 27.16 86.01 27.25 86.63 26.73 85.82 26.65 86.54 26.27 85.76 26.03 86.54 25.8 85.83 25.4 86.64 25.34 86.03 24.8 86.84 24.91 86.35 24.26 87.12 24.53 86.78 23.79 87.47 24.22 87.29 23.43 87.88 23.99 87.87 23.17 88.33 23.84 88.49 23.05 88.8 23.8 89.12 23.05 89.26 23.85 89.73 23.19 89.71 24 90.31 23.45 90.11 24.24 90.81 23.82 90.46 24.56 91.23 24.3 90.74 24.94 91.54 24.84 90.92 25.37 91.73 25.44 91.02 25.83 91.79 26.07 91.01 26.3 91.72 26.7 90.91 26.76 91.52 27.3"/>
    <polygon class="cls-8" points="90.34 26.76 89.88 26.7 90.16 27.07 89.72 26.92 89.91 27.34 89.51 27.1 89.62 27.55 89.28 27.23 89.28 27.7 89.02 27.31 88.93 27.77 88.75 27.34 88.56 27.77 88.48 27.31 88.21 27.69 88.22 27.22 87.88 27.54 87.99 27.09 87.58 27.33 87.79 26.9 87.34 27.05 87.63 26.68 87.16 26.74 87.52 26.43 87.05 26.39 87.46 26.17 87.02 26.03 87.47 25.89 87.06 25.66 87.52 25.63 87.17 25.32 87.64 25.38 87.36 25.01 87.8 25.16 87.6 24.74 88 24.98 87.9 24.53 88.24 24.85 88.23 24.38 88.5 24.77 88.59 24.31 88.77 24.74 88.95 24.31 89.04 24.77 89.31 24.39 89.3 24.86 89.64 24.54 89.53 24.99 89.93 24.75 89.73 25.18 90.17 25.03 89.89 25.4 90.35 25.34 90 25.65 90.46 25.69 90.05 25.91 90.5 26.05 90.05 26.19 90.46 26.41 89.99 26.45 90.34 26.76"/>
    <polygon class="cls-7" points="89.97 26.5 89.61 26.46 89.83 26.75 89.49 26.63 89.64 26.96 89.33 26.77 89.41 27.12 89.15 26.87 89.15 27.23 88.94 26.93 88.87 27.29 88.73 26.95 88.59 27.29 88.52 26.93 88.31 27.23 88.32 26.86 88.06 27.11 88.14 26.76 87.83 26.94 87.98 26.61 87.64 26.73 87.86 26.44 87.5 26.49 87.78 26.25 87.41 26.22 87.74 26.04 87.39 25.93 87.74 25.83 87.42 25.65 87.78 25.62 87.51 25.38 87.87 25.43 87.65 25.14 87.99 25.26 87.84 24.93 88.15 25.12 88.07 24.77 88.34 25.02 88.33 24.65 88.54 24.95 88.61 24.6 88.75 24.93 88.89 24.6 88.96 24.96 89.17 24.66 89.16 25.02 89.43 24.78 89.34 25.13 89.65 24.94 89.5 25.27 89.84 25.16 89.62 25.45 89.98 25.4 89.7 25.64 90.07 25.67 89.75 25.85 90.09 25.95 89.75 26.06 90.06 26.24 89.7 26.26 89.97 26.5"/>
    <polygon class="cls-13" points="12.21 75.43 11.09 75.28 11.76 76.19 10.7 75.81 11.17 76.83 10.21 76.24 10.46 77.34 9.64 76.56 9.66 77.69 9.02 76.76 8.8 77.87 8.37 76.83 7.92 77.86 7.72 76.75 7.06 77.67 7.1 76.55 6.27 77.31 6.53 76.21 5.56 76.79 6.05 75.77 4.98 76.13 5.67 75.24 4.55 75.37 5.41 74.64 4.28 74.54 5.28 74 4.2 73.66 5.28 73.35 4.3 72.79 5.42 72.71 4.57 71.96 5.69 72.11 5.02 71.21 6.08 71.59 5.61 70.56 6.57 71.15 6.32 70.05 7.14 70.83 7.12 69.7 7.76 70.63 7.98 69.52 8.41 70.57 8.86 69.53 9.06 70.64 9.72 69.72 9.68 70.85 10.51 70.08 10.25 71.18 11.22 70.6 10.73 71.62 11.8 71.26 11.11 72.15 12.23 72.02 11.37 72.75 12.5 72.86 11.5 73.39 12.58 73.73 11.5 74.05 12.48 74.6 11.36 74.69 12.21 75.43"/>
    <polygon class="cls-3" points="11.16 74.94 10.35 74.84 10.84 75.49 10.07 75.22 10.41 75.95 9.72 75.53 9.9 76.32 9.31 75.76 9.32 76.57 8.86 75.9 8.7 76.7 8.39 75.95 8.07 76.69 7.93 75.89 7.46 76.56 7.48 75.75 6.88 76.3 7.07 75.51 6.38 75.92 6.73 75.19 5.96 75.45 6.45 74.81 5.65 74.9 6.26 74.38 5.46 74.3 6.17 73.91 5.39 73.67 6.17 73.44 5.47 73.05 6.27 72.98 5.66 72.45 6.47 72.56 5.98 71.91 6.75 72.18 6.41 71.44 7.1 71.87 6.92 71.07 7.51 71.63 7.5 70.82 7.96 71.49 8.12 70.7 8.43 71.45 8.75 70.7 8.89 71.5 9.36 70.84 9.34 71.65 9.94 71.1 9.75 71.89 10.44 71.47 10.09 72.2 10.86 71.94 10.37 72.59 11.17 72.49 10.56 73.02 11.36 73.09 10.65 73.48 11.43 73.72 10.65 73.95 11.36 74.35 10.55 74.41 11.16 74.94"/>
    <polygon class="cls-8" points="9.98 74.41 9.51 74.35 9.79 74.72 9.35 74.56 9.55 74.99 9.15 74.74 9.25 75.2 8.91 74.88 8.92 75.35 8.65 74.96 8.56 75.42 8.38 74.99 8.2 75.42 8.11 74.96 7.84 75.34 7.85 74.87 7.51 75.19 7.62 74.73 7.21 74.97 7.42 74.55 6.97 74.7 7.26 74.33 6.79 74.38 7.15 74.08 6.68 74.04 7.1 73.81 6.65 73.67 7.1 73.54 6.69 73.31 7.16 73.28 6.8 72.97 7.27 73.03 6.99 72.65 7.43 72.81 7.23 72.38 7.63 72.63 7.53 72.17 7.87 72.5 7.86 72.03 8.13 72.41 8.22 71.95 8.4 72.39 8.59 71.96 8.67 72.42 8.94 72.03 8.93 72.5 9.27 72.19 9.16 72.64 9.57 72.4 9.36 72.82 9.81 72.67 9.52 73.05 9.99 72.99 9.63 73.29 10.1 73.34 9.68 73.56 10.13 73.7 9.68 73.83 10.09 74.06 9.62 74.1 9.98 74.41"/>
    <polygon class="cls-7" points="9.61 74.15 9.24 74.1 9.46 74.4 9.12 74.27 9.27 74.6 8.96 74.41 9.04 74.77 8.78 74.52 8.78 74.88 8.58 74.58 8.5 74.94 8.37 74.6 8.22 74.94 8.16 74.58 7.95 74.88 7.96 74.51 7.69 74.76 7.77 74.4 7.46 74.59 7.62 74.26 7.27 74.38 7.49 74.09 7.13 74.13 7.41 73.9 7.05 73.86 7.37 73.69 7.02 73.58 7.37 73.48 7.05 73.3 7.41 73.27 7.14 73.03 7.5 73.08 7.28 72.79 7.63 72.91 7.47 72.58 7.79 72.77 7.71 72.41 7.97 72.66 7.96 72.3 8.17 72.6 8.24 72.24 8.38 72.58 8.52 72.25 8.59 72.6 8.8 72.31 8.79 72.67 9.06 72.42 8.97 72.78 9.29 72.59 9.13 72.92 9.47 72.8 9.25 73.09 9.61 73.05 9.34 73.29 9.7 73.32 9.38 73.49 9.73 73.6 9.38 73.7 9.7 73.88 9.33 73.91 9.61 74.15"/>
    <polygon class="cls-13" points="39.49 74.83 38.38 74.68 39.05 75.59 37.99 75.21 38.46 76.24 37.5 75.64 37.75 76.74 36.93 75.97 36.94 77.1 36.31 76.16 36.08 77.27 35.65 76.23 35.21 77.26 35 76.15 34.35 77.08 34.38 75.95 33.55 76.71 33.82 75.62 32.85 76.19 33.34 75.18 32.27 75.54 32.96 74.64 31.84 74.78 32.69 74.04 31.57 73.94 32.56 73.4 31.49 73.07 32.57 72.75 31.58 72.2 32.71 72.11 31.86 71.37 32.98 71.51 32.31 70.61 33.37 70.99 32.9 69.96 33.86 70.55 33.61 69.45 34.43 70.23 34.41 69.1 35.05 70.03 35.27 68.93 35.7 69.97 36.15 68.93 36.35 70.04 37 69.12 36.97 70.25 37.8 69.48 37.54 70.58 38.51 70 38.02 71.02 39.09 70.66 38.4 71.55 39.52 71.42 38.66 72.15 39.78 72.26 38.79 72.8 39.87 73.13 38.79 73.45 39.77 74 38.65 74.09 39.49 74.83"/>
    <polygon class="cls-3" points="38.44 74.35 37.64 74.24 38.12 74.89 37.36 74.62 37.7 75.36 37.01 74.93 37.19 75.72 36.6 75.16 36.61 75.97 36.15 75.3 35.99 76.1 35.68 75.35 35.36 76.1 35.21 75.3 34.74 75.96 34.77 75.15 34.17 75.7 34.36 74.91 33.66 75.32 34.01 74.59 33.25 74.85 33.74 74.21 32.93 74.3 33.55 73.78 32.74 73.7 33.46 73.32 32.68 73.08 33.46 72.85 32.75 72.45 33.56 72.39 32.95 71.85 33.76 71.96 33.27 71.31 34.04 71.58 33.7 70.84 34.39 71.27 34.21 70.48 34.8 71.04 34.79 70.22 35.25 70.89 35.41 70.1 35.72 70.85 36.04 70.1 36.18 70.9 36.65 70.24 36.63 71.05 37.23 70.5 37.03 71.29 37.73 70.87 37.38 71.61 38.15 71.34 37.66 71.99 38.46 71.89 37.84 72.42 38.65 72.49 37.94 72.88 38.71 73.12 37.93 73.35 38.64 73.75 37.83 73.81 38.44 74.35"/>
    <polygon class="cls-8" points="37.26 73.81 36.8 73.75 37.08 74.12 36.64 73.97 36.83 74.39 36.43 74.15 36.54 74.6 36.2 74.28 36.2 74.75 35.94 74.36 35.85 74.82 35.67 74.39 35.48 74.82 35.4 74.36 35.13 74.74 35.14 74.27 34.8 74.59 34.91 74.14 34.5 74.38 34.71 73.95 34.26 74.1 34.55 73.73 34.08 73.79 34.44 73.48 33.97 73.44 34.38 73.22 33.94 73.08 34.39 72.94 33.98 72.71 34.44 72.68 34.09 72.37 34.56 72.43 34.28 72.06 34.72 72.21 34.52 71.79 34.92 72.03 34.82 71.57 35.16 71.9 35.15 71.43 35.42 71.82 35.51 71.36 35.69 71.79 35.87 71.36 35.96 71.82 36.23 71.44 36.22 71.91 36.56 71.59 36.45 72.04 36.85 71.8 36.65 72.23 37.09 72.08 36.81 72.45 37.27 72.39 36.92 72.7 37.38 72.74 36.97 72.96 37.42 73.1 36.97 73.24 37.38 73.46 36.91 73.5 37.26 73.81"/>
    <polygon class="cls-7" points="36.89 73.55 36.53 73.51 36.75 73.8 36.41 73.68 36.56 74.01 36.25 73.82 36.33 74.17 36.07 73.92 36.07 74.28 35.86 73.98 35.79 74.34 35.65 74 35.51 74.34 35.44 73.98 35.23 74.28 35.24 73.91 34.98 74.16 35.06 73.81 34.75 73.99 34.9 73.66 34.56 73.78 34.78 73.49 34.42 73.54 34.7 73.3 34.33 73.27 34.66 73.09 34.31 72.98 34.66 72.88 34.34 72.7 34.7 72.67 34.43 72.43 34.79 72.48 34.57 72.19 34.92 72.31 34.76 71.98 35.07 72.17 34.99 71.82 35.26 72.07 35.25 71.7 35.46 72 35.53 71.65 35.67 71.98 35.81 71.65 35.88 72.01 36.09 71.71 36.08 72.07 36.35 71.83 36.26 72.18 36.57 71.99 36.42 72.32 36.76 72.21 36.54 72.49 36.9 72.45 36.62 72.69 36.99 72.72 36.67 72.9 37.01 73 36.67 73.11 36.98 73.29 36.62 73.31 36.89 73.55"/>
    <polygon class="cls-13" points="27.03 93.54 25.91 93.39 26.59 94.3 25.53 93.92 26 94.94 25.04 94.35 25.28 95.45 24.47 94.67 24.48 95.8 23.84 94.87 23.62 95.98 23.19 94.94 22.75 95.97 22.54 94.86 21.89 95.78 21.92 94.66 21.09 95.42 21.36 94.32 20.39 94.9 20.88 93.88 19.81 94.24 20.49 93.35 19.37 93.48 20.23 92.75 19.11 92.65 20.1 92.11 19.02 91.77 20.11 91.46 19.12 90.9 20.25 90.82 19.4 90.07 20.52 90.22 19.84 89.32 20.91 89.7 20.43 88.67 21.4 89.26 21.15 88.16 21.97 88.94 21.95 87.81 22.59 88.74 22.81 87.63 23.24 88.68 23.69 87.64 23.89 88.75 24.54 87.83 24.51 88.96 25.34 88.19 25.07 89.29 26.04 88.71 25.56 89.73 26.63 89.37 25.94 90.26 27.06 90.13 26.2 90.86 27.32 90.97 26.33 91.5 27.41 91.84 26.33 92.16 27.31 92.71 26.18 92.8 27.03 93.54"/>
    <polygon class="cls-3" points="25.98 93.05 25.18 92.95 25.66 93.6 24.9 93.32 25.24 94.06 24.55 93.64 24.72 94.43 24.14 93.87 24.15 94.68 23.69 94.01 23.53 94.81 23.22 94.06 22.9 94.8 22.75 94 22.28 94.67 22.31 93.86 21.71 94.41 21.9 93.62 21.2 94.03 21.55 93.3 20.78 93.56 21.28 92.92 20.47 93.01 21.09 92.49 20.28 92.41 21 92.02 20.22 91.78 21 91.55 20.29 91.16 21.1 91.09 20.49 90.56 21.3 90.67 20.81 90.02 21.58 90.29 21.24 89.55 21.93 89.98 21.75 89.18 22.34 89.74 22.33 88.93 22.78 89.6 22.94 88.8 23.25 89.56 23.57 88.81 23.72 89.61 24.19 88.95 24.17 89.76 24.76 89.21 24.57 90 25.27 89.58 24.92 90.31 25.69 90.05 25.19 90.7 26 90.6 25.38 91.13 26.19 91.2 25.48 91.59 26.25 91.83 25.47 92.06 26.18 92.46 25.37 92.52 25.98 93.05"/>
    <polygon class="cls-8" points="24.8 92.52 24.34 92.46 24.62 92.83 24.18 92.67 24.37 93.1 23.97 92.85 24.08 93.31 23.74 92.99 23.74 93.46 23.48 93.07 23.39 93.53 23.21 93.1 23.02 93.53 22.94 93.07 22.67 93.45 22.68 92.98 22.33 93.3 22.44 92.84 22.04 93.08 22.24 92.66 21.8 92.81 22.09 92.44 21.62 92.49 21.98 92.19 21.51 92.15 21.92 91.92 21.47 91.78 21.92 91.65 21.52 91.42 21.98 91.39 21.63 91.08 22.1 91.14 21.81 90.76 22.26 90.92 22.06 90.49 22.46 90.74 22.36 90.28 22.7 90.61 22.69 90.14 22.96 90.52 23.05 90.06 23.23 90.5 23.41 90.07 23.5 90.53 23.77 90.14 23.75 90.61 24.1 90.3 23.99 90.75 24.39 90.51 24.19 90.93 24.63 90.78 24.35 91.16 24.81 91.1 24.46 91.4 24.92 91.45 24.51 91.67 24.96 91.81 24.51 91.94 24.92 92.17 24.45 92.21 24.8 92.52"/>
    <polygon class="cls-7" points="24.43 92.26 24.07 92.21 24.29 92.51 23.95 92.38 24.1 92.71 23.79 92.52 23.87 92.88 23.6 92.63 23.61 92.99 23.4 92.69 23.33 93.05 23.19 92.71 23.05 93.05 22.98 92.69 22.77 92.99 22.78 92.62 22.51 92.87 22.6 92.51 22.29 92.7 22.44 92.37 22.1 92.49 22.32 92.2 21.96 92.24 22.24 92.01 21.87 91.97 22.19 91.8 21.85 91.69 22.19 91.59 21.88 91.41 22.24 91.38 21.97 91.14 22.33 91.19 22.11 90.9 22.45 91.02 22.3 90.69 22.61 90.88 22.53 90.52 22.8 90.77 22.79 90.41 23 90.71 23.07 90.35 23.21 90.69 23.35 90.36 23.42 90.71 23.63 90.42 23.62 90.78 23.89 90.53 23.8 90.89 24.11 90.7 23.96 91.03 24.3 90.91 24.08 91.2 24.44 91.16 24.16 91.4 24.53 91.43 24.21 91.6 24.55 91.71 24.2 91.81 24.52 91.99 24.16 92.02 24.43 92.26"/>
    <polygon class="cls-13" points="84.19 93.54 83.07 93.39 83.75 94.3 82.68 93.92 83.16 94.94 82.19 94.35 82.44 95.45 81.63 94.67 81.64 95.8 81 94.87 80.78 95.98 80.35 94.94 79.9 95.97 79.7 94.86 79.05 95.78 79.08 94.66 78.25 95.42 78.52 94.32 77.55 94.9 78.03 93.88 76.96 94.24 77.65 93.35 76.53 93.48 77.39 92.75 76.27 92.65 77.26 92.11 76.18 91.77 77.27 91.46 76.28 90.9 77.41 90.82 76.56 90.07 77.68 90.22 77 89.32 78.06 89.7 77.59 88.67 78.55 89.26 78.31 88.16 79.12 88.94 79.11 87.81 79.75 88.74 79.97 87.63 80.4 88.68 80.84 87.64 81.05 88.75 81.7 87.83 81.67 88.96 82.5 88.19 82.23 89.29 83.2 88.71 82.72 89.73 83.78 89.37 83.1 90.26 84.22 90.13 83.36 90.86 84.48 90.97 83.49 91.5 84.57 91.84 83.48 92.16 84.47 92.71 83.34 92.8 84.19 93.54"/>
    <polygon class="cls-3" points="83.14 93.05 82.34 92.95 82.82 93.6 82.06 93.32 82.4 94.06 81.7 93.64 81.88 94.43 81.29 93.87 81.3 94.68 80.85 94.01 80.69 94.81 80.38 94.06 80.06 94.8 79.91 94 79.44 94.67 79.46 93.86 78.87 94.41 79.06 93.62 78.36 94.03 78.71 93.3 77.94 93.56 78.44 92.92 77.63 93.01 78.25 92.49 77.44 92.41 78.15 92.02 77.38 91.78 78.16 91.55 77.45 91.16 78.26 91.09 77.65 90.56 78.45 90.67 77.97 90.02 78.73 90.29 78.39 89.55 79.09 89.98 78.91 89.18 79.49 89.74 79.48 88.93 79.94 89.6 80.1 88.8 80.41 89.56 80.73 88.81 80.88 89.61 81.35 88.95 81.33 89.76 81.92 89.21 81.73 90 82.43 89.58 82.08 90.31 82.85 90.05 82.35 90.7 83.16 90.6 82.54 91.13 83.35 91.2 82.63 91.59 83.41 91.83 82.63 92.06 83.34 92.46 82.53 92.52 83.14 93.05"/>
    <polygon class="cls-8" points="81.96 92.52 81.5 92.46 81.78 92.83 81.33 92.67 81.53 93.1 81.13 92.85 81.23 93.31 80.89 92.99 80.9 93.46 80.64 93.07 80.54 93.53 80.36 93.1 80.18 93.53 80.09 93.07 79.82 93.45 79.84 92.98 79.49 93.3 79.6 92.84 79.2 93.08 79.4 92.66 78.96 92.81 79.24 92.44 78.78 92.49 79.13 92.19 78.67 92.15 79.08 91.92 78.63 91.78 79.08 91.65 78.67 91.42 79.14 91.39 78.79 91.08 79.25 91.14 78.97 90.76 79.41 90.92 79.22 90.49 79.62 90.74 79.51 90.28 79.85 90.61 79.85 90.14 80.11 90.52 80.21 90.06 80.38 90.5 80.57 90.07 80.65 90.53 80.93 90.14 80.91 90.61 81.26 90.3 81.15 90.75 81.55 90.51 81.35 90.93 81.79 90.78 81.51 91.16 81.97 91.1 81.61 91.4 82.08 91.45 81.67 91.67 82.12 91.81 81.67 91.94 82.08 92.17 81.61 92.21 81.96 92.52"/>
    <polygon class="cls-7" points="81.59 92.26 81.23 92.21 81.45 92.51 81.1 92.38 81.26 92.71 80.95 92.52 81.03 92.88 80.76 92.63 80.77 92.99 80.56 92.69 80.49 93.05 80.35 92.71 80.21 93.05 80.14 92.69 79.93 92.99 79.94 92.62 79.67 92.87 79.76 92.51 79.44 92.7 79.6 92.37 79.26 92.49 79.48 92.2 79.12 92.24 79.39 92.01 79.03 91.97 79.35 91.8 79 91.69 79.35 91.59 79.04 91.41 79.4 91.38 79.12 91.14 79.49 91.19 79.27 90.9 79.61 91.02 79.46 90.69 79.77 90.88 79.69 90.52 79.95 90.77 79.95 90.41 80.15 90.71 80.23 90.35 80.36 90.69 80.51 90.36 80.57 90.71 80.79 90.42 80.78 90.78 81.04 90.53 80.96 90.89 81.27 90.7 81.11 91.03 81.46 90.91 81.24 91.2 81.6 91.16 81.32 91.4 81.68 91.43 81.36 91.6 81.71 91.71 81.36 91.81 81.68 91.99 81.32 92.02 81.59 92.26"/>
  </g>
</svg>