<?xml version="1.0" encoding="UTF-8"?>
<svg id="Layer_15" data-name="Layer 15" xmlns="http://www.w3.org/2000/svg" viewBox="0 0 100 100">
  <defs>
    <style>
      .cls-1 {
        fill: #777;
      }

      .cls-2 {
        fill: #525285;
      }

      .cls-3 {
        fill: #efaa56;
      }

      .cls-4 {
        fill: #87a08d;
      }

      .cls-5 {
        fill: #e1e1e1;
      }

      .cls-6 {
        fill: #77897b;
      }

      .cls-7 {
        fill: #b0bfb3;
      }
    </style>
  </defs>
  <rect class="cls-2" x="0" width="100" height="100" rx="6.28" ry="6.28"/>
  <path class="cls-1" d="M95.02,64.84S54.24,32.22,40.67,10.5c0,0-7.83,13.64-31.89,31.89,0,0,40.78,32.63,54.35,54.35,0,0,7.83-13.64,31.89-31.89Z"/>
  <path class="cls-5" d="M95.01,61.04S54.23,28.41,40.66,6.69c0,0-7.83,13.64-31.89,31.89,0,0,40.78,32.63,54.35,54.35,0,0,7.83-13.64,31.89-31.89Z"/>
  <path class="cls-7" d="M63.23,47.62c7.97-5.17,13.39-15.31,13.39-26.98,0-3.88-.6-7.58-1.7-11-.42.39-.88.76-1.35,1.12-6.51-1.24-38.21-6.86-45.5-.49-.22-.18-.44-.36-.64-.54-.11.33-.21.67-.3,1.01-.88,3.1-1.36,6.43-1.36,9.9,0,11.67,5.42,21.81,13.39,26.98-7.97,5.17-13.39,15.31-13.39,26.98,0,3.88.6,7.58,1.7,11h.06c1.17.35,21.33,6.25,47.36-.09h.08c1.07-3.39,1.67-7.06,1.67-10.91,0-11.67-5.42-21.81-13.39-26.98Z"/>
  <path class="cls-6" d="M59.11,47.49c7.09-5.17,11.92-15.31,11.92-26.98,0-3.88-.54-7.58-1.51-11-.38.39-.78.76-1.2,1.12-5.8-1.24-34.01-6.86-40.51-.49-.19-.18-.39-.36-.57-.54-.09.33-.18.67-.27,1.01-.78,3.1-1.21,6.43-1.21,9.9,0,11.67,4.82,21.81,11.92,26.98-7.09,5.17-11.92,15.31-11.92,26.98,0,3.88.54,7.58,1.51,11h.05c1.04.35,18.99,6.25,42.16-.09h.07c.96-3.39,1.48-7.06,1.48-10.91,0-11.67-4.82-21.81-11.92-26.98Z"/>
  <path class="cls-4" d="M60.82,47.49c6.08-5.17,10.21-15.31,10.21-26.98,0-3.88-.46-7.58-1.29-11-.32.39-.67.76-1.03,1.12-4.96-1.24-29.13-6.86-34.69-.49-.17-.18-.33-.36-.49-.54-.08.33-.16.67-.23,1.01-.67,3.1-1.04,6.43-1.04,9.9,0,11.67,4.13,21.81,10.21,26.98-6.08,5.17-10.21,15.31-10.21,26.98,0,3.88.46,7.58,1.29,11h.04c.89.35,16.27,6.25,36.11-.09h.06c.82-3.39,1.27-7.06,1.27-10.91,0-11.67-4.13-21.81-10.21-26.98Z"/>
  <ellipse class="cls-3" cx="51.23" cy="9.79" rx="23.72" ry="3.05"/>
</svg>