<?xml version="1.0" encoding="UTF-8"?>
<svg xmlns="http://www.w3.org/2000/svg" viewBox="0 0 100 100">
  <defs>
    <style>
      .cls-1 {
        opacity: .13;
      }

      .cls-1, .cls-2 {
        fill: #424242;
      }

      .cls-3 {
        fill: #5555e0;
      }

      .cls-4 {
        fill: #353534;
      }

      .cls-5 {
        fill: #3d3d3d;
      }

      .cls-6 {
        fill: #4f3c5e;
      }

      .cls-7 {
        fill: #80e7ff;
      }

      .cls-8 {
        fill: #75daf2;
      }

      .cls-9 {
        fill: #5b2463;
      }
    </style>
  </defs>
  <g id="icon_3" data-name="icon 3">
    <rect class="cls-3" x="-.16" width="100" height="100" rx="6.28" ry="6.28"/>
    <path class="cls-4" d="M71.7,9.98s9.45-12.62,11.48-11.09l1.99,6.81s-14.14,13.15-12.46,15.93-4.65-5.17-4.65-5.17l3.63-6.48Z"/>
    <path class="cls-4" d="M81.92,19.29s-14.41,6.39-15.44,4.06l1.59-6.92s18.77-4.56,18.66-7.8,1.53,6.78,1.53,6.78l-6.34,3.88Z"/>
    <polygon class="cls-6" points="39.18 44 39.16 78.19 46.14 79.42 46.5 46.01 39.18 44"/>
    <polygon class="cls-6" points="4.58 35.78 4.56 70.73 12.44 71.98 12.84 37.84 4.58 35.78"/>
    <polygon class="cls-6" points="86.63 56.23 86.6 86.7 93.59 87.79 93.94 58.03 86.63 56.23"/>
    <polygon class="cls-6" points="63.44 50.55 63.42 82.29 70.4 83.42 70.76 52.42 63.44 50.55"/>
    <polygon class="cls-9" points="-.27 35.5 99.95 59.66 99.95 66.59 -.27 43.25 -.27 35.5"/>
    <polygon class="cls-9" points="-.29 44.31 99.92 68.47 99.92 75.4 -.29 52.06 -.29 44.31"/>
    <polygon class="cls-9" points="-.16 52.99 100.05 77.15 100.05 84.08 -.16 60.74 -.16 52.99"/>
    <polygon class="cls-9" points="-.27 61.33 99.95 85.49 99.95 92.42 -.27 69.08 -.27 61.33"/>
    <path class="cls-4" d="M88.33,10.8S97.78-1.82,99.81-.29l1.99,6.81s-14.14,13.15-12.46,15.93-4.65-5.17-4.65-5.17l3.63-6.48Z"/>
    <path class="cls-4" d="M76.14,18.62s-5.08,14.93-2.67,15.74l6.75-2.2s2.87-19.1,6.12-19.28-6.89-.92-6.89-.92l-3.3,6.65Z"/>
    <path class="cls-4" d="M56.94,16.91s-5.08,14.93-2.67,15.74l6.75-2.2s2.87-19.1,6.12-19.28-6.89-.92-6.89-.92l-3.3,6.65Z"/>
    <path class="cls-4" d="M98.55,20.11s-14.41,6.39-15.44,4.06l1.59-6.92s18.77-4.56,18.66-7.8,1.53,6.78,1.53,6.78l-6.34,3.88Z"/>
    <path class="cls-8" d="M64.76-1.39s3.29-14.69,14.66-13.79c0,0-3.2-12.95,14.29-13.7,0,0,1.72-9.6,15.69-9.77,0,0,22.61-9.59,24.63,16.85,0,0-.8,4.17-3.89,4.85,0,0-4.77,13.82-14.51,14.37,0,0-2.44,8.5-7.23,8.7,0,0-6.25,8.66-13.92,4.25,0,0-3.63,5.4-13.39,2.99"/>
  </g>
  <g id="Layer_19" data-name="Layer 19">
    <path class="cls-2" d="M79.14.67s6.96-1.06,9.41-2.22-.08,4.65-7.93,9.9"/>
    <path class="cls-2" d="M53.79-3.6s4.58,3.99,9.72,3.07l-3.52,7.24S50.88.44,53.79-3.6Z"/>
    <path class="cls-5" d="M82.19,8.34c.08,6.36-5.01,11.58-11.37,11.65s-11.58-5.01-11.65-11.37c-.05-3.7,1.66-7.01,4.34-9.15,1.93-1.54,4.37-2.47,7.03-2.5,6.36-.08,11.58,5.01,11.65,11.37Z"/>
    <path class="cls-2" d="M80.62,8.11c.07,5.93-4.67,10.79-10.6,10.86s-10.79-4.67-10.86-10.6c-.04-3.45,1.54-6.53,4.05-8.53,1.8-1.43,4.07-2.3,6.55-2.33,5.93-.07,10.79,4.67,10.86,10.6Z"/>
    <path class="cls-1" d="M80.65,2.28s6.96-1.06,9.41-2.22-.08,4.65-7.93,9.9"/>
    <path class="cls-7" d="M59.07,1.12s6.08,4.12,11.53,1.67c0,0,8.55,4.35,10-.12,0,0,5.37.57,3.67-3.93,0,0,.39-2.49-3.19-2.9,0,0-3.59-5.44-8.78-4.34,0,0-9.69-2.11-11.94,2.64,0,0-5.72,3.47-1.29,6.99Z"/>
  </g>
</svg>