<?xml version="1.0" encoding="UTF-8"?>
<svg id="icon_3" data-name="icon 3" xmlns="http://www.w3.org/2000/svg" viewBox="0 0 100 100">
  <defs>
    <style>
      .cls-1 {
        fill: #b839b9;
      }

      .cls-2 {
        fill: #8ab0ff;
      }

      .cls-3 {
        fill: #424242;
      }
    </style>
  </defs>
  <rect class="cls-1" x="-.11" width="100" height="100" rx="6.28" ry="6.28"/>
  <ellipse class="cls-3" cx="12.16" cy="22.62" rx="3.84" ry="4.67"/>
  <ellipse class="cls-3" cx="28.5" cy="22.62" rx="2.98" ry="4.22"/>
  <ellipse class="cls-3" cx="13.09" cy="45.48" rx="4.15" ry="5.06"/>
  <ellipse class="cls-3" cx="27.94" cy="46.54" rx="2.76" ry="4.38"/>
  <path class="cls-3" d="M23.07,9.78s4.21-3.87,7.03-.06c0,0-.57,4.87-6.72,1.57"/>
  <path class="cls-3" d="M16.35,9.26s-4.21-3.87-7.03-.06c0,0,.57,4.87,6.72,1.57"/>
  <ellipse class="cls-2" cx="24.52" cy="23.03" rx="5.16" ry="6.28"/>
  <ellipse class="cls-2" cx="24.75" cy="31.29" rx="5.16" ry="6.28"/>
  <ellipse class="cls-2" cx="24.52" cy="38.35" rx="5.16" ry="6.28"/>
  <ellipse class="cls-2" cx="23.03" cy="46.54" rx="5.16" ry="6.28"/>
  <ellipse class="cls-2" cx="16.29" cy="46.54" rx="5.16" ry="6.28"/>
  <ellipse class="cls-2" cx="15.37" cy="38.35" rx="5.16" ry="6.28"/>
  <ellipse class="cls-2" cx="15.37" cy="31.29" rx="5.16" ry="6.28"/>
  <ellipse class="cls-2" cx="15.37" cy="23.03" rx="5.16" ry="6.28"/>
  <ellipse class="cls-2" cx="19.6" cy="20.56" rx="5.16" ry="6.28"/>
  <ellipse class="cls-2" cx="19.6" cy="47.95" rx="5.16" ry="6.28"/>
  <ellipse class="cls-2" cx="18.73" cy="29.31" rx="5.16" ry="6.28"/>
  <ellipse class="cls-2" cx="18.73" cy="36.65" rx="5.16" ry="6.28"/>
  <path class="cls-2" d="M23.56,58.82c.41,1.56-.3,3.23-1.57,3.73s-2.65-.36-3.06-1.92.3-3.23,1.57-3.73,2.65.36,3.06,1.92Z"/>
  <path class="cls-2" d="M26.19,56.88c.41,1.56-.3,3.23-1.57,3.73s-2.65-.36-3.06-1.92.3-3.23,1.57-3.73,2.65.36,3.06,1.92Z"/>
  <path class="cls-2" d="M26.81,59.22c.41,1.56-.3,3.23-1.57,3.73s-2.65-.36-3.06-1.92.3-3.23,1.57-3.73,2.65.36,3.06,1.92Z"/>
  <ellipse class="cls-2" cx="19.26" cy="55.51" rx="2.43" ry="2.96"/>
  <ellipse class="cls-2" cx="22.32" cy="55.08" rx="2.43" ry="2.96"/>
  <ellipse class="cls-2" cx="22.08" cy="57.52" rx="2.43" ry="2.96"/>
  <path class="cls-2" d="M24.57,55.37c.41,1.56-.3,3.23-1.57,3.73s-2.65-.36-3.06-1.92.3-3.23,1.57-3.73,2.65.36,3.06,1.92Z"/>
  <path class="cls-2" d="M27.21,53.43c.41,1.56-.3,3.23-1.57,3.73s-2.65-.36-3.06-1.92.3-3.23,1.57-3.73,2.65.36,3.06,1.92Z"/>
  <path class="cls-2" d="M27.82,55.78c.41,1.56-.3,3.23-1.57,3.73s-2.65-.36-3.06-1.92.3-3.23,1.57-3.73,2.65.36,3.06,1.92Z"/>
  <ellipse class="cls-2" cx="14.59" cy="12" rx="2.43" ry="2.96"/>
  <ellipse class="cls-2" cx="17.61" cy="11.28" rx="2.43" ry="2.96"/>
  <ellipse class="cls-2" cx="17.53" cy="13.74" rx="2.43" ry="2.96"/>
  <ellipse class="cls-2" cx="15.53" cy="8.15" rx="2.43" ry="2.96"/>
  <ellipse class="cls-2" cx="18.52" cy="7.28" rx="2.43" ry="2.96"/>
  <ellipse class="cls-2" cx="18.52" cy="9.74" rx="2.43" ry="2.96"/>
  <path class="cls-2" d="M22,8.41c-.23-1.61.65-3.15,1.97-3.44s2.59.79,2.82,2.4-.65,3.15-1.97,3.44-2.59-.79-2.82-2.4Z"/>
  <path class="cls-2" d="M18.82,7.48c-.23-1.61.65-3.15,1.97-3.44s2.59.79,2.82,2.4-.65,3.15-1.97,3.44-2.59-.79-2.82-2.4Z"/>
  <path class="cls-2" d="M21.78,12.53c-.29-1.6.54-3.18,1.85-3.53s2.61.66,2.9,2.26-.54,3.18-1.85,3.53-2.61-.66-2.9-2.26Z"/>
  <path class="cls-2" d="M19.01,14.16c-.29-1.6.54-3.18,1.85-3.53s2.61.66,2.9,2.26-.54,3.18-1.85,3.53-2.61-.66-2.9-2.26Z"/>
  <path class="cls-2" d="M18.58,11.76c-.29-1.6.54-3.18,1.85-3.53s2.61.66,2.9,2.26-.54,3.18-1.85,3.53-2.61-.66-2.9-2.26Z"/>
  <ellipse class="cls-3" cx="56.65" cy="76.61" rx="3.84" ry="4.67" transform="translate(-2.12 1.61) rotate(-1.6)"/>
  <ellipse class="cls-3" cx="40.31" cy="77.06" rx="2.98" ry="4.22" transform="translate(-2.14 1.16) rotate(-1.6)"/>
  <ellipse class="cls-3" cx="55.07" cy="53.78" rx="4.15" ry="5.06" transform="translate(-1.48 1.56) rotate(-1.6)"/>
  <ellipse class="cls-3" cx="40.2" cy="53.14" rx="2.76" ry="4.38" transform="translate(-1.47 1.14) rotate(-1.6)"/>
  <path class="cls-3" d="M46.1,89.74s-4.1,3.98-7.03.26c0,0,.44-4.88,6.67-1.76"/>
  <path class="cls-3" d="M52.83,90.08s4.32,3.75,7.03-.13c0,0-.71-4.85-6.76-1.39"/>
  <ellipse class="cls-2" cx="44.28" cy="76.54" rx="5.16" ry="6.28" transform="translate(-2.12 1.27) rotate(-1.6)"/>
  <ellipse class="cls-2" cx="43.82" cy="68.29" rx="5.16" ry="6.28" transform="translate(-1.89 1.25) rotate(-1.6)"/>
  <ellipse class="cls-2" cx="43.85" cy="61.23" rx="5.16" ry="6.28" transform="translate(-1.69 1.25) rotate(-1.6)"/>
  <ellipse class="cls-2" cx="45.11" cy="53" rx="5.16" ry="6.28" transform="translate(-1.46 1.28) rotate(-1.6)"/>
  <ellipse class="cls-2" cx="51.85" cy="52.81" rx="5.16" ry="6.28" transform="translate(-1.46 1.47) rotate(-1.6)"/>
  <ellipse class="cls-2" cx="53" cy="60.97" rx="5.16" ry="6.28" transform="translate(-1.68 1.5) rotate(-1.6)"/>
  <ellipse class="cls-2" cx="53.2" cy="68.03" rx="5.16" ry="6.28" transform="translate(-1.88 1.51) rotate(-1.6)"/>
  <ellipse class="cls-2" cx="53.43" cy="76.29" rx="5.16" ry="6.28" transform="translate(-2.11 1.52) rotate(-1.6)"/>
  <ellipse class="cls-2" cx="49.27" cy="78.87" rx="5.16" ry="6.28" transform="translate(-2.18 1.41) rotate(-1.6)"/>
  <ellipse class="cls-2" cx="48.51" cy="51.5" rx="5.16" ry="6.28" transform="translate(-1.42 1.38) rotate(-1.6)"/>
  <ellipse class="cls-2" cx="49.89" cy="70.1" rx="5.16" ry="6.28" transform="translate(-1.94 1.42) rotate(-1.6)"/>
  <ellipse class="cls-2" cx="49.69" cy="62.76" rx="5.16" ry="6.28" transform="translate(-1.73 1.41) rotate(-1.6)"/>
  <path class="cls-2" d="M44.24,40.74c-.45-1.55.2-3.23,1.47-3.77s2.66.29,3.11,1.83-.2,3.23-1.47,3.77-2.66-.29-3.11-1.83Z"/>
  <path class="cls-2" d="M41.66,42.75c-.45-1.55.2-3.23,1.47-3.77s2.66.29,3.11,1.83-.2,3.23-1.47,3.77-2.66-.29-3.11-1.83Z"/>
  <path class="cls-2" d="M40.98,40.43c-.45-1.55.2-3.23,1.47-3.77s2.66.29,3.11,1.83-.2,3.23-1.47,3.77-2.66-.29-3.11-1.83Z"/>
  <ellipse class="cls-2" cx="48.63" cy="43.93" rx="2.43" ry="2.96" transform="translate(-1.21 1.38) rotate(-1.6)"/>
  <ellipse class="cls-2" cx="45.58" cy="44.44" rx="2.43" ry="2.96" transform="translate(-1.22 1.29) rotate(-1.6)"/>
  <ellipse class="cls-2" cx="45.76" cy="41.99" rx="2.43" ry="2.96" transform="translate(-1.16 1.29) rotate(-1.6)"/>
  <path class="cls-2" d="M43.32,44.21c-.45-1.55.2-3.23,1.47-3.77s2.66.29,3.11,1.83-.2,3.23-1.47,3.77-2.66-.29-3.11-1.83Z"/>
  <path class="cls-2" d="M40.74,46.23c-.45-1.55.2-3.23,1.47-3.77s2.66.29,3.11,1.83-.2,3.23-1.47,3.77-2.66-.29-3.11-1.83Z"/>
  <path class="cls-2" d="M40.06,43.9c-.45-1.55.2-3.23,1.47-3.77s2.66.29,3.11,1.83-.2,3.23-1.47,3.77-2.66-.29-3.11-1.83Z"/>
  <ellipse class="cls-2" cx="54.51" cy="87.29" rx="2.43" ry="2.96" transform="translate(-2.42 1.56) rotate(-1.6)"/>
  <ellipse class="cls-2" cx="51.51" cy="88.09" rx="2.43" ry="2.96" transform="translate(-2.44 1.47) rotate(-1.6)"/>
  <ellipse class="cls-2" cx="51.53" cy="85.63" rx="2.43" ry="2.96" transform="translate(-2.37 1.47) rotate(-1.6)"/>
  <ellipse class="cls-2" cx="53.68" cy="91.16" rx="2.43" ry="2.96" transform="translate(-2.53 1.54) rotate(-1.6)"/>
  <ellipse class="cls-2" cx="50.72" cy="92.12" rx="2.43" ry="2.96" transform="translate(-2.55 1.45) rotate(-1.6)"/>
  <ellipse class="cls-2" cx="50.65" cy="89.66" rx="2.43" ry="2.96" transform="translate(-2.49 1.45) rotate(-1.6)"/>
  <path class="cls-2" d="M47.21,91.09c.28,1.6-.56,3.17-1.87,3.49s-2.61-.72-2.89-2.32.56-3.17,1.87-3.49,2.61.72,2.89,2.32Z"/>
  <path class="cls-2" d="M50.41,91.93c.28,1.6-.56,3.17-1.87,3.49s-2.61-.72-2.89-2.32.56-3.17,1.87-3.49,2.61.72,2.89,2.32Z"/>
  <path class="cls-2" d="M47.31,86.96c.33,1.59-.45,3.19-1.75,3.58s-2.63-.59-2.96-2.18.45-3.19,1.75-3.58,2.63.59,2.96,2.18Z"/>
  <path class="cls-2" d="M50.03,85.25c.33,1.59-.45,3.19-1.75,3.58s-2.63-.59-2.96-2.18.45-3.19,1.75-3.58,2.63.59,2.96,2.18Z"/>
  <path class="cls-2" d="M50.53,87.64c.33,1.59-.45,3.19-1.75,3.58s-2.63-.59-2.96-2.18.45-3.19,1.75-3.58,2.63.59,2.96,2.18Z"/>
  <ellipse class="cls-3" cx="67.65" cy="20.81" rx="3.84" ry="4.67"/>
  <ellipse class="cls-3" cx="83.99" cy="20.81" rx="2.98" ry="4.22"/>
  <ellipse class="cls-3" cx="68.59" cy="43.67" rx="4.15" ry="5.06"/>
  <ellipse class="cls-3" cx="83.43" cy="44.73" rx="2.76" ry="4.38"/>
  <path class="cls-3" d="M78.57,7.97s4.21-3.87,7.03-.06c0,0-.57,4.87-6.72,1.57"/>
  <path class="cls-3" d="M71.85,7.45s-4.21-3.87-7.03-.06c0,0,.57,4.87,6.72,1.57"/>
  <ellipse class="cls-2" cx="80.01" cy="21.22" rx="5.16" ry="6.28"/>
  <ellipse class="cls-2" cx="80.25" cy="29.48" rx="5.16" ry="6.28"/>
  <ellipse class="cls-2" cx="80.01" cy="36.54" rx="5.16" ry="6.28"/>
  <ellipse class="cls-2" cx="78.52" cy="44.73" rx="5.16" ry="6.28"/>
  <ellipse class="cls-2" cx="71.79" cy="44.73" rx="5.16" ry="6.28"/>
  <ellipse class="cls-2" cx="70.86" cy="36.54" rx="5.16" ry="6.28"/>
  <ellipse class="cls-2" cx="70.86" cy="29.48" rx="5.16" ry="6.28"/>
  <ellipse class="cls-2" cx="70.86" cy="21.22" rx="5.16" ry="6.28"/>
  <ellipse class="cls-2" cx="75.09" cy="18.75" rx="5.16" ry="6.28"/>
  <ellipse class="cls-2" cx="75.09" cy="46.14" rx="5.16" ry="6.28"/>
  <ellipse class="cls-2" cx="74.22" cy="27.5" rx="5.16" ry="6.28"/>
  <ellipse class="cls-2" cx="74.22" cy="34.84" rx="5.16" ry="6.28"/>
  <path class="cls-2" d="M79.05,57.01c.41,1.56-.3,3.23-1.57,3.73s-2.65-.36-3.06-1.92.3-3.23,1.57-3.73,2.65.36,3.06,1.92Z"/>
  <path class="cls-2" d="M81.68,55.07c.41,1.56-.3,3.23-1.57,3.73s-2.65-.36-3.06-1.92.3-3.23,1.57-3.73,2.65.36,3.06,1.92Z"/>
  <path class="cls-2" d="M82.3,57.41c.41,1.56-.3,3.23-1.57,3.73s-2.65-.36-3.06-1.92.3-3.23,1.57-3.73,2.65.36,3.06,1.92Z"/>
  <ellipse class="cls-2" cx="74.76" cy="53.7" rx="2.43" ry="2.96"/>
  <ellipse class="cls-2" cx="77.81" cy="53.27" rx="2.43" ry="2.96"/>
  <ellipse class="cls-2" cx="77.57" cy="55.71" rx="2.43" ry="2.96"/>
  <path class="cls-2" d="M80.07,53.56c.41,1.56-.3,3.23-1.57,3.73s-2.65-.36-3.06-1.92.3-3.23,1.57-3.73,2.65.36,3.06,1.92Z"/>
  <path class="cls-2" d="M82.7,51.62c.41,1.56-.3,3.23-1.57,3.73s-2.65-.36-3.06-1.92.3-3.23,1.57-3.73,2.65.36,3.06,1.92Z"/>
  <path class="cls-2" d="M83.32,53.97c.41,1.56-.3,3.23-1.57,3.73s-2.65-.36-3.06-1.92.3-3.23,1.57-3.73,2.65.36,3.06,1.92Z"/>
  <ellipse class="cls-2" cx="70.09" cy="10.19" rx="2.43" ry="2.96"/>
  <ellipse class="cls-2" cx="73.11" cy="9.47" rx="2.43" ry="2.96"/>
  <ellipse class="cls-2" cx="73.02" cy="11.93" rx="2.43" ry="2.96"/>
  <ellipse class="cls-2" cx="71.02" cy="6.34" rx="2.43" ry="2.96"/>
  <ellipse class="cls-2" cx="74.01" cy="5.47" rx="2.43" ry="2.96"/>
  <ellipse class="cls-2" cx="74.01" cy="7.93" rx="2.43" ry="2.96"/>
  <path class="cls-2" d="M77.49,6.6c-.23-1.61.65-3.15,1.97-3.44s2.59.79,2.82,2.4-.65,3.15-1.97,3.44-2.59-.79-2.82-2.4Z"/>
  <path class="cls-2" d="M74.32,5.67c-.23-1.61.65-3.15,1.97-3.44s2.59.79,2.82,2.4-.65,3.15-1.97,3.44-2.59-.79-2.82-2.4Z"/>
  <path class="cls-2" d="M77.27,10.72c-.29-1.6.54-3.18,1.85-3.53s2.61.66,2.9,2.26-.54,3.18-1.85,3.53-2.61-.66-2.9-2.26Z"/>
  <path class="cls-2" d="M74.51,12.35c-.29-1.6.54-3.18,1.85-3.53s2.61.66,2.9,2.26-.54,3.18-1.85,3.53-2.61-.66-2.9-2.26Z"/>
  <path class="cls-2" d="M74.07,9.95c-.29-1.6.54-3.18,1.85-3.53s2.61.66,2.9,2.26-.54,3.18-1.85,3.53-2.61-.66-2.9-2.26Z"/>
</svg>